<?xml version="1.0" encoding="UTF-8"?>
<svg xmlns="http://www.w3.org/2000/svg"
   width="32" height="96" viewBox="0 0 32 96">
  <path fill="#bf2e09" stroke="#bf8909" stroke-width=".5"
    d="M20.086 30.464c-2.947-1.032-6.002-3.47-6.138-7.603-.154-4.68 4.343-16.046 8.99-22.952-2.236 14.214 3.947 13.958 4.858 22.952.337 3.326-2.91 7.715-6.042 7.872a2.975 2.975 0 0 1-.195.004 1.822 1.822 0 0 0 1.38-1.734c.014-.722-2.114-3.549-1.71-6.868-.92 2.43-2.015 5.68-1.92 6.812.053.624.3 1.183.777 1.517zm1.042-26.115c.017.014.037.026.043.079-.282 3.683-.153 7.407 1.624 10.713.848 1.579 1.973 2.997 2.775 4.598a13.516 13.516 0 0 1 1.288 3.974c.251 1.635-.3 3.401-1.327 4.69-.154.194-.807.825-1.577 1.326.618-.402 1.31-1.225 1.467-1.452.928-1.35 1.542-3.02 1.262-4.626-.323-1.803-1.005-3.531-1.978-5.127-.88-1.441-1.891-2.808-2.568-4.361-1.267-2.91-1.372-6.205-1.155-9.38C19.01 8.363 17.5 12.29 16.354 16.3c-.654 2.285-1.239 4.606-1.327 6.982-.06 1.592.235 3.28 1.32 4.486.682.759 2.455 2.059 2.749 2.128-.13-.03-1.766-.82-2.776-1.9-1.085-1.16-1.43-2.627-1.462-4.098-.038-1.827.335-3.646.76-5.44a57.977 57.977 0 0 1 4.135-11.636c.384-.801.79-1.592 1.225-2.369 0 0 .034-.14.15-.105z"/>
  <path fill="#09bf89"
    d="M29.035 34.152a1.523 1.523 0 0 0-2.368-1.266c-1.983 1.33-4.416 2.176-5.785 1.758-2.106-.644-4.435-2.266-6.4-2.578a1.521 1.521 0 0 0-1.75 1.504c-.002 7.057-.002 53.781-.002 53.781-.495 3.032-7.769 4.563-12.575 5.287A.182.182 0 0 0 .182 93h31.412a.405.405 0 0 0 .202-.757c-1.36-.786-2.306-2.173-2.761-4.273V34.152z"/>
  <path  fill="#09bf89" stroke="#08a778" stroke-width=".4"
    d="M12.716 36.32c.2 2.32-1.273 3.768-1.284 5.387a1.25 1.25 0 0 0 2.499.016c.01-1.618-.69-3.618-1.215-5.404zM12.75 85.277c-.349 1.693-2.097 2.235-2.484 3.367a1.264 1.264 0 0 0 2.391.816c.386-1.133.228-2.899.092-4.183zM28.978 84.567c-.122 2.292.794 3.78.857 4.367a.893.893 0 0 1-.7.954.722.722 0 0 1-.872-.644c-.063-.587.315-2.739.715-4.677z"/>
</svg>
