<svg xmlns="http://www.w3.org/2000/svg"
xmlns:xlink="http://www.w3.org/1999/xlink"
   width="32" height="96" viewBox="0 0 32 96">
   <desc></desc>
   <defs>

   </defs>
  <path d="M11.915 30.464c2.947-1.032 6.002-3.47 6.138-7.603.154-4.68-4.343-16.046-8.99-22.952 2.236 14.214-3.947 13.958-4.858 22.952-.337 3.326 2.91 7.715 6.042 7.872a2.975 2.975 0 0 0 .195.004 1.822 1.822 0 0 1-1.38-1.734c-.014-.722 2.114-3.549 1.71-6.868.92 2.43 2.015 5.68 1.92 6.812-.053.624-.3 1.183-.777 1.517zM10.873 4.349c-.017.014-.037.026-.043.079.282 3.683.153 7.407-1.624 10.713-.848 1.579-1.973 2.997-2.775 4.598a13.516 13.516 0 0 0-1.288 3.974c-.251 1.635.3 3.401 1.327 4.69.154.194.807.825 1.577 1.326-.618-.402-1.31-1.225-1.467-1.452-.928-1.35-1.542-3.02-1.262-4.626.323-1.803 1.005-3.531 1.978-5.127.88-1.441 1.89-2.808 2.568-4.361 1.267-2.91 1.372-6.205 1.155-9.38C12.99 8.363 14.5 12.29 15.647 16.3c.654 2.285 1.239 4.606 1.327 6.982.06 1.592-.235 3.28-1.32 4.486-.682.759-2.455 2.059-2.75 2.128.13-.03 1.767-.82 2.777-1.9 1.085-1.16 1.43-2.627 1.462-4.098.038-1.827-.335-3.646-.76-5.44a57.977 57.977 0 0 0-4.135-11.636 42.104 42.104 0 0 0-1.225-2.369s-.034-.14-.15-.105z" fill="#bf2e09" stroke="#bf8909" stroke-width=".5"/>
  <path d="M2.966 34.152a1.523 1.523 0 0 1 2.368-1.266c1.983 1.33 4.416 2.176 5.785 1.758 2.106-.644 4.435-2.266 6.4-2.578a1.521 1.521 0 0 1 1.75 1.504c.002 7.057.002 53.781.002 53.781.495 3.032 7.769 4.563 12.575 5.287a.182.182 0 0 1-.027.362H.407a.405.405 0 0 1-.202-.757c1.36-.786 2.306-2.173 2.76-4.273z" fill="#09bf89"/>
  <path d="M19.285 36.32c-.2 2.32 1.273 3.768 1.284 5.387a1.25 1.25 0 0 1-2.5.016c-.01-1.618.69-3.618 1.216-5.404zm-.034 48.957c.349 1.693 2.097 2.235 2.484 3.367a1.264 1.264 0 0 1-2.391.816c-.386-1.133-.228-2.899-.092-4.183zm-16.228-.71c.122 2.292-.794 3.78-.857 4.367a.893.893 0 0 0 .7.954.722.722 0 0 0 .872-.644c.063-.587-.315-2.739-.715-4.677z" fill="#09bf89" stroke="#08a778" stroke-width=".4"/>
</svg>
