<svg id="header-ks01" xmlns="http://www.w3.org/2000/svg" xml:lang="cu" lang="cu" viewBox="0 0 736 340" style="border:solid">
<title>Кафизма первая. Заголовок с заставкой</title>
  <text x="368" y="280" style="font-size:90px;font-family: 'Cathisma Unicode'; text-anchor:middle;fill:#cc3300;">Каѳі́сма пе́рваѧ</text>
  <path style="fill:#6c757d;stroke:#ced4da;stroke-width:1; stroke-miterlimit:10" d="M365.438.738v4.545h-3.252V8.66h3.251v8.184H354.04v4.414h11.27v15.43l-4.164-1.819v4.545l4.084 1.95v10.103l-6.01 8c1.64.623 3.2 1.402 4.683 2.338l4.137-5.87 4.606 5.819 4.085-1.768-7.13-9.869V43.44l4.345 1.897v-4.883l-4.552-2V21.258h11.787v-4.414h-11.815l-.363-8.184h2.992V5.283h-3.12l-.21-4.545zM335.56 50.227c-.283-.026-.57.058-.856.253l-1.951 2.649c-.443.988-.443 1.819 0 2.469.494.363.988.44 1.482.26.157-.08.314-.156.444-.26l.312-.157c.86-.546 1.483-1.35 1.822-2.416.338-1.118.208-1.921-.418-2.388-.272-.247-.553-.384-.835-.41zm10.048.341c-2.34-.05-4.502 1.072-6.505 3.368a31.978 31.978 0 0 0-5.23 11.195c-.548.052-.965-.053-1.224-.338 1.093-3.819.183-6.623-2.76-8.363-3.303-1.17-6.399-.47-9.236 2.101-2.654 3.092-2.732 6.21-.234 9.326 2.265 1.845 4.163 1.481 5.646-1.039.468-1.714.051-2.96-1.25-3.74-.337-.494-.493-.987-.441-1.48.182-1.014.884-1.482 2.08-1.352 1.9.078 3.462 1.35 4.66 3.844.051.234.103.443.13.676.285 1.767.311 3.713.077 5.843-.079 7.35-.859 15.248-2.367 23.69l1.82.181a182.804 182.804 0 0 0 2.786-16.027c.572-6 1.64-10.986 3.175-15.012a.547.547 0 0 1 .104-.13c2.055-2.78 3.539-5.17 4.502-7.118.833-.936 1.51-1.271 2.004-1.011.702-.026 1.248.206 1.638.648-.13 1.48.26 2.753 1.12 3.793 3.615 1.22 5.464.105 5.568-3.402-.183-3.403-1.849-5.25-5.049-5.56a7.361 7.361 0 0 0-1.014-.093zm-2.656 8.067c-5.542 8.807-8.222 18.08-8.092 27.82.677.442 1.277.494 1.797.182 3.903-5.376 9.914-8.339 18.006-8.936 5.855-2.78 7.262-5.609 4.191-8.467l-.859-.26c-1.118 5.04-3.746 6.935-7.857 5.688-.39.208-.756.416-1.121.598-2.861 2.597-5.126 3.352-6.791 2.287-2.42.13-3.566-1.117-3.487-3.74 2.498-1.247 4.45-3.04 5.828-5.405 0-1.792.963-3.843 2.914-6.103-2.004-.442-3.513-1.662-4.527-3.662zm12.336 2.582c-2.01.079-4.03.8-6.062 2.146-1.328 1.195-2.29 2.806-2.836 4.807-.025.05-.051.102-.078.18-1.483 2.988-3.487 4.91-6.01 5.793.234 2.027 1.535 2.571 3.955 1.636.39-.416.545-.727.494-.935.546.13 1.04.156 1.43.078.704-.156 1.17-.727 1.406-1.74.234-1.142.156-2.184-.26-3.145l-.234.131.18-.232.078.103.937-.492.34.232c.286 1.974 1.534 2.884 3.719 2.729 2.317-.546 3.202-2 2.656-4.39-.546-.936-.6-1.792-.156-2.598 2.836-.597 5.152.52 6.922 3.351 2.185 5.09.207 8.728-5.961 10.885-.415 0-.832-.002-1.248.023-6.428.39-12.308 3.092-17.59 8.106-1.9 1.82-3.332 4.129-4.348 6.908-.13.39-.259.78-.389 1.195l-4.529-.57c-3.929-18.39-11.942-27.769-23.99-28.133-2.056.078-3.721.6-4.945 1.56-1.12.936-1.873 2.053-2.211 3.378-.416 2.467.31 4 2.183 4.648.651.13 1.354.103 2.16-.053.807-.727 1.225-1.688 1.2-2.882-.963.156-1.772.026-2.448-.364a2.146 2.146 0 0 1 0-1.508c.39-.908 1.301-1.4 2.707-1.505 1.327-.13 2.784.025 4.344.466 7.625 2.104 12.882 7.818 15.744 17.17 1.483 4.804 2.317 10.598 2.551 17.326-.624 3.43.287 5.168 2.76 5.22 1.535.544 2.758 1.35 3.668 2.415.39 1.87.909 3.767 1.613 5.664-.547.493-1.094.676-1.64.493-6.116-2.598-10.565-.676-13.376 5.792l-1.298.573-1.954-6.207c-2.889 1.999-6.115 3.218-9.654 3.634v.366c-1.223 2.337-2.575 3.972-4.006 4.933-2.76 1.533-5.517 1.533-8.275 0-1.328-.96-2.525-2.621-3.592-4.933-1.119-.651-2.446-.651-4.033 0-.26 2.258-.103 4.232.469 5.92 5.7 7.975 13.114 8.287 22.3.963.494-.494 1.014-.47 1.508.048l-.025-.103c.026.027.052.027.078.053.026.026.077.05.103.078 4.45 2.622 8.615 3.766 12.442 3.402v.053c2.783-.077 5.49-.885 8.092-2.391 2.654-1.377 4.292-3.508 4.89-6.34 0-.025.001-.026.028-.05l.466-.57c3.227 6.336 8.068 12.883 14.547 19.61l3.461-3.56-9.498-11.688c-4.71-6.728-7.183-14.545-7.443-23.482-.078-2.364.026-4.804.26-7.324.147-.628.34-1.243.574-1.844 1.69-4.831 4.969-8.494 9.887-10.961 2.42-1.507 4.814-1.793 7.209-.883.155.05.312.13.468.207a9.562 9.562 0 0 1 3.305 2c2.238 2.546 2.473 5.118.729 7.69-.234.31-.468.623-.729.933-1.379 1.22-3.227 1.74-5.543 1.533-2.055-.598-3.095-2.363-3.121-5.324-3.826 1.844-4.763 4.857-2.838 9.037-4.397 4.885-4.136 9.302.756 13.25-2.212 2.935-1.743 5.245 1.43 6.934.027.025.053.027.078.053 1.51-2.208 3.2-3.301 5.049-3.301 5.829.625 7.91 5.144 6.271 13.56-.39 2.39-1.277 4.881-2.604 7.479-.729 1.429-1.664 2.728-2.783 3.951-.39.414-.807.829-1.25 1.219-.91.805-1.9 1.584-3.017 2.287a32.878 32.878 0 0 1-3.93 2.104v5.22c9.186-3.195 15.04-8.339 17.592-15.377 4.19-12.755 2.08-22.547-6.324-29.404l-.235-1.35c2.89-2.312 5.31-4.908 7.262-7.74.495-.728.99-1.455 1.432-2.207a43.831 43.831 0 0 0 1.586-3.119l-.104-6.361h-.937c-.6-.754-1.301-1.482-2.055-2.157-.26-.234-.522-.442-.781-.675v-1.637c.13-.26.26-.494.39-.701.233-.364.493-.676.78-.91.78-.285 1.25-.83 1.406-1.635.238-2.42.204-4.861-.104-7.274-.026-2.935-.832-5.195-2.445-6.832a15.576 15.576 0 0 0-2.059-2.076c-1.17-.987-2.419-1.715-3.797-2.156a9.743 9.743 0 0 0-3.15-.406zM248.91 63.754c-5.777 2.442-6.53 6.05-2.236 10.805h.988v1.896l-4.736 1.3c.65 1.169 1.691 1.947 3.148 2.337 17.722-2.728 27.585 5.402 29.64 24.39-.546.182-1.64.831-3.253 1.922-.702.44-1.484.986-2.37 1.637l-.779.545a66.648 66.648 0 0 0-11.423-17.61c-1.822.026-3.15 1.48-3.983 4.387 9.16 8.183 13.844 18.391 14.053 30.625 1.951.987 3.902.987 5.853 0l-.103-4.726c-1.275-2.417-1.326-4.857-.207-7.3l1.039-.622c2.473-.261 4.685-1.586 6.662-3.95.027-.025.028-.025.053-.025.078-11.093-2.344-19.509-7.262-25.3-.8-.93-1.67-1.797-2.601-2.596-4.138-3.533-9.55-5.717-16.29-6.522-5.49-1.43-7.52-5.142-6.037-11.142zm-121.887 2.752c-2.213 2.052-3.954 4.08-5.177 6.105 1.978.52 3.59 1.766 4.812 3.74 1.457-1.635 3.174-3.118 5.127-4.443-1.51-2.155-3.097-3.947-4.762-5.402zm-13.382 6.137c-1.624.01-3.34.223-5.145.642-5.985 1.87-10.2 5.04-12.619 9.533v.131h-.703c-.598-2.44-1.822-4.546-3.67-6.338-3.59-2.857-6.947-3.038-10.043-.57-1.821 1.689-2.655 3.403-2.473 5.117.338 1.013.494 1.896.52 2.701-.155 1.04.365 1.403 1.562 1.092 3.253-.857 6.114.206 8.586 3.246.65.78 1.12 1.843 1.432 3.168.339 1.43.469 3.17.416 5.223-1.457 7.402-5.646 12.986-12.568 16.701-2.992 4.546-6.635 7.247-10.877 8.053-4.814 7.35-10.15 7.87-15.979 1.53-1.092-.31-2.004-.206-2.732.288-.78 1.272-.78 2.362 0 3.297l2.707 2.701c.937.91 1.873 1.587 2.81 2.028 4.92 1.325 9.55.778 13.897-1.612l12.515-10.701c3.8-2.52 7.442-2.053 10.93 1.402l4.111 10c2.993 5.61 5.257 6.729 6.766 3.327l-6.166-14.86c-1.328-11.637-.861-20.753 1.455-27.377 1.38-3.974 3.41-7.064 6.09-9.22 1.17-.78 2.315-1.403 3.486-1.87a11.243 11.243 0 0 1 4.686-.754c4.71-.104 7.495 2.155 8.3 6.752.054.286.104.571.13.883-.234 1.713-1.275 3.171-3.096 4.365-2.758 1.532-5.673 1.35-8.77-.544-3.799 10.052-3.642 18.881.469 26.544 0 .026.025.079.05.106 2.214-1.818 4.608-1.818 7.159 0 6.948 8.935 5.047 17.115-5.674 24.57.39 1.637 1.276 2.78 2.654 3.455 6.35-3.844 10.045-9.012 11.112-15.48l1.17-.207c1.718 5.895 4.685 10.882 8.927 14.933 4.475 5.455 9.133 9.922 14 13.377.884-2.103 1.066-3.947.545-5.478l2.032-.416c-.703-.65-.809-1.613-.315-2.885 1.354-2.65 3.541-3.194 6.533-1.61.39.39.729.806 1.014 1.22 1.12 1.636 1.092 3.3-.053 4.962-.26.39-.572.753-.963 1.143-1.847.91-3.718.91-5.593 0v8.52c-.078 4.545-2.706 5.896-7.885 4.078-6.87-1.482-12.934-4.366-18.217-8.702l-4.346 3.143c2.68 2.598 5.518 4.807 8.563 6.65a41.05 41.05 0 0 0 3.305 1.793 45.525 45.525 0 0 0 8.066 2.987c1.9.857 3.721 1.402 5.44 1.636.571.078 1.144.104 1.689.104h.572c3.41-.155 6.404-1.74 8.928-4.78 1.64-4.128 1.273-7.429-1.147-9.896l6.455-4.676c.496.39 1.015.78 1.536 1.17.859.182 1.587.57 2.16 1.17 0 .025 0 .026.025.026.156.182.312.362.442.57.703.44 1.431.856 2.185 1.273a13.21 13.21 0 0 0-1.351 2.727c-1.405 3.869-.262 7.326 3.433 10.416 5.361 2.105 10.566 1.947 15.615-.469.572-1.533.05-2.623-1.562-3.273-.025-.025-.077-.025-.104-.051-4.19 1.792-7.338 1.585-9.472-.65-1.431-1.013-1.535-2.518-.26-4.52.702-.778 1.64-1.169 2.863-1.143.52 0 1.094.077 1.692.207 9.342 5.95 18.37 9.509 27.088 10.704.885-1.844 1.12-3.663.728-5.48-6.87-1.585-13.74-4.313-20.584-8.235-.13-.623.027-1.092.469-1.377 7.442-5.324 11.216-11.428 11.293-18.26l-.026-.025.026-.078c-.702-5.247-2.498-10.002-5.387-14.286-1.743-1.584-3.043-2.495-3.928-2.728a60.32 60.32 0 0 1-2.447-.7c-.755-.234-1.456-.337-2.055-.286 2.602 3.402 4.502 6.65 5.725 9.74.884 2.286 1.405 4.494 1.535 6.625.208 3.507-.625 6.804-2.472 9.869-3.774 4.858-7.73 7.324-11.918 7.453-1.562.026-3.15-.257-4.737-.853-5.542-1.897-9.29-5.431-11.215-10.6-2.758-7.3-3.85-14.859-3.254-22.676 8.015-.754 11.27-4.545 9.76-11.402-.027-.026-.027-.079-.027-.106l-3.227-.779c-4.97-3.455-7.677-8.778-8.119-16.025-.026-.287-.077-.549-.103-.782-1.587-11.714-8.016-18.312-19.309-19.74-4.71-.234-8.404 2.052-11.137 6.858l-.025.05c-.052.078-.105.131-.13.21l-.339-.391c-.026-.025-.025-.079-.025-.104v-.129h-.027v-.025c-.025-.026-.026-.027-.026-.053-1.276-2.416-3.253-4.312-5.984-5.637-2.212-1.103-4.667-1.649-7.373-1.63zm57.242.705c-.38-.032-.646.007-.795.117-1.665-.103-3.487.236-5.465 1.04-1.509 1.092-2.81 2.338-3.877 3.766-2.213 3.17-2.472 6.676-.728 10.52 3.486 6.65 11.006 8.312 22.586 5.014-4.32 7.246-6.14 15.636-5.49 25.22.676 8.052 4.53 13.664 11.556 16.858.754-.856.805-1.793.154-2.807-.104-.18-.233-.336-.363-.494a9.838 9.838 0 0 0-.73-.752l.181-.05c-1.43-2.106-2.365-3.534-2.808-4.339-2.732-4.96-3.827-10.753-3.227-17.377 1.379-9.586 6.298-17.325 14.807-23.222 6.246-4.104 12.49-5.792 18.736-5.065 2.888.026 5.958.885 9.158 2.625 2.16 1.506 3.983 3.403 5.518 5.688l2.341-1.715c-1.535-2.571-3.251-4.675-5.1-6.338 3.618 1.091 7.052 1.274 10.356.52 1.432 1.87 3.357 3.404 5.83 4.625-3.59.286-7.025 1.763-10.304 4.388-2.212-.052-4.112.754-5.647 2.442l-.39.156-.053-.26c-12.256-3.404-20.843-1.844-25.813 4.701-3.618 3.507-4.867 8.286-3.8 14.39.52 4.312 3.046 7.456 7.574 9.456 1.95.494 3.901.546 5.853.156 1.327-1.246 1.327-2.495 0-3.715-1.692-1.247-3.72-1.582-6.037-1.011-2.159-.701-3.486-2.208-3.98-4.572-.99-8.416 2.29-13.95 9.81-16.598 5.542-1.248 10.72-.547 15.586 2.076l2.576-.076v-.83c3.826-3.715 9.006-5.897 15.538-6.574 2.628-1.427 4.422-3.558 5.359-6.364-16.316-11.896-34.53-12.96-54.647-3.22l-3.771-2.934c-2.862.753-5.804 2.675-8.797 5.74-2.732 1.844-5.567 2.909-8.482 3.143-2.212-.052-4.113-.572-5.649-1.559-1.326-1.014-1.949-2.441-1.87-4.285.26-1.844.908-3.299 1.948-4.416 1.744-1.636 3.646-2.181 5.702-1.611 1.743.286 3.355 1.014 4.787 2.209a15.249 15.249 0 0 0-1.616-2.496c-3.2-1.345-5.377-2.075-6.517-2.17zm-153.035.535c-1.672.039-3.341.239-5.01.6-3.825.7-6.948 2.674-9.42 5.947-1.639 2.442-2.55 5.222-2.68 8.365.6 6.467 2.94 11.065 7.026 13.79.859.703 1.742.599 2.601-.362.546-1.324.546-2.39 0-3.194-.91-.91-1.613-2.13-2.133-3.69-.729-3.037-.443-5.557.832-7.583 1.483-1.688 3.852-2.753 7.079-3.195 6.427.416 11.187 4.26 14.337 11.507 3.512.103 4.424-1.506 2.733-4.857-2.082-2.831-4.269-5.143-6.559-6.936-3.122-2.779-6.582-4.024-10.355-3.714-2.993.209-5.597 1.22-7.809 3.039-1.587 1.324-2.654 2.78-3.174 4.416-.702 3.169-.623 6.026.21 8.572l-.626.076c-1.43-2-1.975-4.597-1.638-7.793.469-2.078 1.196-3.947 2.185-5.61 1.38-2.415 3.643-4.053 6.793-4.884 1.483-.39 3.045-.545 4.633-.518 6.504.415 11.918 3.403 16.264 8.936 2.133 3.714 3.538 7.454 4.215 11.219-2.42.26-4.45 1.43-6.038 3.507-2.394-5.403-5.463-9.559-9.183-12.494-2.525-2.105-5.18-2.702-7.99-1.793-2.107.676-3.436 2.053-3.983 4.157-.286 2.987 1.042 5.09 4.008 6.365 2.004.079 3.436-.937 4.295-3.041.598-.65 1.222-.7 1.846-.207l.08-.207.103.181c1.222 1.56 2.186 3.117 2.889 4.702l1.82 2.7c1.301 1.506 1.978 3.975 2.03 7.378.29 6.991.42 13.988.39 20.986 1.691.339 3.305.288 4.84-.207-.91-12.493 2.577-20.52 10.514-24.053.547-3.09.547-6.181 0-9.271-2.16-10.417-7.756-17.638-16.733-21.69-2.814-.828-5.607-1.21-8.392-1.144zm26.582 1.066a23.72 23.72 0 0 0-6.74.987c-2.057.286-2.993 1.064-2.811 2.31.366 1.222 1.562 1.846 3.566 1.846 6.948-1.091 12.725-.807 17.278.883.963-.806 1.172-1.95.625-3.377-4.115-1.77-8.088-2.657-11.918-2.649zm22.767.055c-.591.02-1.19.088-1.795.205-3.409.726-5.75 2.389-7 4.96-.937 1.559-1.405 3.74-1.379 6.546.702.468 1.432-.026 2.135-1.48.912-4.625 3.93-6.703 9.004-6.21 3.825.391 5.856 3.17 6.143 8.288l2.47 2.908c.051.079.13.024.235-.184.104-.232.338-1.192.676-2.906.083-.437.136-.881.156-1.326-.104-4.805-1.953-8.052-5.518-9.688-1.64-.798-3.352-1.173-5.127-1.113zm214.21.703a28.99 28.99 0 0 0-11.34 1.994l3.927 3.04c7.182-1.17 14.027-.158 20.506 3.038l2.76-3.974c-5.518-2.615-10.806-3.981-15.854-4.098zm26.88 1.791c-1.567-.014-3.344.228-5.328.723a13.544 13.544 0 0 0-3.955 2.13c-2.602 2.027-3.904 4.468-3.904 7.325 0 2.57 1.04 4.78 3.148 6.676 1.275.26 1.928-.132 1.928-1.145-2.785-7.403-.392-11.532 7.232-12.441 3.044-1.013 5.204.545 6.453 4.726-.39.338-.779.338-1.17 0-1.17-2.857-3.175-3.582-6.011-2.154a24.769 24.769 0 0 1 6.793 7.428c.025 1.975.726 2.753 2.132 2.365 2.212-5.144 2.212-9.091 0-11.818-1.43-2.519-3.87-3.785-7.318-3.815zm-168.652 2.691c4.866-.205 8.67 2.927 11.379 9.358 3.254 8.753 3.254 19.09 0 30.96-3.408 7.118-7.727 13.534-13.01 19.222l3.748 3.064c5.282-5.48 9.653-11.376 13.088-17.715l.91.234c2.264 10.624.808 17.066-4.396 19.352-2.993 1.688-5.961 1.923-8.926.754-2.395-1.43-4.632-3.377-6.688-5.844-6.818-9.43-7.104-16.988-.885-22.728 2.785-2 5.256-2 7.39 0 .26.469 1.015.469 2.237 0 0-.078.001-.18.028-.26 1.64-9.376 1.092-17.117-1.588-23.223-3.773.962-7.078-.105-9.967-3.248-.364-1.194-.519-2.308-.467-3.322v-.002c.13-2.752 1.795-4.857 4.996-6.31a12.16 12.16 0 0 1 2.15-.292zM66.13 81.676c-1.926-.078-3.408.883-4.45 2.883 3.567 3.48 6.09 7.09 7.573 10.857l2.135 9.35 3.798.832c1.275-9.844-1.692-17.82-8.875-23.922zm192.394 1.428c-2.177.075-4.716 1.432-7.61 4.078-3.799 3.793-6.662 7.714-8.614 11.767.574 2 2.264 2.91 5.074 2.674 3.045-7.271 8.015-12.985 14.885-17.115-.078-.052-.13-.104-.207-.156-1.045-.877-2.221-1.294-3.528-1.248zm23.823.216c-2.066.02-4.06.34-5.983.953 4.241 4.027 6.844 10.469 7.807 19.3.806 3.401-.029 6.595-2.475 9.583-4.553.597-6.556 3.376-6.062 8.364l.65.337c1.64-1.897 3.957-3.92 6.975-6.103 3.72-4.285 4.813-9.818 3.277-16.623 1.38.232 2.734-.027 4.113-.781 2.16.26 4.345-.443 6.504-2.079-3.122-2.805-4.396-6.311-3.824-10.519-.026-.025-.052-.025-.078-.05-3.821-1.624-7.46-2.416-10.904-2.382zm22.615.926c-1.9.286-3.175 1.638-3.826 4.106 5.127 4.26 8.015 10 8.691 17.22.052.052.104.105.156.184 1.51 1.454 3.018 2.128 4.502 2.023.52-9.948-2.653-17.793-9.523-23.533zm-94.111 1.31c-12.22.247-20.753 9.782-25.618 28.614-.754 5.403 1.094 7.454 5.518 6.129.13-.025.286-.076.416-.13 2.628-23.558 13.635-33.87 33.047-30.958l-.442-1.016c-4.218-1.653-8.127-2.53-11.728-2.632-.402-.012-.8-.014-1.193-.006zm55.52.561l-5.466 2.961c4.32 4.883 7.47 10.313 9.475 16.313l3.799-1.715c-.677-6.831-3.28-12.676-7.809-17.559zM82.431 87.39c-1.526-.017-2.417.706-2.692 2.183a11.98 11.98 0 0 1-2.107 3.246c-.025 6.986.52 13.013 1.638 18.053 2.447-1.638 4.712-3.87 6.793-6.726 2.421-2.39 3.54-5.432 3.358-9.145-.078-1.404-.313-2.623-.65-3.637-.938-2.7-2.812-3.999-5.649-3.922a5.715 5.715 0 0 0-.691-.052zm238.615.832l-.627.025c-.937 3.74-2.395 6.415-4.346 8a58.073 58.073 0 0 1 .938 11.586c-.364 4.883-.026 9.142 1.04 12.78 3.358-2.989 6.976-4.598 10.802-4.833.468-.598.468-1.064 0-1.427-1.51-.885-3.124-1.404-4.815-1.534-1.536-2.207-1.952-5.637-1.25-10.234.08-5.767-.52-10.545-1.742-14.363zm-194.31 4.416c2.471 5.583 5.751 10.154 9.888 13.765-4.397 3.351-7.963 7.715-10.668 13.092-2.733-5.662-6.143-10-10.176-13.039 4.683-3.558 8.327-8.181 10.955-13.818zm-59.878 1.558c-4.97 3.247-10.408 4.415-16.289 3.48.416 5.276-.678 10.701-3.254 16.313 1.588 1.013 3.15 1.013 4.711 0 1.77-4.13 5.44-5.663 10.983-4.623 4.449 1.921 6.321 4.65 5.644 8.155.91.078 1.745 0 2.526-.286 2.576-.96 3.644-2.78 3.2-5.43-.051-2.621-1.352-4.491-3.903-5.634l-16.448-.469v-2.416h.002c4.92-.675 9.863-2.491 14.807-5.478zm170.055.754c-1.536.025-2.732.754-3.59 2.155 2.888 5.69 5.906 9.013 9.03 9.974 4.71 1.948 8.04.676 10.044-3.869v-1.246c-8.666 4.443-13.845 2.103-15.484-7.014zm-76.113.389c.442 8.052 4.319 12.39 11.63 12.988a24.495 24.495 0 0 1 0 9.92c-2.263 2.521-4.605 4.444-7.025 5.768-2.16 1.09-3.175 2.366-3.07 3.795-.082 2.14.29 4.273 1.094 6.26.13.024.31.048.545.048 1.146 0 1.822-.468 2.004-1.375a9.08 9.08 0 0 1 .832-2.414 9.954 9.954 0 0 0 .806-2.443c1.536-2.363 3.435-4.312 5.725-5.844h.027l1.094 1.559c-2.42 1.195-4.269 2.882-5.518 5.09-1.25 2.181-1.927 4.856-2.031 8 .365 4.907 1.51 8.156 3.461 9.74 4.086 3.74 7.964 3.04 11.633-2.077-4.19.857-7.287.079-9.317-2.337-2.784-3.3-2.784-6.883 0-10.754 1.275-1.22 3.044-2.287 5.256-3.194-.026-.08-.077-.132-.103-.209-3.643-7.844-3.772-17.689-.364-29.533-5.907.624-11.45-.365-16.68-2.988zm143.172.027c-4.763 2.987-9.68 4.831-14.754 5.584 0 4.391-.806 8.755-2.42 13.145.027.026.026.078.05.129.418.91 1.147 1.192 2.16.882 2.89-2.779 6.377-4.31 10.487-4.595 3.513.855 6.064 3.842 7.6 9.011 2.524-1.3 4.137-2.907 4.814-4.857.624-4.598-.649-6.91-3.824-6.986-1.744.597-3.332.491-4.79-.315-.86-1.272-.86-3.063 0-5.35.599-1.843 1.85-2.882 3.774-3.09-.728-1.975-1.77-3.169-3.097-3.558zm-283.118 4.57c-1.095 1.377-1.771 2.989-2.056 4.83v.003c-.86 6.052.285 10.491 3.486 13.298 1.145-.078 1.873-.882 2.16-2.416 1.197-6.493 0-11.74-3.59-15.714zm329.7 1.688a4.75 4.75 0 1 1 0 9.5 4.75 4.75 0 0 1 0-9.5zm-94.617.676a10.99 10.99 0 0 1-2.317 5.637c-1.483.052-2.342.857-2.603 2.44.834 2.676 2.55 3.846 5.18 3.509l.027-.026.078-.052v.156c-.625 2.415-.756 4.804-.366 7.115.182.78.547 1.013 1.067.701 1.015-1.557 2.343-2.62 3.957-3.218 3.095-.365 3.406-2.858.908-7.456-1.56-3.585-3.226-6.518-4.969-8.804v-.002zm-222.254.494c.78 0 1.43.26 1.976.805.546.546.832 1.22.832 2s-.285 1.428-.832 1.974c-.547.545-1.196.83-1.976.83a2.754 2.754 0 0 1-2.004-.83c-.547-.545-.809-1.194-.809-1.974s.263-1.454.809-2c.546-.545 1.223-.805 2.004-.805zm265.918.338c.65 1.376.806 2.754.416 4.13-2.784-.388-5.388 0-7.86 1.169-.442-2.311.73-3.818 3.488-4.52zm-286.37 1.146a10.019 10.019 0 0 0-3.517.723c-2.966 5.897-4.371 12.027-4.215 18.338 1.197 13.482 6.947 21.404 17.277 23.767 6.636.442 11.84-.83 15.588-3.818 0-2.518-1.353-3.038-4.086-1.558-2.628 1.17-5.385 1.636-8.326 1.455-3.227-.181-6.063-1.43-8.535-3.74-2.368-2.779-3.749-6.7-4.139-11.714.26-3.274 1.665-6.21 4.242-8.806-1.093-4.468-1.274-9.17-.519-14.106-1.302-.389-2.556-.57-3.77-.54zm224.594 4.31v3.194c-.026.077-.052.13-.078.207-.026.08-.077.183-.103.287-1.536 1.507-2.5 3.038-2.89 4.57l-1.04.104c-4.58-4.207-9.16-3.738-13.74 1.432-.521.44-1.04.44-1.563 0-3.513-6.99-8.742-9.483-15.717-7.483v.131c-.312 1.948-.025 3.013.86 3.168 5.073-.467 9.47 1.924 13.191 7.196-.91 2.364-.91 4.57 0 6.675-3.227 6.258-8.013 9.43-14.389 9.455-.494 1.818-.494 3.064 0 3.715 6.271.726 11.398-2.026 15.405-8.26 5.62 3.768 11.008 3.768 16.134 0h1.147c.442 1.95 1.248 3.505 2.445 4.725l.026-.025c.053.132.103.262.156.39a41.162 41.162 0 0 0 2.055 3.975c.026.026.026.076.052.103.416.7.859 1.378 1.327 2.053-2.316 2.338-4.867 2.57-7.65.7-1.016-1.117-2.056-.986-3.097.34-.547 1.453-.6 2.724-.209 3.79a5.862 5.862 0 0 1-.6 1.56c-1.247.44-2.132 1.013-2.652 1.714-.209.285-.365.57-.443.91-.417.13-.859.26-1.3.361-1.3-.753-2.448-.753-3.41 0-.079.052-.13.104-.182.156l-.051-.13c-.286.052-.704.13-1.225.261-1.536-.288-2.652-1.17-3.355-2.65-.026-.026-.028-.079-.028-.106-.182-.544-.44-.544-.779 0-1.562 2.103-3.123 2.288-4.685.522-2.134-6.104-.287-9.535 5.542-10.262.755-.493.755-.96 0-1.43-6.636.52-9.601 3.847-8.847 9.952.495 4.907 3.383 8.206 8.666 9.894 5.152 1.585 9.992.7 14.52-2.65.286-.233.547-.44.833-.676a36.339 36.339 0 0 0 1.508-1.35c.183-.156.34-.312.47-.44.079-.156.155-.311.233-.442.127-.288.276-.567.444-.832 1.067-1.714 2.704-3.325 4.89-4.807 1.744-.7 3.151-.57 4.217.418 2.03 2.987 4.735 5.142 8.092 6.492l.078.078.025-.025 3.149-3.43c-8.093-5.74-13.01-13.69-14.807-23.846h7.625c4.606 14.26 13.116 19.275 25.58 15.041.39-1.533.078-3.066-.91-4.6-14 6.054-20.766-1.843-20.271-23.714-2.573-1.268-4.473-2.773-5.67-4.488-3.617-.208-6.61-.858-8.979-1.922zm-225.558 1.454c-.261 2.234.234 4.468 1.457 6.676v1.402c-2.056 1.767-3.228 4.26-3.567 7.455-.182-.389-.311-.858-.441-1.455a12.83 12.83 0 0 1-.313-2.676c0-1.04.026-1.661.078-1.843.078-.338.339-.91.782-1.713-.13-.65-.21-1.197-.21-1.69 0-1.04.314-2.337.964-3.869.443-1.092.859-1.845 1.25-2.287zm46.824 1.637c-.278.005-.56.021-.846.05-1.847.078-2.889.727-3.176 1.973.547.962 1.433 1.378 2.631 1.248 1.196 1.246 2.601 1.922 4.24 2 1.431 1.04 2.839 1.713 4.27 2.026.338-2.494-.289-4.364-1.85-5.61-1.571-1.16-3.322-1.72-5.27-1.687zm184.678 3.65a4.75 4.75 0 1 1 0 9.5 4.75 4.75 0 0 1 0-9.5zm46.828 1.285c-4.423.18-8.222 1.792-11.397 4.83-3.357 3.247-5.049 7.169-5.049 11.768 0 4.26 1.458 7.922 4.346 11.012 3.071 2.545 6.141 3.428 9.238 2.648 2.161-.805 3.618-2.595 4.346-5.375l.025-1.402c-.806 1.065-1.925 1.663-3.355 1.793-8.38.494-11.84-3.611-10.383-12.338.312-2.233 2.056-4.523 5.23-6.885 5.31-2.936 10.462-1.612 15.458 4 1.64-.468 3.096-1.74 4.37-3.793a4.367 4.367 0 0 1-.34-.363c-3.511-3.454-7.675-5.429-12.49-5.895zm-237.75.121c-2.73-.057-5.552.621-8.47 2.034.104 1.454.727 2.727 1.874 3.843 5.62-3.09 11.084-2.388 16.394 2.106 1.171.182 2.186-.339 3.096-1.559-4.05-4.19-8.344-6.328-12.894-6.424zm-16.797.684c-.73.961-1.017 1.947-.887 2.934 4.867 1.22 7.287 5.48 7.313 12.804-.26 2.39.886 3.247 3.41 2.547 1.43-9.274-1.848-15.351-9.836-18.285zm-11.164 1.584a7.626 7.626 0 0 0-2.498 1.297c-1.353.962-2.135 2.286-2.317 3.924-1.015 4.778.91 8.31 5.828 10.595 4.137.73 7-.52 8.614-3.74-2.627 1.117-5.256 1.481-7.885 1.041-1.742-1.117-2.862-2.469-3.356-4-.416-1.872-.158-3.507.805-4.885 1.77-2.13 2.058-3.531.887-4.181-.026-.025-.053-.025-.078-.051zm60.37.336c-4.163 2.65-7.597 6-10.278 10.053-1.664.83-2.133 2.287-1.43 4.338.338 2.469.441 4.963.363 7.455-.807 1.559-1.17 3.065-1.066 4.545.02.076.03.155.025.234 3.695.779 3.695 3.143 0 7.117 2.367.182 4.397 1.167 6.115 2.96.963-2.805 2.707-5.272 5.23-7.374-.675-2.65-1.689-4.677-3.017-6.053-.573-.78-.936-1.507-1.066-2.156-.755-3.507-.418-7.193 1.013-11.117 2.316-2.857 5.102-5.56 8.329-8.106-.885-1.142-2.291-1.764-4.217-1.896zm141.26.207a6.25 6.25 0 1 1 0 12.5 6.25 6.25 0 0 1 0-12.5zm-124.917.988c-.65.857-.781 2.078-.391 3.664 5.881 2.726 6.376 7.168 1.51 13.35-.495 1.013-.495 1.895 0 2.598 3.356-.727 5.179-1.974 5.465-3.713 1.9-4.104 2.158-7.69.753-10.754-.469-1.351-1.77-2.573-3.93-3.639-2.158-1.09-3.302-1.583-3.407-1.506zm162.537.133c-2.03.233-3.8 1.062-5.309 2.492-1.823 1.713-2.734 3.792-2.734 6.207s.91 4.495 2.732 6.21c1.848 1.713 4.06 2.57 6.637 2.57 2.575 0 4.787-.857 6.61-2.57.232-.209.44-.416.65-.65v-5.09l-1.744-.208c-.416 2.26-1.535 3.999-3.383 5.219-4.605 1.377-6.948-.546-6.975-5.74.338-2.05 1.614-3.533 3.826-4.415.26-2.156.158-3.479-.31-4.025zm62.228.178a4.75 4.75 0 1 1 0 9.5 4.75 4.75 0 0 1 0-9.5zM18.07 122.457c-2.628 3.17-2.992 7.298-1.119 12.363 2.342 4.078 5.412 6.34 9.186 6.729 3.903.077 5.828-.546 5.802-1.871.052-1.688-.623-2.572-2.054-2.65-2.655.286-5.077-.105-7.262-1.169-2.499-1.455-3.982-3.74-4.424-6.857-.442-2.39-.493-4.57-.129-6.545zm181.164 1.014c-.494 2.286.158 4.13 1.979 5.556l.678 1.743c.052 2.312.624 3.714 1.69 4.26 5.464-.078 8.977-3.3 10.513-9.69-5.178 2.053-10.149 1.429-14.86-1.87zm-109.734.517c-3.097 1.82-5.1 4.443-6.01 7.871-1.276 6.001.414 11.195 5.047 15.584l.34.989-.34.388c-2.915.52-5.126 3.092-6.61 7.69-1.586 6.312 1.824 10.934 10.202 13.818-.285.961-.806 2.026-1.535 3.143 1.666.675 3.486.675 5.49 0 .183-3.091 4.165-5.688 11.97-7.793 1.797-.336 5.387-2.025 10.774-5.09 6.324-3.767 12.023-7.843 17.045-12.207l-3.281-3.354c-7.52 6.676-16.55 12.211-27.088 16.547l-9.395 3.22c-5.335 0-8.091-2.413-8.273-7.245.858-4.027 6.4-6.39 16.652-7.065.702-1.3.443-2.598-.806-3.921-3.018.7-5.62.726-7.78.076-.026-.026-.078-.026-.105-.026v-.103c-5.282-1.637-8.093-5.715-8.432-12.235.39-2.442 1.72-5.195 4.035-8.234-.13-1.273-.703-1.974-1.718-2.053zm-50.406.858c-.364.31-.625.7-.807 1.142-2.498 6.051-1.457 10.961 3.123 14.703 2.108 1.246 4.216 1.583 6.324 1.01-6.22-3.79-8.77-8.025-7.625-12.674.443-1.688.443-2.857 0-3.506-.339-.337-.675-.571-1.013-.675zm244.193.756c-.935 1.35-1.614 2.493-2.004 3.453-1.016 2.417-1.222 4.363-.597 5.896.676 4.545 4.709 5.87 12.072 4 2.109 4.026.052 7.506-6.14 10.494-2.916 1.143-6.583-.467-10.981-4.857-1.9 2.365-4.034 3.792-6.428 4.234l-3.254 6.157c21.677 2.832 32.946-2.626 33.805-16.366-8.821.025-14.106-3.246-15.9-9.869-.288-.962-.469-2.026-.573-3.142zm-104.506 4.127c-2.992 1.638-4.734 3.818-5.203 6.519a4.572 4.572 0 0 0-.103 1.041c0 1.272.441 2.363 1.351 3.272.91.91 2.004 1.351 3.28 1.351 1.274 0 2.367-.442 3.279-1.351.286-.286.546-.623.754-.96 1.014-.286 1.9.648 2.629 2.753 1.197 3.869-.833 6.674-6.116 8.388-2.108.961-4.19.961-6.271 0-1.405-2.025-2.915-3.506-4.53-4.467-.154-.077-.545-.208-1.144-.338v.909c1.093 2.753 2.758 4.808 5.023 6.13 3.72 1.535 7.625 1.586 11.711.157 4.71-2.13 7.44-5.87 8.196-11.196-5.803-3.22-10.098-7.298-12.856-12.208zm67.399 1.74l-1.744.963c2.838 7.429 6.687 12.647 11.527 15.687l1.484-1.142c-5.23-3.974-8.977-9.143-11.267-15.508zm-177.618 1.537c-.732-.044-1.465.265-2.197.932.338 3.429-.181 7.506-1.56 12.26l-1.405-1.456c-5.283 10.961-14.52 13.584-27.714 7.844-.6-1.895-1.613-3.039-3.096-3.428-1.952.286-2.603 1.142-1.953 2.598 1.744 2.26 1.483 4.339-.78 6.287-1.82.623-3.567.57-5.205-.184-1.822-.182-2.497-1.505-2.054-3.947.494-1.377 1.482-2.573 2.94-3.558-1.588-1.196-3.307-1.43-5.206-.676-1.952 3.844-4.188 7.403-6.738 10.65-.936.701-1.77.701-2.526 0-4.137-3.35-7.26-2.624-9.392 2.233-1.691 4.625-.182 7.793 4.476 9.48 5.646-.597 10.485-4.441 14.545-11.584h.756c-.52 6.027 1.195 9.95 5.125 11.795 5.022-2.261 6.716-6.21 5.024-11.795h1.535c3.669 8.338 9.497 12.365 17.433 12.105l9.42-.181c8.978.52 14.808-1.716 17.463-6.729 1.014-4 .027-7.324-2.992-9.972-1.535-.754-3.227-.754-5.074 0-.677.752-.677 1.48 0 2.232 2.576.415 3.59 1.896 3.095 4.469-2.003 4.572-5.88 6.83-11.632 6.752-5.646.39-8.326-1.222-8.04-4.858.65-3.663 3.095-5.662 7.39-5.949 6.27-2.337 10.356-5.61 12.255-9.818.494-1.22.236-1.82-.78-1.793l-2.913.726c1.848-6 2.237-10.647 1.119-13.972-.44-.282-.88-.437-1.318-.463zm250.323 1.58c.286 11.74 6.74 17.974 19.334 18.676 1.327-.987 1.611-2.13.857-3.453-10.54-.702-16.367-5.665-17.512-14.86zm13.69.129c-2.34-.027-4.622.643-6.846 2.002h-.002c-.39.806-.157 1.429.703 1.922 7.469-1.895 12.18 1.193 14.105 9.324.337 7.819-2.837 11.196-9.525 10.182v1.843c.469.442 1.171.73 2.134.86 1.12.155 1.978.206 2.524.129.235-.026.444-.078.678-.13 2.134-.492 4.006-1.688 5.646-3.558a13.33 13.33 0 0 0 3.201-6.935c.104-.73.155-1.481.155-2.26 0-.78-.05-1.534-.155-2.26-.287-1.897-.912-3.638-1.9-5.223-1.562-2.128-3.278-3.663-5.152-4.572-1.89-.864-3.747-1.304-5.567-1.324zm-25.505.21c-1.796 1.793-3.618 2.7-5.414 2.7l.703 3.066-.728-.597c-.364 4.908-2.576 8.934-6.61 12.103-6.426 7.117-16.705 8.624-30.888 4.494l-3.824 4.493.675.703c-.104 7.74-3.355 10.44-9.73 8.076l-.938-1.43-3.564 2.729c6.323 6.312 14.103 5.793 23.393-1.584l3.695-.235c5.75 5.844 15.82 7.767 30.264 5.768 7.052.077 10.929-1.767 11.605-5.533.703-2.26 2.733-2.26 6.037 0l5.7 4.779c3.616-5.117 8.977-5.324 16.081-.621.312-1.897 2.29-3.664 5.909-5.248 6.4-.675 9.964-3.846 10.718-9.508-2.003.362-4.006 1.275-6.062 2.729-6.687 2.494-13.688 3.43-20.975 2.83-11.528-1.584-16.575-9.013-15.092-22.235v-1.09h-.002c-4.553 5.793-5.1 11.558-1.638 17.3-1.275 1.012-2.577 1.116-3.852.284-3.07-1.063-5.228-.881-6.478.495 1.614 1.792 2.367 4.026 2.289 6.703-.337 1.895-1.403 3.089-3.172 3.53-4.45 1.43-8.823 1.663-13.117.651-4.528-1.377-6.377-3.455-5.569-6.181-.183-1.43.366-2.651 1.692-3.664 9.447-.624 16.419-3.715 20.869-9.274v-2.388h-4.893c3.02-5.04 3.983-9.663 2.916-13.844zm4.32 1.53c-.338.026-.624.079-.884.106.13 3.092-.157 5.43-.834 7.013-.703 1.558-1.093 2.415-1.197 2.545.65.287 1.197.623 1.587 1.014.364.362.755.883 1.145 1.586h.625c.208-1.976.701-3.77 1.482-5.38.755-1.611 1.772-2.908 2.995-3.921v-1.453c-.443-.34-1.016-.65-1.72-.91-1.066-.39-2.133-.6-3.198-.6zm-204.597 4.713c-.935-.057-1.872.19-2.799.742 3.513 5.403 7.156 9.819 10.98 13.274l3.983-1.844a74.141 74.141 0 0 1-10.488-11.742 4.718 4.718 0 0 0-1.676-.43zm153.334 6.38a45.856 45.856 0 0 1-3.982 5.973c-.182.234-.337.444-.52.678-.312.39-.624.752-.937 1.115-5.542 6.364-12.672 10.832-21.442 13.43 1.327 4.285 4.085 5.3 8.275 3.014 10.33-5.43 18.734-13.17 25.266-23.276-3.228.314-5.437 0-6.66-.933zm114.627.778c-2.056 1.376-3.774 2.833-5.154 4.39v.003a21.752 21.752 0 0 0-1.56 1.972c-2.447-3.247-5.178-5.299-8.196-6.209l-2.992 2.6 11.24 9.766 11.058-9.483zm-329.115 9.48a4.75 4.75 0 1 1 0 9.5 4.75 4.75 0 0 1 0-9.5zm159.347.159c-2.498 0-4.632.882-6.427 2.623-.25.27-.494.548-.729.832.754 1.532 1.953 2.313 3.645 2.338l1.013.648.028.051c1.067-.752 2.106-1.064 3.095-.88 4.138.597 5.908 2.803 5.334 6.62l.157.65h2.107c.104-.206.207-.414.285-.65a9.12 9.12 0 0 0 .549-3.191c0-2.521-.885-4.651-2.654-6.418-1.743-1.74-3.878-2.623-6.403-2.623zm31.668.363c-2.68 0-4.969.91-6.869 2.754-1.9 1.818-2.836 4.024-2.836 6.623 0 2.286.756 4.286 2.239 5.975 1.353 1.09 2.55 1.377 3.59.883l.937-1.118c-.963.234-1.77-.441-2.42-1.974-1.041-4.571.313-7.194 4.086-7.87.182-.025.337-.052.52-.078 2.237.754 4.474.468 6.712-.882l1.121-1.35-.209-.209c-1.9-1.844-4.19-2.754-6.87-2.754zm-170.47.438a2.247 2.247 0 0 0-.457.011c-1.017.13-2.03.95-3.055 2.46-.834.7-1.668.96-2.526.728-1.536-.572-3.045-.131-4.58 1.297-.963 1.689-.365 2.883 1.795 3.61 3.435.494 6.82-.154 10.176-1.946.08-.026.156-.08.234-.131 1.743-1.326 1.692-3.145-.208-5.508-.462-.314-.921-.487-1.38-.521zm296.677.314c-3.132 4.112-4.706 9.358-2.836 15.274h16.237c1.586-5.681.492-11.033-2.992-15.196l-3.696 3.533.182.858c.218.16.418.343.598.545.626.753.939 1.637.939 2.676 0 1.04-.313 1.923-.94 2.623a3.066 3.066 0 0 1-.753.675 2.96 2.96 0 0 1-1.586.442c-.86 0-1.641-.364-2.291-1.117-.65-.701-.989-1.584-.989-2.623a3.958 3.958 0 0 1 .989-2.676c.235-.235.469-.442.756-.625l-.235-.649zm-62.88 2.033c-3.144-.029-6.234.774-9.278 2.41l-2.264 1.09c-.13 1.846.832 2.938 2.836 3.248 4.658.753 9.134.519 13.428-.648.13-.052.262-.207.34-.494.493-1.766.05-2.986-1.328-3.662l-.235-1.118-.337-.52a18.403 18.403 0 0 0-3.163-.306zm-83.83 9.348l-4.555 4.543c4.736.65 9.472.78 14.234.441.21-.13.417-.286.6-.416.676-1.013.676-2 0-3.013-.677-.856-1.354-1.375-2.03-1.555-2.76.7-5.518.7-8.25 0z M400.728 50.227c.283-.026.57.058.856.253l1.951 2.649c.443.988.443 1.819 0 2.469-.494.363-.988.44-1.482.26-.157-.08-.314-.156-.444-.26l-.312-.157c-.86-.546-1.483-1.35-1.822-2.416-.338-1.118-.208-1.921.418-2.388.272-.247.553-.384.835-.41zm-10.048.341c2.34-.05 4.502 1.072 6.506 3.368a31.978 31.978 0 0 1 5.23 11.195c.547.052.964-.053 1.223-.338-1.093-3.819-.183-6.623 2.76-8.363 3.303-1.17 6.399-.47 9.236 2.101 2.654 3.092 2.732 6.21.234 9.326-2.265 1.845-4.163 1.481-5.646-1.039-.468-1.714-.051-2.96 1.25-3.74.337-.494.493-.987.441-1.48-.182-1.014-.884-1.482-2.08-1.352-1.9.078-3.462 1.35-4.66 3.844-.051.234-.103.443-.13.676-.285 1.767-.311 3.713-.077 5.843.079 7.35.859 15.248 2.367 23.69l-1.82.181a182.804 182.804 0 0 1-2.785-16.027c-.572-6-1.641-10.986-3.176-15.012a.547.547 0 0 0-.104-.13c-2.055-2.78-3.539-5.17-4.502-7.118-.833-.936-1.51-1.271-2.004-1.011-.702-.026-1.248.206-1.638.648.13 1.48-.26 2.753-1.12 3.793-3.615 1.22-5.464.105-5.568-3.402.183-3.403 1.849-5.25 5.049-5.56.342-.056.68-.085 1.014-.093zm2.656 8.067c5.542 8.807 8.222 18.08 8.092 27.82-.677.442-1.277.494-1.797.182-3.903-5.376-9.914-8.339-18.006-8.936-5.855-2.78-7.262-5.609-4.191-8.467l.859-.26c1.118 5.04 3.746 6.935 7.857 5.688.39.208.756.416 1.121.598 2.861 2.597 5.126 3.352 6.791 2.287 2.42.13 3.566-1.117 3.487-3.74-2.498-1.247-4.45-3.04-5.828-5.405 0-1.792-.963-3.843-2.914-6.103 2.004-.442 3.513-1.662 4.527-3.662zM381 61.217c2.01.079 4.03.8 6.062 2.146 1.328 1.195 2.29 2.806 2.836 4.807.025.05.052.102.079.18 1.483 2.988 3.486 4.91 6.01 5.793-.235 2.027-1.536 2.571-3.956 1.636-.39-.416-.545-.727-.494-.935-.546.13-1.04.156-1.43.078-.704-.156-1.17-.727-1.406-1.74-.234-1.142-.156-2.184.26-3.145l.234.131-.18-.232-.078.103-.937-.492-.34.232c-.286 1.974-1.534 2.884-3.719 2.729-2.317-.546-3.202-2-2.656-4.39.546-.936.6-1.792.156-2.598-2.836-.597-5.151.52-6.921 3.351-2.185 5.09-.208 8.728 5.96 10.885.415 0 .832-.002 1.248.023 6.428.39 12.308 3.092 17.59 8.106 1.9 1.82 3.332 4.129 4.348 6.908.13.39.259.78.389 1.195l4.529-.57c3.929-18.39 11.942-27.769 23.99-28.133 2.056.078 3.722.6 4.946 1.56 1.12.936 1.872 2.053 2.21 3.378.416 2.467-.31 4-2.183 4.648-.651.13-1.354.103-2.16-.053-.807-.727-1.225-1.688-1.2-2.882.963.156 1.772.026 2.448-.364a2.146 2.146 0 0 0 0-1.508c-.39-.908-1.301-1.4-2.707-1.505-1.327-.13-2.784.025-4.344.466-7.625 2.104-12.882 7.818-15.744 17.17-1.483 4.804-2.317 10.598-2.551 17.326.624 3.43-.287 5.168-2.76 5.22-1.535.544-2.758 1.35-3.668 2.415-.39 1.87-.909 3.767-1.613 5.664.547.493 1.094.676 1.64.493 6.116-2.598 10.565-.676 13.376 5.792l1.298.573 1.954-6.207c2.889 1.999 6.115 3.218 9.654 3.634v.366c1.223 2.337 2.575 3.972 4.006 4.933 2.76 1.533 5.517 1.533 8.275 0 1.328-.96 2.525-2.621 3.592-4.933 1.119-.651 2.446-.651 4.033 0 .26 2.258.103 4.232-.469 5.92-5.7 7.975-13.114 8.287-22.3.963-.494-.494-1.014-.47-1.508.048l.025-.103c-.026.027-.052.027-.078.053-.026.026-.077.05-.103.078-4.45 2.622-8.615 3.766-12.442 3.402v.053c-2.783-.077-5.49-.885-8.092-2.391-2.654-1.377-4.292-3.508-4.89-6.34 0-.025-.001-.026-.028-.05l-.466-.57c-3.227 6.336-8.068 12.883-14.547 19.61l-3.461-3.56 9.498-11.688c4.71-6.728 7.183-14.545 7.443-23.482.078-2.364-.026-4.804-.26-7.324a13.822 13.822 0 0 0-.574-1.844c-1.69-4.831-4.969-8.494-9.887-10.961-2.42-1.507-4.814-1.793-7.209-.883-.155.05-.312.13-.468.207a9.562 9.562 0 0 0-3.305 2c-2.238 2.546-2.472 5.118-.728 7.69.234.31.467.623.728.933 1.379 1.22 3.227 1.74 5.543 1.533 2.055-.598 3.095-2.363 3.121-5.324 3.826 1.844 4.763 4.857 2.838 9.037 4.397 4.885 4.136 9.302-.756 13.25 2.212 2.935 1.743 5.245-1.43 6.934-.027.025-.053.027-.078.053-1.51-2.208-3.2-3.301-5.048-3.301-5.83.625-7.911 5.144-6.272 13.56.39 2.39 1.277 4.881 2.604 7.479.729 1.429 1.664 2.728 2.783 3.951.39.414.807.829 1.25 1.219.91.805 1.9 1.584 3.017 2.287a32.878 32.878 0 0 0 3.93 2.104v5.22c-9.186-3.195-15.04-8.339-17.592-15.377-4.19-12.755-2.08-22.547 6.324-29.404l.235-1.35c-2.89-2.312-5.31-4.908-7.262-7.74-.495-.728-.99-1.455-1.432-2.207a43.831 43.831 0 0 1-1.585-3.119l.103-6.361h.938c.6-.754 1.3-1.482 2.054-2.157.26-.234.522-.442.781-.675v-1.637c-.13-.26-.26-.494-.39-.701a3.852 3.852 0 0 0-.78-.91c-.78-.285-1.25-.83-1.406-1.635a32.416 32.416 0 0 1 .104-7.274c.026-2.935.832-5.195 2.445-6.832.62-.755 1.31-1.45 2.059-2.076 1.17-.987 2.419-1.715 3.797-2.156a9.743 9.743 0 0 1 3.15-.406zm106.379 2.537c5.777 2.442 6.53 6.05 2.236 10.805h-.988v1.896l4.736 1.3c-.65 1.169-1.691 1.947-3.148 2.337-17.722-2.728-27.585 5.402-29.64 24.39.546.182 1.64.831 3.253 1.922.702.44 1.484.986 2.37 1.637l.779.545a66.648 66.648 0 0 1 11.423-17.61c1.822.026 3.15 1.48 3.983 4.387-9.16 8.183-13.844 18.391-14.053 30.625-1.95.987-3.902.987-5.853 0l.103-4.726c1.275-2.417 1.326-4.857.207-7.3l-1.039-.622c-2.473-.261-4.685-1.586-6.662-3.95-.027-.025-.028-.025-.053-.025-.078-11.093 2.344-19.509 7.262-25.3.8-.93 1.67-1.797 2.601-2.596 4.138-3.533 9.55-5.717 16.29-6.522 5.49-1.43 7.52-5.142 6.037-11.142zm121.887 2.752c2.213 2.052 3.954 4.08 5.177 6.105-1.978.52-3.59 1.766-4.812 3.74-1.457-1.635-3.174-3.118-5.127-4.443 1.51-2.155 3.097-3.947 4.762-5.402zm13.382 6.137c1.624.01 3.34.223 5.145.642 5.985 1.87 10.2 5.04 12.62 9.533v.131h.702c.598-2.44 1.822-4.546 3.67-6.338 3.59-2.857 6.947-3.038 10.043-.57 1.821 1.689 2.655 3.403 2.473 5.117-.338 1.013-.494 1.896-.52 2.701.155 1.04-.365 1.403-1.562 1.092-3.253-.857-6.114.206-8.586 3.246-.65.78-1.12 1.843-1.432 3.168-.339 1.43-.469 3.17-.416 5.223 1.457 7.402 5.646 12.986 12.568 16.701 2.992 4.546 6.635 7.247 10.877 8.053 4.814 7.35 10.15 7.87 15.979 1.53 1.092-.31 2.004-.206 2.732.288.78 1.272.78 2.362 0 3.297l-2.707 2.701c-.937.91-1.873 1.587-2.81 2.028-4.92 1.325-9.55.778-13.897-1.612l-12.515-10.701c-3.8-2.52-7.442-2.053-10.93 1.402l-4.111 10c-2.993 5.61-5.257 6.729-6.766 3.327l6.166-14.86c1.328-11.637.861-20.753-1.455-27.377-1.38-3.974-3.41-7.064-6.09-9.22-1.17-.78-2.315-1.403-3.486-1.87a11.243 11.243 0 0 0-4.686-.754c-4.71-.104-7.495 2.155-8.3 6.752-.054.286-.104.571-.13.883.234 1.713 1.275 3.171 3.096 4.365 2.758 1.532 5.673 1.35 8.77-.544 3.799 10.052 3.642 18.881-.469 26.544a.202.202 0 0 1-.05.106c-2.214-1.818-4.608-1.818-7.159 0-6.948 8.935-5.047 17.115 5.674 24.57-.39 1.637-1.276 2.78-2.654 3.455-6.35-3.844-10.045-9.012-11.112-15.48l-1.17-.207c-1.718 5.895-4.685 10.882-8.927 14.933-4.475 5.455-9.133 9.922-14 13.377-.884-2.103-1.066-3.947-.545-5.478l-2.032-.416c.703-.65.809-1.613.315-2.885-1.354-2.65-3.541-3.194-6.533-1.61a8.79 8.79 0 0 0-1.014 1.22c-1.12 1.636-1.092 3.3.053 4.962.26.39.572.753.963 1.143 1.847.91 3.718.91 5.593 0v8.52c.078 4.545 2.706 5.896 7.885 4.078 6.87-1.482 12.934-4.366 18.217-8.702l4.346 3.143c-2.68 2.598-5.518 4.807-8.563 6.65a41.05 41.05 0 0 1-3.305 1.793 45.525 45.525 0 0 1-8.066 2.987c-1.9.857-3.721 1.402-5.44 1.636-.571.078-1.144.104-1.689.104h-.572c-3.41-.155-6.404-1.74-8.928-4.78-1.64-4.128-1.273-7.429 1.147-9.896l-6.455-4.676c-.495.39-1.015.78-1.536 1.17-.859.182-1.587.57-2.16 1.17 0 .025 0 .026-.025.026-.156.182-.312.362-.442.57-.703.44-1.431.856-2.185 1.273a13.21 13.21 0 0 1 1.351 2.727c1.405 3.869.262 7.326-3.433 10.416-5.361 2.105-10.566 1.947-15.615-.469-.572-1.533-.05-2.623 1.562-3.273.025-.025.077-.025.104-.051 4.19 1.792 7.338 1.585 9.472-.65 1.431-1.013 1.535-2.518.26-4.52-.702-.778-1.64-1.169-2.863-1.143-.52 0-1.094.077-1.692.207-9.342 5.95-18.37 9.509-27.088 10.704-.885-1.844-1.12-3.663-.728-5.48 6.87-1.585 13.74-4.313 20.584-8.235.13-.623-.027-1.092-.469-1.377-7.442-5.324-11.216-11.428-11.293-18.26l.026-.025-.026-.078c.702-5.247 2.498-10.002 5.387-14.286 1.743-1.584 3.043-2.495 3.928-2.728a60.32 60.32 0 0 0 2.447-.7c.755-.234 1.456-.337 2.055-.286-2.602 3.402-4.502 6.65-5.725 9.74-.884 2.286-1.405 4.494-1.535 6.625-.208 3.507.626 6.804 2.473 9.869 3.774 4.858 7.728 7.324 11.917 7.453 1.562.026 3.15-.257 4.737-.853 5.542-1.897 9.29-5.431 11.215-10.6 2.758-7.3 3.85-14.859 3.254-22.676-8.015-.754-11.27-4.545-9.76-11.402.027-.026.027-.079.027-.106l3.227-.779c4.97-3.455 7.677-8.778 8.119-16.025.026-.287.077-.549.103-.782 1.587-11.714 8.016-18.312 19.309-19.74 4.71-.234 8.404 2.052 11.137 6.858l.025.05c.052.078.105.131.13.21l.339-.391c.026-.025.025-.079.025-.104v-.129h.027v-.025c.025-.026.026-.027.026-.053 1.276-2.416 3.253-4.312 5.984-5.637 2.212-1.103 4.667-1.649 7.373-1.63zm-57.242.705c.38-.032.646.007.795.117 1.665-.103 3.487.236 5.465 1.04 1.509 1.092 2.81 2.338 3.877 3.766 2.213 3.17 2.472 6.676.728 10.52-3.486 6.65-11.005 8.312-22.585 5.014 4.319 7.246 6.14 15.636 5.49 25.22-.677 8.052-4.53 13.664-11.557 16.858-.754-.856-.805-1.793-.154-2.807.104-.18.233-.336.363-.494.208-.232.444-.492.73-.752l-.181-.05c1.43-2.106 2.366-3.534 2.809-4.339 2.732-4.96 3.826-10.753 3.226-17.377-1.379-9.586-6.298-17.325-14.807-23.222-6.246-4.104-12.49-5.792-18.736-5.065-2.888.026-5.958.885-9.158 2.625-2.16 1.506-3.983 3.403-5.518 5.688l-2.341-1.715c1.535-2.571 3.251-4.675 5.1-6.338-3.618 1.091-7.052 1.274-10.356.52-1.432 1.87-3.357 3.404-5.83 4.625 3.59.286 7.025 1.763 10.304 4.388 2.212-.052 4.112.754 5.647 2.442l.39.156.053-.26c12.256-3.404 20.843-1.844 25.813 4.701 3.618 3.507 4.867 8.286 3.8 14.39-.52 4.312-3.046 7.456-7.574 9.456a13.099 13.099 0 0 1-5.853.156c-1.327-1.246-1.327-2.495 0-3.715 1.692-1.247 3.72-1.582 6.037-1.011 2.159-.701 3.486-2.208 3.98-4.572.99-8.416-2.29-13.95-9.81-16.598-5.542-1.248-10.72-.547-15.586 2.076l-2.576-.076v-.83c-3.826-3.715-9.006-5.897-15.538-6.574-2.628-1.427-4.422-3.558-5.359-6.364 16.316-11.896 34.53-12.96 54.647-3.22l3.771-2.934c2.862.753 5.804 2.675 8.797 5.74 2.732 1.844 5.567 2.909 8.482 3.143 2.212-.052 4.113-.572 5.649-1.559 1.326-1.014 1.949-2.441 1.87-4.285-.26-1.844-.908-3.299-1.948-4.416-1.744-1.636-3.646-2.181-5.702-1.611-1.743.286-3.355 1.014-4.787 2.209a15.249 15.249 0 0 1 1.616-2.496c3.2-1.345 5.377-2.075 6.517-2.17zm153.035.535c1.672.039 3.341.239 5.01.6 3.825.7 6.948 2.674 9.42 5.947 1.64 2.442 2.55 5.222 2.68 8.365-.6 6.467-2.94 11.065-7.026 13.79-.859.703-1.742.599-2.601-.362-.546-1.324-.546-2.39 0-3.194.91-.91 1.613-2.13 2.133-3.69.729-3.037.443-5.557-.832-7.583-1.483-1.688-3.852-2.753-7.079-3.195-6.427.416-11.187 4.26-14.337 11.507-3.512.103-4.424-1.506-2.733-4.857 2.082-2.831 4.269-5.143 6.559-6.936 3.122-2.779 6.582-4.024 10.355-3.714 2.993.209 5.597 1.22 7.809 3.039 1.587 1.324 2.654 2.78 3.174 4.416.702 3.169.623 6.026-.21 8.572l.626.076c1.43-2 1.975-4.597 1.638-7.793-.469-2.078-1.196-3.947-2.185-5.61-1.38-2.415-3.643-4.053-6.793-4.884-1.483-.39-3.045-.545-4.633-.518-6.504.415-11.918 3.403-16.264 8.936-2.133 3.714-3.538 7.454-4.215 11.219 2.42.26 4.45 1.43 6.038 3.507 2.394-5.403 5.463-9.559 9.183-12.494 2.525-2.105 5.18-2.702 7.99-1.793 2.107.676 3.436 2.053 3.983 4.157.286 2.987-1.042 5.09-4.008 6.365-2.004.079-3.436-.937-4.295-3.041-.598-.65-1.222-.7-1.846-.207l-.08-.207-.103.181c-1.222 1.56-2.186 3.117-2.889 4.702l-1.82 2.7c-1.301 1.506-1.978 3.975-2.03 7.378-.29 6.991-.42 13.988-.39 20.986-1.691.339-3.305.288-4.84-.207.91-12.493-2.577-20.52-10.514-24.053a26.397 26.397 0 0 1 0-9.271c2.16-10.417 7.756-17.638 16.733-21.69 2.814-.828 5.607-1.21 8.392-1.144zm-26.582 1.066a23.72 23.72 0 0 1 6.74.987c2.057.286 2.993 1.064 2.811 2.31-.366 1.222-1.562 1.846-3.566 1.846-6.948-1.091-12.725-.807-17.278.883-.963-.806-1.172-1.95-.625-3.377 4.115-1.77 8.088-2.657 11.918-2.649zm-22.767.055c.591.02 1.19.088 1.795.205 3.409.726 5.75 2.389 7 4.96.937 1.559 1.405 3.74 1.379 6.546-.702.468-1.432-.026-2.135-1.48-.912-4.625-3.93-6.703-9.004-6.21-3.825.391-5.856 3.17-6.143 8.288l-2.47 2.908c-.051.079-.13.024-.235-.184-.104-.232-.338-1.192-.676-2.906a9.244 9.244 0 0 1-.156-1.326c.104-4.805 1.953-8.052 5.518-9.688 1.64-.798 3.352-1.173 5.127-1.113zm-214.21.703a28.99 28.99 0 0 1 11.34 1.994l-3.927 3.04c-7.182-1.17-14.027-.158-20.506 3.038l-2.76-3.974c5.518-2.615 10.806-3.981 15.854-4.098zm-26.88 1.791c1.567-.014 3.344.228 5.328.723a13.544 13.544 0 0 1 3.955 2.13c2.602 2.027 3.904 4.468 3.904 7.325 0 2.57-1.039 4.78-3.148 6.676-1.275.26-1.928-.132-1.928-1.145 2.785-7.403.392-11.532-7.232-12.441-3.044-1.013-5.204.545-6.453 4.726.39.338.779.338 1.17 0 1.17-2.857 3.175-3.582 6.011-2.154a24.769 24.769 0 0 0-6.793 7.428c-.025 1.975-.726 2.753-2.132 2.365-2.212-5.144-2.212-9.091 0-11.818 1.43-2.519 3.87-3.785 7.318-3.815zm168.652 2.691c-4.866-.205-8.67 2.927-11.379 9.358-3.254 8.753-3.254 19.09 0 30.96 3.408 7.118 7.727 13.534 13.01 19.222l-3.748 3.064c-5.282-5.48-9.653-11.376-13.088-17.715l-.91.234c-2.264 10.624-.807 17.066 4.397 19.352 2.993 1.688 5.96 1.923 8.925.754 2.395-1.43 4.632-3.377 6.688-5.844 6.818-9.43 7.104-16.988.885-22.728-2.785-2-5.256-2-7.39 0-.26.469-1.015.469-2.237 0a.878.878 0 0 0-.028-.26c-1.64-9.376-1.092-17.117 1.588-23.223 3.773.962 7.078-.105 9.967-3.248.364-1.194.519-2.308.467-3.322v-.002c-.13-2.752-1.795-4.857-4.996-6.31a12.16 12.16 0 0 0-2.15-.292zm73.504 1.487c1.926-.078 3.408.883 4.45 2.883-3.567 3.48-6.09 7.09-7.573 10.857l-2.135 9.35-3.798.832c-1.275-9.844 1.692-17.82 8.875-23.922zm-192.394 1.428c2.177.075 4.716 1.432 7.611 4.078 3.798 3.793 6.661 7.714 8.613 11.767-.574 2-2.264 2.91-5.074 2.674-3.045-7.271-8.015-12.985-14.885-17.115.078-.052.13-.104.207-.156 1.045-.877 2.221-1.294 3.528-1.248zm-23.823.216c2.066.02 4.06.34 5.983.953-4.241 4.027-6.844 10.469-7.807 19.3-.806 3.401.029 6.595 2.475 9.583 4.553.597 6.556 3.376 6.062 8.364l-.65.337c-1.64-1.897-3.957-3.92-6.975-6.103-3.72-4.285-4.813-9.818-3.277-16.623-1.38.232-2.734-.027-4.113-.781-2.16.26-4.345-.443-6.504-2.079 3.122-2.805 4.396-6.311 3.824-10.519.026-.025.052-.025.078-.05 3.821-1.624 7.46-2.416 10.904-2.382zm-22.615.926c1.9.286 3.175 1.638 3.826 4.106-5.127 4.26-8.015 10-8.691 17.22a1.106 1.106 0 0 0-.156.184c-1.51 1.454-3.018 2.128-4.502 2.023-.52-9.948 2.653-17.793 9.523-23.533zm94.111 1.31c12.22.247 20.753 9.782 25.618 28.614.754 5.403-1.094 7.454-5.518 6.129a2.368 2.368 0 0 1-.416-.13c-2.628-23.558-13.635-33.87-33.047-30.958l.442-1.016c4.218-1.653 8.127-2.53 11.728-2.632.402-.012.8-.014 1.193-.006zm-55.52.561l5.466 2.961c-4.32 4.883-7.47 10.313-9.475 16.313l-3.799-1.715c.677-6.831 3.28-12.676 7.809-17.559zm183.94 1.272c1.526-.017 2.417.706 2.692 2.183a11.98 11.98 0 0 0 2.107 3.246c.025 6.986-.52 13.013-1.638 18.053-2.447-1.638-4.712-3.87-6.793-6.726-2.421-2.39-3.54-5.432-3.358-9.145.078-1.404.313-2.623.65-3.637.938-2.7 2.812-3.999 5.649-3.922.244-.032.473-.05.691-.052zm-238.615.832l.627.025c.937 3.74 2.395 6.415 4.346 8a58.073 58.073 0 0 0-.938 11.586c.364 4.883.026 9.142-1.04 12.78-3.358-2.989-6.975-4.598-10.801-4.833-.468-.598-.468-1.064 0-1.427 1.51-.885 3.123-1.404 4.814-1.534 1.536-2.207 1.952-5.637 1.25-10.234-.079-5.767.52-10.545 1.742-14.363zm194.31 4.416c-2.471 5.583-5.751 10.154-9.888 13.765 4.397 3.351 7.963 7.715 10.668 13.092 2.733-5.662 6.143-10 10.176-13.039-4.683-3.558-8.327-8.181-10.955-13.818zm59.878 1.558c4.97 3.247 10.408 4.415 16.289 3.48-.416 5.276.678 10.701 3.254 16.313-1.588 1.013-3.15 1.013-4.711 0-1.77-4.13-5.44-5.663-10.983-4.623-4.449 1.921-6.321 4.65-5.644 8.155-.91.078-1.745 0-2.526-.286-2.576-.96-3.644-2.78-3.2-5.43.051-2.621 1.352-4.491 3.903-5.634l16.448-.469v-2.416h-.002c-4.92-.675-9.863-2.491-14.807-5.478zm-170.055.754c1.536.025 2.732.754 3.59 2.155-2.888 5.69-5.905 9.013-9.03 9.974-4.71 1.948-8.04.676-10.044-3.869v-1.246c8.666 4.443 13.845 2.103 15.484-7.014zm76.113.389c-.442 8.052-4.319 12.39-11.63 12.988a24.495 24.495 0 0 0 0 9.92c2.263 2.521 4.605 4.444 7.025 5.768 2.16 1.09 3.175 2.366 3.07 3.795.082 2.14-.29 4.273-1.094 6.26a2.87 2.87 0 0 1-.545.048c-1.146 0-1.821-.468-2.003-1.375a9.08 9.08 0 0 0-.833-2.414 9.954 9.954 0 0 1-.806-2.443c-1.536-2.363-3.435-4.312-5.725-5.844h-.027l-1.094 1.559c2.42 1.195 4.269 2.882 5.518 5.09 1.25 2.181 1.927 4.856 2.031 8-.365 4.907-1.51 8.156-3.46 9.74-4.087 3.74-7.965 3.04-11.634-2.077 4.19.857 7.287.079 9.317-2.337 2.784-3.3 2.784-6.883 0-10.754-1.275-1.22-3.044-2.287-5.256-3.194.026-.08.077-.132.103-.209 3.643-7.844 3.772-17.689.364-29.533 5.907.624 11.45-.365 16.68-2.988zm-143.172.027c4.763 2.987 9.68 4.831 14.754 5.584 0 4.391.806 8.755 2.42 13.145-.027.026-.026.078-.05.129-.418.91-1.147 1.192-2.16.882-2.89-2.779-6.377-4.31-10.487-4.595-3.513.855-6.064 3.842-7.6 9.011-2.524-1.3-4.137-2.907-4.814-4.857-.624-4.598.65-6.91 3.824-6.986 1.744.597 3.332.491 4.79-.315.86-1.272.86-3.063 0-5.35-.599-1.843-1.85-2.882-3.774-3.09.728-1.975 1.77-3.169 3.097-3.558zm283.118 4.57c1.095 1.377 1.771 2.989 2.056 4.83v.003c.86 6.052-.285 10.491-3.486 13.298-1.145-.078-1.873-.882-2.16-2.416-1.197-6.493 0-11.74 3.59-15.714zm-329.7 1.688a4.75 4.75 0 1 0 0 9.5 4.75 4.75 0 0 0 0-9.5zm94.618.676a10.99 10.99 0 0 0 2.316 5.637c1.483.052 2.342.857 2.603 2.44-.834 2.676-2.55 3.846-5.18 3.509l-.027-.026-.078-.052v.156c.625 2.415.756 4.804.366 7.115-.182.78-.547 1.013-1.067.701-1.015-1.557-2.343-2.62-3.957-3.218-3.095-.365-3.406-2.858-.908-7.456 1.56-3.585 3.226-6.518 4.969-8.804v-.002zm222.253.494c-.78 0-1.43.26-1.976.805a2.745 2.745 0 0 0-.832 2c0 .78.285 1.428.832 1.974.547.545 1.196.83 1.976.83.781 0 1.458-.285 2.004-.83.547-.545.809-1.194.809-1.974s-.263-1.454-.809-2c-.546-.545-1.223-.805-2.004-.805zm-265.918.338c-.65 1.376-.806 2.754-.416 4.13 2.784-.388 5.388 0 7.86 1.169.442-2.311-.73-3.818-3.488-4.52zm286.37 1.146c1.213.03 2.385.269 3.517.723 2.966 5.897 4.371 12.027 4.215 18.338-1.197 13.482-6.947 21.404-17.277 23.767-6.636.442-11.84-.83-15.588-3.818 0-2.518 1.353-3.038 4.086-1.558 2.628 1.17 5.385 1.636 8.326 1.455 3.227-.181 6.063-1.43 8.535-3.74 2.368-2.779 3.749-6.7 4.139-11.714-.26-3.274-1.665-6.21-4.242-8.806 1.093-4.468 1.274-9.17.52-14.106 1.3-.389 2.555-.57 3.769-.54zm-224.594 4.31v3.194c.026.077.052.13.078.207.026.08.077.183.103.287 1.536 1.507 2.5 3.038 2.89 4.57l1.04.104c4.58-4.207 9.16-3.738 13.74 1.432.521.44 1.04.44 1.563 0 3.513-6.99 8.742-9.483 15.717-7.483v.131c.312 1.948.025 3.013-.86 3.168-5.073-.467-9.47 1.924-13.191 7.196.91 2.364.91 4.57 0 6.675 3.227 6.258 8.013 9.43 14.389 9.455.494 1.818.494 3.064 0 3.715-6.271.726-11.398-2.026-15.405-8.26-5.62 3.768-11.008 3.768-16.134 0h-1.147c-.442 1.95-1.248 3.505-2.445 4.725l-.026-.025c-.053.132-.103.262-.156.39a41.162 41.162 0 0 1-2.055 3.975c-.026.026-.026.076-.052.103-.416.7-.858 1.378-1.326 2.053 2.316 2.338 4.866 2.57 7.65.7 1.015-1.117 2.055-.986 3.096.34.547 1.453.6 2.724.209 3.79.124.546.326 1.072.6 1.56 1.247.44 2.132 1.013 2.652 1.714.209.285.365.57.443.91.417.13.859.26 1.3.361 1.3-.753 2.448-.753 3.41 0 .079.052.13.104.182.156l.051-.13c.286.052.704.13 1.225.261 1.536-.288 2.652-1.17 3.355-2.65.026-.026.028-.079.028-.106.182-.544.441-.544.779 0 1.562 2.103 3.124 2.288 4.686.522 2.134-6.104.286-9.535-5.543-10.262-.755-.493-.755-.96 0-1.43 6.636.52 9.601 3.847 8.847 9.952-.495 4.907-3.383 8.206-8.666 9.894-5.152 1.585-9.992.7-14.52-2.65-.286-.233-.547-.44-.833-.676a36.339 36.339 0 0 1-1.508-1.35 8.348 8.348 0 0 1-.47-.44c-.079-.156-.155-.311-.233-.442a6.416 6.416 0 0 0-.444-.832c-1.067-1.714-2.704-3.325-4.89-4.807-1.744-.7-3.151-.57-4.217.418-2.03 2.987-4.735 5.142-8.092 6.492l-.078.078-.025-.025-3.149-3.43c8.093-5.74 13.01-13.69 14.807-23.846h-7.625c-4.606 14.26-13.116 19.275-25.58 15.041-.39-1.533-.078-3.066.91-4.6 14 6.054 20.766-1.843 20.271-23.714 2.573-1.268 4.473-2.773 5.67-4.488 3.617-.208 6.61-.858 8.979-1.922zm225.558 1.454c.261 2.234-.234 4.468-1.457 6.676v1.402c2.056 1.767 3.228 4.26 3.567 7.455.182-.389.311-.858.441-1.455.208-.96.313-1.87.313-2.676 0-1.04-.026-1.661-.078-1.843-.078-.338-.339-.91-.782-1.713.13-.65.21-1.197.21-1.69 0-1.04-.314-2.337-.964-3.869-.443-1.092-.859-1.845-1.25-2.287zm-46.824 1.637c.278.005.56.021.846.05 1.847.078 2.889.727 3.176 1.973-.547.962-1.433 1.378-2.631 1.248-1.196 1.246-2.601 1.922-4.24 2-1.431 1.04-2.839 1.713-4.27 2.026-.338-2.494.289-4.364 1.85-5.61 1.571-1.16 3.322-1.72 5.27-1.687zm-184.677 3.65a4.75 4.75 0 1 0 0 9.5 4.75 4.75 0 0 0 0-9.5zm-46.829 1.285c4.423.18 8.222 1.792 11.397 4.83 3.357 3.247 5.049 7.169 5.049 11.768 0 4.26-1.458 7.922-4.346 11.012-3.071 2.545-6.141 3.428-9.238 2.648-2.161-.805-3.618-2.595-4.346-5.375l-.025-1.402c.806 1.065 1.925 1.663 3.355 1.793 8.38.494 11.84-3.611 10.383-12.338-.312-2.233-2.056-4.523-5.23-6.885-5.31-2.936-10.462-1.612-15.458 4-1.64-.468-3.096-1.74-4.37-3.793.13-.128.233-.233.34-.363 3.511-3.454 7.675-5.429 12.49-5.895zm237.75.121c2.73-.057 5.552.621 8.47 2.034-.104 1.454-.727 2.727-1.874 3.843-5.62-3.09-11.084-2.388-16.394 2.106-1.171.182-2.186-.339-3.096-1.559 4.05-4.19 8.344-6.328 12.894-6.424zm16.797.684c.73.961 1.017 1.947.887 2.934-4.867 1.22-7.287 5.48-7.313 12.804.26 2.39-.886 3.247-3.41 2.547-1.43-9.274 1.848-15.351 9.836-18.285zm11.164 1.584a7.626 7.626 0 0 1 2.498 1.297c1.353.962 2.135 2.286 2.317 3.924 1.015 4.778-.91 8.31-5.828 10.595-4.137.73-7-.52-8.614-3.74 2.627 1.117 5.256 1.481 7.885 1.041 1.742-1.117 2.862-2.469 3.356-4 .416-1.872.158-3.507-.805-4.885-1.77-2.13-2.058-3.531-.887-4.181.026-.025.053-.025.078-.051zm-60.37.336c4.163 2.65 7.598 6 10.279 10.053 1.664.83 2.132 2.287 1.43 4.338-.339 2.469-.442 4.963-.364 7.455.807 1.559 1.17 3.065 1.066 4.545a.735.735 0 0 0-.025.234c-3.695.779-3.695 3.143 0 7.117-2.367.182-4.397 1.167-6.115 2.96-.963-2.805-2.707-5.272-5.23-7.374.675-2.65 1.689-4.677 3.017-6.053.573-.78.936-1.507 1.066-2.156.755-3.507.418-7.193-1.013-11.117-2.316-2.857-5.102-5.56-8.329-8.106.885-1.142 2.291-1.764 4.217-1.896zm-141.26.207a6.25 6.25 0 1 0 0 12.5 6.25 6.25 0 0 0 0-12.5zm124.917.988c.65.857.781 2.078.391 3.664-5.88 2.726-6.376 7.168-1.51 13.35.495 1.013.495 1.895 0 2.598-3.356-.727-5.179-1.974-5.465-3.713-1.9-4.104-2.158-7.69-.753-10.754.469-1.351 1.77-2.573 3.93-3.639 2.158-1.09 3.302-1.583 3.407-1.506zm-162.537.133c2.03.233 3.8 1.062 5.309 2.492 1.823 1.713 2.734 3.792 2.734 6.207s-.91 4.495-2.732 6.21c-1.848 1.713-4.06 2.57-6.637 2.57-2.575 0-4.787-.857-6.61-2.57a8.121 8.121 0 0 1-.65-.65v-5.09l1.745-.208c.416 2.26 1.534 3.999 3.382 5.219 4.605 1.377 6.948-.546 6.975-5.74-.338-2.05-1.614-3.533-3.826-4.415-.26-2.156-.158-3.479.31-4.025zm-62.228.178a4.75 4.75 0 1 0 0 9.5 4.75 4.75 0 0 0 0-9.5zm308.295 1.613c2.628 3.17 2.992 7.298 1.119 12.363-2.342 4.078-5.412 6.34-9.186 6.729-3.903.077-5.828-.546-5.802-1.871-.052-1.688.623-2.572 2.054-2.65 2.655.286 5.077-.105 7.262-1.169 2.499-1.455 3.982-3.74 4.424-6.857.442-2.39.493-4.57.129-6.545zm-181.164 1.014c.494 2.286-.158 4.13-1.979 5.556l-.678 1.743c-.052 2.312-.624 3.714-1.689 4.26-5.465-.078-8.978-3.3-10.514-9.69 5.178 2.053 10.149 1.429 14.86-1.87zm109.734.517c3.097 1.82 5.1 4.443 6.01 7.871 1.276 6.001-.414 11.195-5.047 15.584l-.34.989.34.388c2.915.52 5.126 3.092 6.61 7.69 1.586 6.312-1.824 10.934-10.202 13.818.285.961.806 2.026 1.535 3.143-1.666.675-3.486.675-5.49 0-.183-3.091-4.165-5.688-11.97-7.793-1.797-.336-5.387-2.025-10.774-5.09-6.324-3.767-12.023-7.843-17.045-12.207l3.281-3.354c7.52 6.676 16.55 12.211 27.088 16.547l9.395 3.22c5.335 0 8.091-2.413 8.273-7.245-.858-4.027-6.4-6.39-16.652-7.065-.702-1.3-.443-2.599.806-3.922 3.018.7 5.62.727 7.78.077.026-.026.078-.026.105-.026v-.103c5.282-1.637 8.093-5.715 8.432-12.235-.39-2.442-1.72-5.195-4.035-8.234.13-1.273.703-1.974 1.718-2.053zm50.406.858c.364.31.625.7.807 1.142 2.498 6.051 1.457 10.961-3.123 14.703-2.108 1.246-4.216 1.583-6.324 1.01 6.22-3.79 8.77-8.025 7.625-12.674-.443-1.688-.443-2.857 0-3.506.339-.337.675-.571 1.013-.675zm-244.193.756c.935 1.35 1.614 2.493 2.004 3.453 1.016 2.417 1.222 4.363.597 5.896-.676 4.545-4.709 5.87-12.072 4-2.109 4.026-.052 7.506 6.14 10.494 2.916 1.143 6.583-.467 10.981-4.857 1.9 2.365 4.034 3.792 6.428 4.234l3.254 6.157c-21.677 2.832-32.946-2.626-33.805-16.366 8.821.025 14.106-3.246 15.9-9.869.288-.962.469-2.026.573-3.142zm104.506 4.127c2.992 1.638 4.734 3.818 5.203 6.519.074.342.109.692.103 1.041 0 1.272-.441 2.363-1.351 3.272-.91.91-2.004 1.351-3.28 1.351-1.274 0-2.367-.442-3.279-1.351a5.396 5.396 0 0 1-.754-.96c-1.014-.286-1.9.648-2.629 2.753-1.197 3.869.833 6.674 6.116 8.388 2.108.961 4.19.961 6.271 0 1.405-2.025 2.915-3.506 4.53-4.467.154-.077.545-.208 1.144-.338v.909c-1.093 2.753-2.758 4.808-5.023 6.13-3.72 1.535-7.625 1.586-11.711.157-4.71-2.13-7.44-5.87-8.196-11.196 5.803-3.22 10.098-7.298 12.856-12.208zm-67.399 1.74l1.744.963c-2.838 7.429-6.687 12.647-11.527 15.687l-1.484-1.142c5.23-3.974 8.977-9.143 11.267-15.508zm177.618 1.537c.732-.044 1.465.265 2.197.932-.338 3.429.181 7.506 1.56 12.26l1.405-1.456c5.283 10.961 14.52 13.584 27.714 7.844.6-1.895 1.613-3.039 3.096-3.428 1.952.286 2.603 1.142 1.953 2.598-1.744 2.26-1.483 4.339.78 6.287 1.82.623 3.567.57 5.205-.184 1.822-.182 2.497-1.505 2.054-3.947-.494-1.377-1.482-2.573-2.94-3.558 1.588-1.196 3.307-1.43 5.206-.676 1.952 3.844 4.188 7.403 6.738 10.65.936.701 1.77.701 2.526 0 4.137-3.35 7.26-2.624 9.392 2.233 1.691 4.625.182 7.793-4.476 9.48-5.646-.597-10.485-4.441-14.545-11.584h-.756c.52 6.027-1.195 9.95-5.125 11.795-5.022-2.261-6.716-6.21-5.024-11.795h-1.535c-3.669 8.338-9.497 12.365-17.433 12.105l-9.42-.181c-8.978.52-14.808-1.716-17.463-6.729-1.014-4-.027-7.324 2.992-9.972 1.535-.754 3.227-.754 5.074 0 .677.752.677 1.48 0 2.232-2.576.415-3.59 1.896-3.095 4.469 2.003 4.572 5.88 6.83 11.632 6.752 5.646.39 8.326-1.222 8.04-4.858-.65-3.663-3.095-5.662-7.39-5.949-6.27-2.337-10.356-5.61-12.255-9.818-.494-1.22-.236-1.82.78-1.793l2.913.726c-1.848-6-2.237-10.647-1.119-13.972.44-.282.88-.437 1.319-.463zm-250.323 1.58c-.286 11.74-6.74 17.974-19.334 18.676-1.327-.987-1.611-2.13-.857-3.453 10.54-.702 16.367-5.665 17.512-14.86zm-13.69.129c2.34-.027 4.622.643 6.847 2.002h.002c.39.806.156 1.429-.704 1.922-7.469-1.895-12.18 1.193-14.105 9.324-.337 7.819 2.837 11.196 9.525 10.182v1.843c-.469.442-1.171.73-2.134.86-1.12.155-1.978.206-2.524.129-.235-.026-.444-.078-.678-.13-2.134-.492-4.006-1.688-5.646-3.558a13.33 13.33 0 0 1-3.201-6.935 15.975 15.975 0 0 1-.155-2.26c0-.78.05-1.534.155-2.26.287-1.897.912-3.638 1.9-5.223 1.562-2.128 3.278-3.663 5.152-4.572 1.89-.864 3.747-1.304 5.567-1.324zm25.505.21c1.796 1.793 3.618 2.7 5.414 2.7l-.703 3.066.728-.597c.364 4.908 2.576 8.934 6.61 12.103 6.426 7.117 16.705 8.624 30.888 4.494l3.824 4.493-.675.703c.104 7.74 3.355 10.44 9.73 8.076l.938-1.43 3.564 2.729c-6.323 6.312-14.102 5.793-23.392-1.584l-3.696-.235c-5.75 5.844-15.82 7.767-30.263 5.768-7.052.077-10.93-1.767-11.606-5.533-.703-2.26-2.733-2.26-6.037 0l-5.7 4.779c-3.616-5.117-8.977-5.324-16.081-.621-.312-1.897-2.29-3.664-5.909-5.248-6.4-.675-9.964-3.846-10.718-9.508 2.003.362 4.006 1.275 6.062 2.729 6.687 2.494 13.688 3.43 20.975 2.83 11.528-1.584 16.575-9.013 15.092-22.235v-1.09h.002c4.553 5.793 5.1 11.558 1.638 17.3 1.275 1.012 2.577 1.116 3.852.284 3.07-1.063 5.228-.881 6.478.495-1.614 1.792-2.367 4.026-2.289 6.703.337 1.895 1.403 3.089 3.172 3.53 4.45 1.43 8.823 1.663 13.117.651 4.528-1.377 6.377-3.455 5.569-6.181.183-1.43-.366-2.651-1.692-3.664-9.447-.624-16.419-3.715-20.869-9.274v-2.388h4.893c-3.02-5.04-3.983-9.663-2.916-13.844zm-4.32 1.53c.338.026.624.079.884.106-.13 3.092.157 5.43.834 7.013.703 1.558 1.093 2.415 1.197 2.545-.65.287-1.197.623-1.587 1.014-.364.362-.755.883-1.145 1.586h-.625c-.208-1.976-.701-3.77-1.482-5.38-.755-1.611-1.772-2.908-2.995-3.921v-1.453c.443-.34 1.016-.65 1.72-.91 1.066-.39 2.133-.6 3.198-.6zm204.597 4.713c.935-.057 1.872.19 2.799.742-3.513 5.403-7.156 9.819-10.98 13.274l-3.983-1.844a74.141 74.141 0 0 0 10.488-11.742 4.718 4.718 0 0 1 1.676-.43zm-153.334 6.38a45.856 45.856 0 0 0 3.983 5.973c.182.234.336.444.519.678.312.39.625.752.938 1.115 5.542 6.364 12.67 10.832 21.44 13.43-1.326 4.285-4.084 5.3-8.274 3.014-10.33-5.43-18.734-13.17-25.266-23.276 3.228.314 5.437 0 6.66-.933zm214.488 10.259a4.75 4.75 0 1 0 0 9.5 4.75 4.75 0 0 0 0-9.5zm-159.347.158c2.498 0 4.632.882 6.427 2.623.25.27.494.548.729.832-.754 1.532-1.953 2.313-3.645 2.338l-1.013.648-.028.051c-1.067-.752-2.106-1.064-3.095-.88-4.138.597-5.908 2.803-5.334 6.62l-.156.65h-2.108a4.747 4.747 0 0 1-.285-.65 9.12 9.12 0 0 1-.549-3.191c0-2.521.885-4.651 2.654-6.418 1.743-1.74 3.878-2.623 6.403-2.623zm-31.668.363c2.68 0 4.969.91 6.869 2.754 1.9 1.818 2.836 4.024 2.836 6.623 0 2.286-.755 4.286-2.238 5.975-1.353 1.09-2.55 1.377-3.59.883l-.938-1.118c.963.234 1.77-.441 2.42-1.974 1.041-4.571-.313-7.194-4.086-7.87-.182-.025-.337-.052-.52-.078-2.237.754-4.474.468-6.712-.882l-1.121-1.35.209-.209c1.9-1.844 4.19-2.754 6.87-2.754zm170.47.438c.153-.012.305-.008.457.011 1.017.13 2.03.95 3.055 2.46.834.7 1.668.96 2.526.728 1.536-.572 3.045-.131 4.58 1.297.963 1.689.365 2.883-1.795 3.61-3.435.494-6.82-.154-10.176-1.946-.08-.026-.156-.08-.234-.131-1.743-1.326-1.691-3.145.209-5.508.46-.314.92-.487 1.378-.521zm-233.796 2.347c3.143-.029 6.233.774 9.277 2.41l2.264 1.09c.13 1.846-.832 2.938-2.836 3.248-4.658.753-9.134.519-13.428-.648-.13-.052-.262-.207-.34-.494-.493-1.766-.05-2.986 1.328-3.662l.235-1.118.337-.52a18.403 18.403 0 0 1 3.163-.306zm83.83 9.348l4.554 4.543c-4.736.65-9.472.78-14.234.441-.209-.13-.417-.286-.6-.416-.676-1.013-.676-2 0-3.013.677-.856 1.354-1.375 2.03-1.555 2.76.7 5.518.7 8.25 0z" />
</svg>
