
<svg xmlns="http://www.w3.org/2000/svg" viewBox="0 0 832 128">
  <path d="M327.964 128c-2.382-.009-3.565-.352-5.663-1.313-4.228-1.892-8.912-6.653-10.343-10.498-.65-1.71-1.366-3.601-1.691-4.333-.455-1.038-1.496-1.343-6.57-1.954-13.79-1.709-36.819-6.591-56.855-12.024-5.529-1.525-10.343-2.746-10.668-2.746-.976 0 1.041 7.08 3.188 10.986 2.602 4.822 5.984 8.24 10.017 10.254 2.733 1.343 4.164 1.648 8.197 1.587 4.163 0 5.53-.244 9.107-1.892 2.342-1.038 5.204-2.503 6.375-3.235 3.122-2.014 2.537-.488-.976 2.441-5.464 4.517-8.782 5.799-15.157 5.799-4.943 0-6.05-.244-9.822-1.953-8.717-4.029-15.548-13.306-16.068-21.668-.13-2.319-.325-4.15-.39-4.15s-4.944-1.526-10.864-3.418c-9.822-3.113-20.1-5.676-22.833-5.737-.975 0-1.17.61-1.17 3.906 0 4.395-1.432 7.019-5.14 9.338-2.927 1.892-8.586 1.953-11.644.183-3.447-1.953-5.269-7.934-3.187-10.376 2.797-3.356 8.457-4.15 11.189-1.525 2.146 1.953 2.146 4.76 0 6.713-1.627 1.526-5.53 2.137-5.53.855 0-.305.325-.427.716-.244.91.549 3.578-.122 4.749-1.282 2.602-2.38-.066-6.958-4.034-6.958-3.057 0-6.505 1.953-7.025 4.028-.585 2.198.716 5.799 2.667 7.569 1.171 1.037 2.602 1.526 5.14 1.709 6.374.488 10.732-2.747 11.318-8.484.52-5.493.325-5.737-6.505-6.897-4.177-.68-8.363-1.31-12.555-1.892l-6.44-.855-2.342 1.587c-1.236.916-4.618 3.418-7.48 5.555-9.043 6.835-17.37 9.643-23.68 8.056-3.837-.977-8-4.944-9.106-8.728-.781-2.502-.781-7.446 0-10.193.195-.793-.846-.915-6.57-.915-3.773 0-10.929.183-15.938.366-5.139.244-7.286.183-4.879-.061 2.342-.244 6.31-.488 8.782-.55 8.652-.182 6.31-1.098-4.684-1.83-24.459-1.648-42.217-2.442-54.512-2.503-9.562 0-12.75-.183-12.23-.671 1.106-1.038 58.09 1.282 70.32 2.807 1.496.245 2.733.245 2.733.123 0-.184-1.562-1.343-3.448-2.625-2.993-2.075-3.773-2.32-6.635-2.197-2.407.122-4.294-.244-6.83-1.343-4.945-2.075-13.791-4.394-18.865-4.883-3.838-.366-9.498.122-13.466 1.221-2.147.55-2.017-1.587.195-3.662 2.277-2.075 5.594-2.99 10.473-2.686 2.212.061 3.838 0 3.708-.183-.13-.244-3.187-1.587-6.765-2.99-5.79-2.32-6.96-3.052-10.408-6.592-2.147-2.197-3.903-4.211-3.903-4.455 0-.794 9.952-.672 12.099.06.976.367 3.708 2.015 6.05 3.602 2.342 1.648 5.139 3.478 6.245 4.089 1.821 1.098 1.821 1.037-.78-2.198-4.23-5.249-5.01-8.178-3.123-11.596 1.04-1.953 2.277-2.441 2.277-.976 0 1.709 2.472 6.225 5.529 10.01 1.691 2.074 6.83 6.896 11.449 10.68 6.7 5.493 8.456 7.202 8.781 8.85.326 1.526 1.367 2.624 4.88 5.005l4.488 3.052 7.806.732 7.741.733 2.472-2.503c5.269-5.249 14.506-7.934 29.663-8.545l9.628-.366-7.546-2.075c-9.693-2.564-15.547-4.883-20.491-8.057-2.472-1.587-4.619-2.502-5.855-2.502-4.293 0-7.806-2.99-7.806-6.53 0-1.405-.325-2.015-.976-2.015-.65 0-.975.61-.975 1.71 0 2.074-2.407 4.393-4.49 4.393-.845 0-3.317-1.098-5.528-2.502-3.903-2.441-4.033-2.502-8.327-2.197-2.537.183-4.423.122-4.423-.183 0-.367.846-1.465 1.886-2.564 1.822-1.892 2.212-2.014 7.35-2.32 5.27-.304 5.4-.365 5.4-1.83 0-1.404-.325-1.587-3.252-1.892-4.228-.488-4.944-.794-6.57-3.174-1.041-1.465-1.497-3.296-1.757-7.141-.195-2.869-.585-5.86-.845-6.653-.39-1.281-.326-1.342.91-.732.78.366 3.838.916 6.765 1.22 2.993.245 6.115.794 6.896 1.221 1.756.855 3.122 3.296 3.708 6.47.715 4.028 1.04 4.639 2.146 4.456.911-.184 1.106-1.038 1.106-4.944v-4.76l2.732-2.442c1.497-1.282 3.058-2.38 3.448-2.38.39 0 .65 2.075.65 5.37 0 4.761.196 5.554 1.367 6.592 2.146 1.77 3.317 4.76 2.602 6.592-.781 1.83-3.123 3.418-5.074 3.418-2.342 0-1.756.976 1.106 1.77 3.513.976 5.204 3.54 5.204 7.812 0 2.869.195 3.296 2.081 4.639 6.896 4.883 17.499 8.117 46.772 14.404 18.149 3.906 24.004 5.493 36.753 9.887 5.79 1.953 10.799 3.601 11.124 3.601.326 0 1.692-1.342 3.123-3.051 1.431-1.648 2.732-3.052 2.927-3.052.195-.061 1.561-1.099 3.057-2.32l2.798-2.258-5.855-5.554c-5.009-4.821-6.18-5.615-8.456-5.92-2.017-.244-3.513-1.099-6.57-3.723-9.043-7.874-20.492-13.184-28.363-13.184-2.016 0-2.146-.122-1.496-1.22 1.822-3.235 7.806-3.907 13.92-1.526l3.904 1.465-6.245-5.615c-5.66-5.127-6.31-5.982-7.936-10.132-.976-2.442-1.626-4.639-1.431-4.76.455-.428 4.748.976 8.261 2.624 3.318 1.525 4.489 2.746 9.368 9.277 3.252 4.394 5.073 5.86 3.317 2.746-1.301-2.502-2.407-7.812-1.952-9.887.196-.977 1.366-2.686 2.602-3.784l2.212-2.015v3.663c0 1.953.325 4.821.716 6.347.715 2.93 5.27 11.963 10.018 19.836 2.016 3.48 2.927 5.555 2.927 7.264 0 2.563 1.886 4.882 8.912 10.925l3.383 2.93 3.122-1.466c9.888-4.7 25.305-5.187 40.071-1.403 5.595 1.465 17.109 5.554 18.54 6.591 1.3 1.038.91.184-1.561-3.234-4.294-6.043-10.474-19.104-9.823-20.935.13-.367.91 1.281 1.756 3.6 2.277 6.592 4.88 11.597 8.782 17.151 3.838 5.371 6.765 7.996 12.88 11.414l3.708 2.136 4.033-1.526c6.245-2.38 13.986-3.418 22.638-3.051 6.375.244 8.652.671 15.612 2.746 8.457 2.503 16.133 4.15 21.987 4.578 1.822.122 3.383.183 3.383.122s-1.821-.794-4.033-1.526c-7.156-2.442-13.66-7.141-16.133-11.597-1.951-3.54-9.367-9.399-13.53-10.62-1.041-.366-1.952-.06-3.383 1.038-3.383 2.685-6.895 2.624-11.189-.305-1.691-1.16-2.146-.183-.585 1.282 3.252 3.051.455 7.995-4.424 7.995-3.838 0-5.92.977-9.302 4.394l-3.057 3.113-.39-2.258c-.716-3.357.065-5.066 3.577-8.24 3.383-3.051 4.033-4.516 2.212-5.188-1.17-.427-2.212.061-3.383 1.526-.39.61-1.821 1.404-2.992 1.77-3.318 1.038-6.96-.244-10.343-3.479-1.496-1.465-3.708-3.235-4.879-3.967l-2.212-1.282 1.887-.793c1.04-.488 3.448-2.136 5.4-3.601 5.463-4.273 7.935-4.395 13.725-.61 5.464 3.54 6.31 1.342 1.236-3.235-3.188-2.93-3.253-2.991-3.253-6.714 0-2.075.26-3.784.52-3.784.326 0 1.366.854 2.472 1.892 2.863 2.868 6.766 5.432 7.742 5.066 1.43-.55 5.399.915 6.505 2.38 1.366 1.831 1.236 4.272-.326 6.103-1.496 1.77-.585 2.93 1.171 1.465 2.017-1.648 3.903-1.77 6.896-.549 1.56.671 3.382 1.953 3.968 2.808.65.854 2.797 2.44 4.814 3.417 2.016 1.038 4.878 2.93 6.31 4.273l2.732 2.38-.066-4.394c-.13-10.681 6.57-18.128 16.198-18.128 2.992 0 8.457 2.259 10.473 4.334 6.245 6.409 3.318 17.639-4.879 18.676-5.204.672-11.188-3.6-11.188-7.934 0-3.357 3.448-7.141 6.505-7.141 1.561 0 5.269 2.014 5.985 3.296.715 1.282.715 1.282-.846-.061-3.578-3.052-6.96-2.99-9.628.183-2.992 3.6-.78 8.362 4.88 10.376 5.203 1.83 9.692-.428 11.383-5.86 1.886-5.859-2.147-12.512-8.717-14.343-1.821-.488-3.903-.915-4.618-.915-4.814 0-10.343 3.54-12.88 8.179-1.887 3.479-2.342 10.803-.911 14.83 2.017 5.677 7.546 10.255 16.003 13.245 5.789 2.015 9.562 2.442 13.985 1.587 3.383-.671 3.773-.915 4.684-2.93.955-2.24 6.836-10.23 8.352-11.533v1.187c-1.692 1.266-8.157 10.323-8.157 11.628 0 .61 1.822.122 5.66-1.404 1.137-.468 1.801-.735 2.497-.77v.344l-3.408 1.403c-5.66 2.32-5.595 2.258-6.505 5.493-3.72 9.046 17.647-6.486-1.822 4.822L416 90.478l-3.278 1.846c-1.951 1.098-4.423 2.38-5.53 2.807-1.495.61-1.95 1.16-1.95 2.441 0 3.48.454 3.785 3.447 2.32 1.496-.672 3.773-1.892 5.139-2.686L416 95.905v1.08l-3.278 1.565c-1.951.976-4.228 2.197-5.009 2.808l-1.431.976 1.236 2.625c1.481 2.953 6.475 7.937 8.482 8.439v1.194c-1.782-.697-7.53-6.382-8.872-8.9l-1.692-3.175c-.065-.122-2.146.55-4.553 1.465-13.076 4.883-28.037 7.812-44.625 8.606l-8.197.427-.715 2.93c-.39 1.587-1.171 3.418-1.691 4.028-.716.916-.716.672.065-1.16.52-1.281.976-3.051.976-4.028v-1.77l-10.539-.305c-5.854-.183-10.668-.244-10.798-.183-.52.427 1.951 4.028 3.252 4.638 1.887.977 6.18.306 8.522-1.281 1.04-.794 1.821-1.038 1.626-.61-.455 1.281-4.553 3.051-7.09 3.051-2.667 0-5.334-1.648-6.766-4.272-.975-1.831-1.821-2.075-9.562-2.808l-4.294-.366.586 2.563c.976 3.906 2.862 6.958 6.05 9.583 6.895 5.676 17.499 5.86 24.459.366 2.147-1.648 2.472-1.77 1.301-.55-3.188 3.358-6.896 4.822-12.62 5.067-.952.057-1.906.088-2.86.092zm18.796-15.778-.195-1.953c-.195-2.259.976-1.893-13.205-3.846-6.7-.915-7.156-.915-7.936.061-.456.61-.846 1.954-.846 3.052 0 2.014 0 2.014 3.773 2.259 2.017.122 7.026.244 11.059.305zm4.071-.066c1.1 0 2.548-.072 4.451-.178 3.968-.184 10.603-.794 14.832-1.343 12.424-1.526 11.839-1.77-4.424-1.831-8.456-.061-16.067-.244-16.848-.489-1.236-.366-1.496-.244-1.496.794 0 2.38.183 3.044 3.485 3.047zm-27.359-.606c.26 0 .456-1.037.456-2.319 0-1.343.325-2.625.65-2.808.39-.183.65-.549.65-.793 0-.55-12.944-2.808-13.4-2.38-.195.183-.52 1.83-.715 3.662l-.39 3.357 6.114.549c3.383.366 6.31.671 6.635.732zm-14.75-1.82c1.356-.017 1.399-.438 1.74-3.429.195-1.953.325-3.6.195-3.662-.065-.122-3.773-1.037-8.261-2.075-16.458-3.784-40.397-10.681-58.22-16.723l-6.18-2.137-.976 2.198c-.52 1.22-1.171 3.906-1.366 5.981l-.39 3.845 4.162 1.282c19.06 5.798 58.936 14.343 68.63 14.71.251.007.472.013.665.01zm55.949-1.46c1.5-.004 3.068-.03 4.792-.076 3.773-.123 9.042-.306 11.71-.367 5.659-.06 9.692-.976 18.018-3.967l6.05-2.197-.39-2.503c-.26-1.342-.52-2.563-.586-2.685-.065-.061-1.17.244-2.407.732-5.008 2.014-15.156 3.418-24.133 3.418-18.15 0-35.128-4.455-50.805-13.305l-3.903-2.198-2.732 2.93c-2.862 2.93-8.327 12.207-7.871 13.428.325.854 13.4 3.357 13.92 2.624.781-1.16 7.156-3.479 9.628-3.479 3.708 0 7.676 1.892 9.367 4.456 1.301 2.014 1.692 2.197 5.465 2.502 5.513.504 9.38.698 13.877.687zm-19.984-.985c.364.016.707-.274.707-.617 0-.367-.975-1.587-2.146-2.686-2.667-2.502-6.05-3.235-10.213-2.197-2.993.732-6.18 2.38-5.66 2.868.26.245 14.832 2.503 17.239 2.625a.597.597 0 0 0 .073.007zm-33.685-5.499c.216-.028.847-1.396 1.477-2.992 1.43-3.662 5.204-9.338 8.066-12.024l2.082-1.953-3.903-3.479c-2.147-1.892-4.034-3.906-4.229-4.516-.455-1.282-5.984-4.15-13.01-6.714-15.092-5.432-33.956-5.92-47.487-1.16l-3.773 1.343 1.561 1.16c3.383 2.502 20.166 12.756 26.28 16.052 11.97 6.47 29.208 13.977 32.916 14.282a.045.045 0 0 0 .02.001zm-11.273-2.442c.065 0 .13-.061.13-.306 0-.183-1.041-.732-2.342-1.22-8.457-3.357-31.55-15.93-41.372-22.583l-6.57-4.456-2.798 1.77c-3.057 2.014-8.066 7.08-8.066 8.24 0 1.098 43.91 14.526 59.522 18.188.715.122 1.366.306 1.496.367zm81.14-3.092c2.955-.01 5.825-.197 8.955-.57 3.188-.367-2.342.549 0 0l14.441-2.686.78-3.052c1.237-5.127 1.237-5.188-1.56-4.394-3.838 1.037-16.068.793-22.313-.428-2.992-.61-9.172-2.258-13.66-3.6-8.001-2.442-8.262-2.503-17.564-2.503-9.562 0-15.027.793-20.621 3.052l-2.472.976 3.903 1.831c9.823 4.7 25.24 9.033 37.534 10.56 4.83.548 8.775.828 12.576.814zm-241.752-1.53c2.087.023 4.447-.376 7.222-1.177 4.098-1.22 8.066-3.479 15.222-8.789 3.773-2.746 5.854-4.7 5.399-4.943-.455-.184-2.537-.55-4.684-.794-2.146-.244-9.887-1.099-17.238-1.953-17.239-1.892-16.653-1.892-17.499.427-2.017 5.554.325 12.451 5.334 15.503 1.866 1.135 3.88 1.701 6.244 1.726zm91.463-2.214 1.821-4.944c.976-2.747 1.951-5.371 2.147-5.92.26-.733-1.887-1.71-10.604-4.7-13.14-4.456-16.002-5.249-34.021-9.338l-13.986-3.113-12.36-.061c-16.588 0-25.5 1.892-31.42 6.652-3.902 3.113-3.642 3.662 2.343 4.212 2.732.244 11.709 1.16 19.84 2.136l14.897 1.71 3.122-1.71c3.773-2.075 8.457-3.662 10.864-3.662 4.033 0 8.261 2.99 11.579 8.179.455.732 3.057 1.525 7.806 2.502 3.968.793 11.84 2.93 17.564 4.76zm-37.21-9.644c.26 0 .456-.305.456-.732 0-1.648-4.554-5.86-7.48-6.836-2.473-.916-3.384-.977-5.986-.305-3.317.732-9.497 3.662-8.976 4.15.26.244 10.277 1.953 21.987 3.723zM56.178 99.038c-5.594-2.563-4.488-10.315 2.017-14.343 5.855-3.662 20.491-7.324 32.2-8.117 3.903-.306 3.253-.122-3.252.854-16.653 2.441-26.736 5.676-31.225 10.07-2.016 1.954-2.277 2.564-2.277 5.555 0 2.869.26 3.6 1.562 4.577 1.691 1.282 5.269 1.526 7.285.489 1.952-.916 2.732-3.48 1.822-5.554-.586-1.404-1.171-1.71-2.862-1.71-1.236 0-2.668.428-3.188.977-1.236 1.099-1.236 1.22-.39 2.747.78 1.281 2.602 1.526 3.773.427.585-.55.78-.55.78 0 0 1.282-3.187 1.587-4.553.427-2.342-2.014-1.041-4.638 2.732-5.493 1.366-.305 2.147-.06 3.383 1.16 2.211 2.014 2.146 4.15-.066 6.408-2.276 2.259-5.074 2.808-7.74 1.526zM20.335 84.329c-.455-.183-.845-1.099-.845-2.075 0-4.639 5.464-9.522 11.904-10.62 2.017-.366 2.407-.244 2.407.55 0 1.22-2.212 5.431-4.163 7.873-2.212 2.807-7.156 5.065-9.303 4.272zM4.723 73.099C1.145 72.122-.87 68.582.365 65.53.95 64.066 4.138 62.784 7 62.784c4.814 0 17.499 4.76 17.238 6.408-.13.916-9.757 3.846-13.855 4.212-1.952.183-4.489.06-5.66-.305zm24.654-6.409c-3.838-1.77-6.18-4.333-7.155-7.751-.716-2.503-.065-5.31 1.17-5.31 1.822 0 5.205 1.953 6.766 3.845 1.952 2.38 4.293 7.63 4.293 9.582 0 1.587-1.04 1.526-5.074-.366zm262.35-22.094c-4.683-1.831-7.48-3.846-8.846-6.348-1.887-3.479-1.497-5.005 1.366-5.249 3.707-.305 7.87 2.625 10.343 7.263 1.106 2.075 2.016 4.15 2.016 4.639 0 1.037-1.691.976-4.879-.305zm8.132.061c0-1.71 2.927-7.08 4.618-8.545 2.212-1.892 6.31-3.418 8.132-2.99 1.951.487 2.081 2.929.325 5.614-2.992 4.578-13.075 9.094-13.075 5.92zm-3.839-11.17c-2.146-4.272-3.967-10.253-3.967-12.878 0-6.287 6.83-9.643 10.213-4.944 2.341 3.296.91 12.756-3.058 19.653l-1.17 2.137zM504.036 128c2.382-.009 3.565-.352 5.663-1.313 4.228-1.892 8.912-6.653 10.343-10.498.65-1.71 1.366-3.601 1.691-4.333.455-1.038 1.496-1.343 6.57-1.954 13.79-1.709 36.819-6.591 56.855-12.024 5.529-1.525 10.343-2.746 10.668-2.746.976 0-1.041 7.08-3.188 10.986-2.602 4.822-5.984 8.24-10.017 10.254-2.733 1.343-4.164 1.648-8.197 1.587-4.163 0-5.53-.244-9.107-1.892-2.342-1.038-5.204-2.503-6.375-3.235-3.122-2.014-2.537-.488.976 2.441 5.464 4.517 8.782 5.799 15.157 5.799 4.943 0 6.05-.244 9.822-1.953 8.717-4.029 15.548-13.306 16.068-21.668.13-2.319.325-4.15.39-4.15s4.944-1.526 10.864-3.418c9.822-3.113 20.1-5.676 22.833-5.737.975 0 1.17.61 1.17 3.906 0 4.395 1.432 7.019 5.14 9.338 2.927 1.892 8.586 1.953 11.644.183 3.447-1.953 5.269-7.934 3.187-10.376-2.797-3.356-8.457-4.15-11.189-1.525-2.146 1.953-2.146 4.76 0 6.713 1.627 1.526 5.53 2.137 5.53.855 0-.305-.325-.427-.716-.244-.91.549-3.578-.122-4.749-1.282-2.602-2.38.066-6.958 4.034-6.958 3.057 0 6.505 1.953 7.025 4.028.585 2.198-.716 5.799-2.667 7.569-1.171 1.037-2.602 1.526-5.14 1.709-6.374.488-10.732-2.747-11.318-8.484-.52-5.493-.325-5.737 6.505-6.897 3.318-.55 8.977-1.404 12.555-1.892l6.44-.855 2.342 1.587c1.236.916 4.618 3.418 7.48 5.555 9.043 6.835 17.37 9.643 23.68 8.056 3.837-.977 8-4.944 9.106-8.728.781-2.502.781-7.446 0-10.193-.195-.793.846-.915 6.57-.915 3.773 0 10.929.183 15.938.366 5.139.244 7.286.183 4.879-.061-2.342-.244-6.31-.488-8.782-.55-8.652-.182-6.31-1.098 4.684-1.83 24.459-1.648 42.217-2.442 54.512-2.503 9.562 0 12.75-.183 12.23-.671-1.106-1.038-58.09 1.282-70.32 2.807-1.496.245-2.733.245-2.733.123 0-.184 1.562-1.343 3.448-2.625 2.993-2.075 3.773-2.32 6.635-2.197 2.407.122 4.294-.244 6.83-1.343 4.945-2.075 13.791-4.394 18.865-4.883 3.838-.366 9.498.122 13.466 1.221 2.147.55 2.017-1.587-.195-3.662-2.277-2.075-5.594-2.99-10.473-2.686-2.212.061-3.838 0-3.708-.183.13-.244 3.187-1.587 6.765-2.99 5.79-2.32 6.96-3.052 10.408-6.592 2.147-2.197 3.903-4.211 3.903-4.455 0-.794-9.952-.672-12.099.06-.976.367-3.708 2.015-6.05 3.602-2.342 1.648-5.139 3.478-6.245 4.089-1.821 1.098-1.821 1.037.78-2.198 4.23-5.249 5.01-8.178 3.123-11.596-1.04-1.953-2.277-2.441-2.277-.976 0 1.709-2.472 6.225-5.529 10.01-1.691 2.074-6.83 6.896-11.449 10.68-6.7 5.493-8.456 7.202-8.781 8.85-.326 1.526-1.367 2.624-4.88 5.005l-4.488 3.052-7.806.732-7.741.733-2.472-2.503c-5.269-5.249-14.506-7.934-29.663-8.545l-9.628-.366 7.546-2.075c9.693-2.564 15.547-4.883 20.491-8.057 2.472-1.587 4.619-2.502 5.855-2.502 4.293 0 7.806-2.99 7.806-6.53 0-1.405.325-2.015.976-2.015.65 0 .975.61.975 1.71 0 2.074 2.407 4.393 4.49 4.393.845 0 3.317-1.098 5.528-2.502 3.903-2.441 4.033-2.502 8.327-2.197 2.537.183 4.423.122 4.423-.183 0-.367-.846-1.465-1.886-2.564-1.822-1.892-2.212-2.014-7.35-2.32-5.27-.304-5.4-.365-5.4-1.83 0-1.404.325-1.587 3.252-1.892 4.228-.488 4.944-.794 6.57-3.174 1.041-1.465 1.497-3.296 1.757-7.141.195-2.869.585-5.86.845-6.653.39-1.281.326-1.342-.91-.732-.78.366-3.838.916-6.765 1.22-2.993.245-6.115.794-6.896 1.221-1.756.855-3.122 3.296-3.708 6.47-.715 4.028-1.04 4.639-2.146 4.456-.911-.184-1.106-1.038-1.106-4.944v-4.76l-2.732-2.442c-1.497-1.282-3.058-2.38-3.448-2.38-.39 0-.65 2.075-.65 5.37 0 4.761-.196 5.554-1.367 6.592-2.146 1.77-3.317 4.76-2.602 6.592.781 1.83 3.123 3.418 5.074 3.418 2.342 0 1.756.976-1.106 1.77-3.513.976-5.204 3.54-5.204 7.812 0 2.869-.195 3.296-2.081 4.639-6.896 4.883-17.499 8.117-46.772 14.404-18.149 3.906-24.004 5.493-36.753 9.887-5.79 1.953-10.799 3.601-11.124 3.601-.326 0-1.692-1.342-3.123-3.051-1.431-1.648-2.732-3.052-2.927-3.052-.195-.061-1.561-1.099-3.057-2.32l-2.798-2.258 5.855-5.554c5.009-4.821 6.18-5.615 8.456-5.92 2.017-.244 3.513-1.099 6.57-3.723 9.043-7.874 20.492-13.184 28.363-13.184 2.016 0 2.146-.122 1.496-1.22-1.822-3.235-7.806-3.907-13.92-1.526l-3.904 1.465 6.245-5.615c5.66-5.127 6.31-5.982 7.936-10.132.976-2.442 1.626-4.639 1.431-4.76-.455-.428-4.748.976-8.261 2.624-3.318 1.525-4.489 2.746-9.368 9.277-3.252 4.394-5.073 5.86-3.317 2.746 1.301-2.502 2.407-7.812 1.952-9.887-.196-.977-1.366-2.686-2.602-3.784l-2.212-2.015v3.663c0 1.953-.325 4.821-.716 6.347-.715 2.93-5.27 11.963-10.018 19.836-2.016 3.48-2.927 5.555-2.927 7.264 0 2.563-1.886 4.882-8.912 10.925l-3.383 2.93-3.122-1.466c-9.888-4.7-25.305-5.187-40.071-1.403-5.595 1.465-17.109 5.554-18.54 6.591-1.3 1.038-.91.184 1.561-3.234 4.294-6.043 10.474-19.104 9.823-20.935-.13-.367-.91 1.281-1.756 3.6-2.277 6.592-4.88 11.597-8.782 17.151-3.838 5.371-6.765 7.996-12.88 11.414l-3.708 2.136-4.033-1.526c-6.245-2.38-13.986-3.418-22.638-3.051-6.375.244-8.652.671-15.612 2.746-8.457 2.503-16.133 4.15-21.987 4.578-1.822.122-3.383.183-3.383.122s1.821-.794 4.033-1.526c7.156-2.442 13.66-7.141 16.133-11.597 1.951-3.54 9.367-9.399 13.53-10.62 1.041-.366 1.952-.06 3.383 1.038 3.383 2.685 6.895 2.624 11.189-.305 1.691-1.16 2.146-.183.585 1.282-3.252 3.051-.455 7.995 4.424 7.995 3.838 0 5.92.977 9.302 4.394l3.057 3.113.39-2.258c.716-3.357-.065-5.066-3.577-8.24-3.383-3.051-4.033-4.516-2.212-5.188 1.17-.427 2.212.061 3.383 1.526.39.61 1.821 1.404 2.992 1.77 3.318 1.038 6.96-.244 10.343-3.479 1.496-1.465 3.708-3.235 4.879-3.967l2.212-1.282-1.887-.793c-1.04-.488-3.448-2.136-5.4-3.601-5.463-4.273-7.935-4.395-13.725-.61-5.464 3.54-6.31 1.342-1.236-3.235 3.188-2.93 3.253-2.991 3.253-6.714 0-2.075-.26-3.784-.52-3.784-.326 0-1.366.854-2.472 1.892-2.863 2.868-6.766 5.432-7.742 5.066-1.43-.55-5.399.915-6.505 2.38-1.366 1.831-1.236 4.272.326 6.103 1.496 1.77.585 2.93-1.171 1.465-2.017-1.648-3.903-1.77-6.896-.549-1.56.671-3.382 1.953-3.968 2.808-.65.854-2.797 2.44-4.814 3.417-2.016 1.038-4.878 2.93-6.31 4.273l-2.732 2.38.066-4.394c.13-10.681-6.57-18.128-16.198-18.128-2.992 0-8.457 2.259-10.473 4.334-6.245 6.409-3.318 17.639 4.879 18.676 5.204.672 11.188-3.6 11.188-7.934 0-3.357-3.448-7.141-6.505-7.141-1.561 0-5.269 2.014-5.985 3.296-.715 1.282-.715 1.282.846-.061 3.578-3.052 6.96-2.99 9.628.183 2.992 3.6.78 8.362-4.88 10.376-5.203 1.83-9.692-.428-11.383-5.86-1.886-5.859 2.147-12.512 8.717-14.343 1.821-.488 3.903-.915 4.618-.915 4.814 0 10.343 3.54 12.88 8.179 1.887 3.479 2.342 10.803.911 14.83-2.017 5.677-7.546 10.255-16.003 13.245-5.789 2.015-9.562 2.442-13.985 1.587-3.383-.671-3.773-.915-4.684-2.93-.955-2.24-6.836-10.23-8.352-11.533v1.187c1.692 1.266 8.157 10.323 8.157 11.628 0 .61-1.822.122-5.66-1.404-1.137-.468-1.801-.735-2.497-.77v.344l3.408 1.403c5.66 2.32 5.595 2.258 6.505 5.493.456 1.648.846 3.174.846 3.48 0 .915-1.887.365-6.44-1.77l-4.319.594 3.278 1.846c1.951 1.098 4.423 2.38 5.53 2.807 1.495.61 1.95 1.16 1.95 2.441 0 3.48-.454 3.785-3.447 2.32-1.496-.672-3.773-1.892-5.139-2.686L416 95.905v1.08l3.278 1.565c1.951.976 4.228 2.197 5.009 2.808l1.431.976-1.236 2.625c-1.481 2.953-6.475 7.937-8.482 8.439v1.194c1.782-.697 7.53-6.382 8.872-8.9l1.692-3.175c.065-.122 2.146.55 4.553 1.465 13.076 4.883 28.037 7.812 44.625 8.606l8.197.427.715 2.93c.39 1.587 1.171 3.418 1.691 4.028.716.916.716.672-.065-1.16-.52-1.281-.976-3.051-.976-4.028v-1.77l10.539-.305c5.854-.183 10.668-.244 10.798-.183.52.427-1.951 4.028-3.252 4.638-1.887.977-6.18.306-8.522-1.281-1.04-.794-1.821-1.038-1.626-.61.455 1.281 4.553 3.051 7.09 3.051 2.667 0 5.334-1.648 6.766-4.272.975-1.831 1.821-2.075 9.562-2.808l4.294-.366-.586 2.563c-.976 3.906-2.862 6.958-6.05 9.583-6.895 5.676-17.499 5.86-24.459.366-2.147-1.648-2.472-1.77-1.301-.55 3.188 3.358 6.896 4.822 12.62 5.067.952.057 1.906.088 2.86.092zm-18.796-15.778.195-1.953c.195-2.259-.976-1.893 13.205-3.846 6.7-.915 7.156-.915 7.936.061.456.61.846 1.954.846 3.052 0 2.014 0 2.014-3.773 2.259-2.017.122-7.026.244-11.059.305zm-4.071-.066c-1.1 0-2.548-.072-4.451-.178-3.968-.184-10.603-.794-14.832-1.343-12.424-1.526-11.839-1.77 4.424-1.831 8.456-.061 16.067-.244 16.848-.489 1.236-.366 1.496-.244 1.496.794 0 2.38-.183 3.044-3.485 3.047zm27.359-.606c-.26 0-.456-1.037-.456-2.319 0-1.343-.325-2.625-.65-2.808-.39-.183-.65-.549-.65-.793 0-.55 12.944-2.808 13.4-2.38.195.183.52 1.83.715 3.662l.39 3.357-6.114.549c-3.383.366-6.31.671-6.635.732zm14.75-1.82c-1.356-.017-1.399-.438-1.74-3.429-.195-1.953-.325-3.6-.195-3.662.065-.122 3.773-1.037 8.261-2.075 16.458-3.784 40.397-10.681 58.22-16.723l6.18-2.137.976 2.198c.52 1.22 1.171 3.906 1.366 5.981l.39 3.845-4.162 1.282c-19.06 5.798-58.936 14.343-68.63 14.71-.222.008-.443.011-.665.01zm-55.949-1.46c-1.5-.004-3.068-.03-4.792-.076-3.773-.123-9.042-.306-11.71-.367-5.659-.06-9.692-.976-18.018-3.967l-6.05-2.197.39-2.503c.26-1.342.52-2.563.586-2.685.065-.061 1.17.244 2.407.732 5.008 2.014 15.156 3.418 24.133 3.418 18.15 0 35.128-4.455 50.805-13.305l3.903-2.198 2.732 2.93c2.862 2.93 8.327 12.207 7.871 13.428-.325.854-13.4 3.357-13.92 2.624-.781-1.16-7.156-3.479-9.628-3.479-3.708 0-7.676 1.892-9.367 4.456-1.301 2.014-1.692 2.197-5.465 2.502-5.513.504-9.38.698-13.877.687zm19.984-.985c-.364.016-.707-.274-.707-.617 0-.367.975-1.587 2.146-2.686 2.667-2.502 6.05-3.235 10.213-2.197 2.993.732 6.18 2.38 5.66 2.868-.26.245-14.832 2.503-17.239 2.625a.597.597 0 0 1-.073.007zm33.685-5.499c-.216-.028-.847-1.396-1.477-2.992-1.43-3.662-5.204-9.338-8.066-12.024l-2.082-1.953 3.903-3.479c2.147-1.892 4.034-3.906 4.229-4.516.455-1.282 5.984-4.15 13.01-6.714 15.092-5.432 33.956-5.92 47.487-1.16l3.773 1.343-1.561 1.16c-3.383 2.502-20.166 12.756-26.28 16.052-11.97 6.47-29.208 13.977-32.916 14.282a.045.045 0 0 1-.02.001zm11.273-2.442c-.065 0-.13-.061-.13-.306 0-.183 1.041-.732 2.342-1.22 8.457-3.357 31.55-15.93 41.372-22.583l6.57-4.456 2.798 1.77c3.057 2.014 8.066 7.08 8.066 8.24 0 1.098-43.91 14.526-59.522 18.188-.715.122-1.366.306-1.496.367zm-81.14-3.092c-2.955-.01-5.824-.197-8.955-.57-3.188-.367-7.741-1.1-10.083-1.649l-4.358-1.037-.78-3.052c-1.237-5.127-1.237-5.188 1.56-4.394 3.838 1.037 16.068.793 22.313-.428 2.992-.61 9.172-2.258 13.66-3.6 8.001-2.442 8.262-2.503 17.564-2.503 9.562 0 15.027.793 20.621 3.052l2.472.976-3.903 1.831c-9.823 4.7-25.24 9.033-37.534 10.56-4.83.548-8.775.828-12.576.814zm241.752-1.53c-2.087.023-4.447-.376-7.222-1.177-4.098-1.22-8.066-3.479-15.222-8.789-3.773-2.746-5.854-4.7-5.399-4.943.455-.184 2.537-.55 4.684-.794 2.146-.244 9.887-1.099 17.238-1.953 17.239-1.892 16.653-1.892 17.499.427 2.017 5.554-.325 12.451-5.334 15.503-1.866 1.135-3.88 1.701-6.244 1.726zm-91.463-2.214-1.821-4.944c-.976-2.747-1.951-5.371-2.147-5.92-.26-.733 1.887-1.71 10.604-4.7 13.14-4.456 16.002-5.249 34.021-9.338l13.986-3.113 12.36-.061c16.588 0 25.5 1.892 31.42 6.652 3.902 3.113 3.642 3.662-2.343 4.212-2.732.244-11.709 1.16-19.84 2.136l-14.897 1.71-3.122-1.71c-3.773-2.075-8.457-3.662-10.864-3.662-4.033 0-8.261 2.99-11.579 8.179-.455.732-3.057 1.525-7.806 2.502-3.968.793-11.84 2.93-17.564 4.76zm37.21-9.644c-.26 0-.456-.305-.456-.732 0-1.648 4.554-5.86 7.48-6.836 2.473-.916 3.384-.977 5.986-.305 3.317.732 9.497 3.662 8.976 4.15-.26.244-10.277 1.953-21.987 3.723zm137.192 16.174c5.594-2.563 4.488-10.315-2.017-14.343-5.855-3.662-20.491-7.324-32.2-8.117-3.903-.306-3.253-.122 3.252.854 16.653 2.441 26.736 5.676 31.225 10.07 2.016 1.954 2.277 2.564 2.277 5.555 0 2.869-.26 3.6-1.562 4.577-1.691 1.282-5.269 1.526-7.285.489-1.952-.916-2.732-3.48-1.822-5.554.586-1.404 1.171-1.71 2.862-1.71 1.236 0 2.668.428 3.188.977 1.236 1.099 1.236 1.22.39 2.747-.78 1.281-2.602 1.526-3.773.427-.585-.55-.78-.55-.78 0 0 1.282 3.187 1.587 4.553.427 2.342-2.014 1.041-4.638-2.732-5.493-1.366-.305-2.147-.06-3.383 1.16-2.211 2.014-2.146 4.15.066 6.408 2.276 2.259 5.074 2.808 7.74 1.526zm35.843-14.709c.455-.183.845-1.099.845-2.075 0-4.639-5.464-9.522-11.904-10.62-2.017-.366-2.407-.244-2.407.55 0 1.22 2.212 5.431 4.163 7.873 2.212 2.807 7.156 5.065 9.303 4.272zm15.612-11.23c3.578-.977 5.594-4.517 4.358-7.569-.585-1.464-3.773-2.746-6.635-2.746-4.814 0-17.499 4.76-17.238 6.408.13.916 9.757 3.846 13.855 4.212 1.952.183 4.489.06 5.66-.305zm-24.654-6.409c3.838-1.77 6.18-4.333 7.155-7.751.716-2.503.065-5.31-1.17-5.31-1.822 0-5.205 1.953-6.766 3.845-1.952 2.38-4.293 7.63-4.293 9.582 0 1.587 1.04 1.526 5.074-.366zm-262.35-22.094c4.683-1.831 7.48-3.846 8.846-6.348 1.887-3.479 1.497-5.005-1.366-5.249-3.707-.305-7.87 2.625-10.343 7.263-1.106 2.075-2.016 4.15-2.016 4.639 0 1.037 1.691.976 4.879-.305zm-8.132.061c0-1.71-2.927-7.08-4.618-8.545-2.212-1.892-6.31-3.418-8.132-2.99-1.951.487-2.081 2.929-.325 5.614 2.992 4.578 13.075 9.094 13.075 5.92zm3.839-11.17c2.146-4.272 3.967-10.253 3.967-12.878 0-6.287-6.83-9.643-10.213-4.944-2.341 3.296-.91 12.756 3.058 19.653l1.17 2.137z" style="fill:#09bf89"/>
  <path style="fill:#bf2e09;stroke:#bf8909;stroke-width:.5" d="M415.086 33.464c-2.947-1.032-6.002-3.47-6.138-7.603-.154-4.68 4.343-16.046 8.99-22.952-2.236 14.214 3.947 13.958 4.858 22.952.337 3.326-2.91 7.715-6.042 7.872a2.975 2.975 0 0 1-.195.004 1.822 1.822 0 0 0 1.38-1.734c.014-.722-2.114-3.549-1.71-6.868-.92 2.43-2.015 5.68-1.92 6.812.053.624.3 1.183.777 1.517zm1.042-26.115c.017.014.037.026.043.079-.282 3.683-.153 7.407 1.624 10.713.848 1.579 1.973 2.997 2.775 4.598a13.516 13.516 0 0 1 1.288 3.974c.251 1.635-.3 3.401-1.327 4.69-.154.194-.807.825-1.577 1.326.618-.402 1.31-1.225 1.467-1.452.928-1.35 1.542-3.02 1.262-4.626-.323-1.803-1.005-3.531-1.978-5.127-.88-1.441-1.89-2.808-2.568-4.361-1.267-2.91-1.372-6.205-1.155-9.38-1.972 3.58-3.482 7.507-4.628 11.517-.654 2.285-1.239 4.606-1.327 6.982-.06 1.592.235 3.28 1.32 4.486.682.759 2.455 2.059 2.75 2.128-.13-.03-1.767-.82-2.777-1.9-1.085-1.16-1.43-2.627-1.462-4.098-.038-1.827.335-3.646.76-5.44a57.977 57.977 0 0 1 4.135-11.636c.384-.801.79-1.592 1.225-2.369 0 0 .034-.14.15-.105z"/>
  <path style="fill:#09bf89" d="M424.035 37.152a1.523 1.523 0 0 0-2.368-1.266c-1.983 1.33-4.416 2.176-5.785 1.758-2.106-.644-4.435-2.266-6.4-2.578a1.521 1.521 0 0 0-1.75 1.504c-.002 7.057-.002 53.781-.002 53.781-.495 3.032-7.769 4.563-12.575 5.287a.182.182 0 0 0 .027.362h31.412a.405.405 0 0 0 .202-.757c-1.36-.786-2.306-2.173-2.76-4.273z"/>
  <path style="fill:#09bf89;stroke:#08a778;stroke-width:.40000001" d="M407.716 39.32c.2 2.32-1.273 3.768-1.284 5.387a1.25 1.25 0 0 0 2.5.016c.01-1.618-.69-3.618-1.216-5.404zm.034 48.957c-.349 1.693-2.097 2.235-2.484 3.367a1.264 1.264 0 0 0 2.391.816c.386-1.133.228-2.899.092-4.183zm16.228-.71c-.122 2.292.794 3.78.857 4.367a.893.893 0 0 1-.7.954.722.722 0 0 1-.872-.644c-.063-.587.315-2.739.715-4.677z"/>
</svg>
