<svg id="slava-ks01" xmlns="http://www.w3.org/2000/svg" xml:lang="cu" lang="cu" viewBox="0 0 832 128"  style="border:solid">
<title>Слава. Молитвы по завершении чтения Кафизмы первой. </title>
<!-- <text x="368" y="315" style="font-size:15px;font-family: 'Ponomar Unicode'; text-anchor:middle;fill:#cc3300;">Читает иеродиакон Герман (Рябцев)</text> -->
<path d="M407.797 46.562v4.785h16.5l-.156-19.205v-2.29c0-.495-.31-.95-.804-1.183a1.699 1.699 0 0 0-1.563.067c-1.982 1.17-4.416 1.915-5.785 1.546-2.106-.566-4.435-1.992-6.4-2.266-.432-.06-.87.05-1.22.307-.337.254-.53.625-.53 1.016v8.292c-.14-.508-.273-.97-.408-1.5.486 3.507-1.605 5.876-1.102 8.113.158.704.872 1.073 1.508 1.143v1.12c-.01.017-.03.04-.04.055" style="fill:#33ffcc"/>
<path d="M419 1c-4.647 6.078-9.144 16.079-8.99 20.196.136 3.637 3.19 5.783 6.138 6.69-.477-.293-.724-.784-.777-1.333-.095-.997.998-3.857 1.918-5.994-.404 2.92 1.726 5.407 1.71 6.042-.017.74-.6 1.357-1.38 1.526.066 0 .131 0 .197-.003 3.132-.138 6.379-4 6.04-6.928-.91-7.914-7.092-7.688-4.856-20.195z" style="fill:#cc3300"/>
<path style="fill:#ffb380" d="M416.206 50.191c-13.751-2.343-43.36-8.717-59.948-9.416l-8.197-.375-.715-2.577c-.39-1.397-1.172-3.01-1.692-3.546-.716-.806-.714-.591.067 1.021.52 1.127.974 2.686.974 3.545V40.4l-10.539.269c-5.854.16-10.667.215-10.797.161-.52-.376 1.951-3.545 3.252-4.082 1.887-.86 6.18-.269 8.522 1.128 1.04.699 1.822.913 1.627.536-.455-1.127-4.553-2.684-7.09-2.684-2.667 0-5.336 1.45-6.768 3.758-.975 1.611-1.82 1.827-9.56 2.472l-4.295.32.586-2.254c.976-3.437 2.863-6.121 6.05-8.431 6.896-4.995 17.5-5.158 24.46-.323 2.147 1.45 2.471 1.558 1.3.484-3.188-2.954-6.897-4.242-12.62-4.458a58.284 58.284 0 0 0-2.858-.08h-.002c-2.38.008-3.565.31-5.662 1.154-4.228 1.665-8.913 5.855-10.344 9.238-.65 1.504-1.364 3.167-1.69 3.812-.454.913-1.496 1.182-6.57 1.72-13.79 1.504-36.82 5.799-56.855 10.58-5.53 1.341-10.343 2.416-10.668 2.416-.976 0 1.04-6.23 3.187-9.667 2.602-4.243 5.985-7.25 10.018-9.023 2.733-1.181 4.164-1.449 8.197-1.395 4.163 0 5.53.213 9.108 1.663 2.342.914 5.204 2.204 6.375 2.848 3.122 1.772 2.536.43-.977-2.148-5.464-3.975-8.781-5.103-15.156-5.103-4.943 0-6.05.215-9.823 1.719-8.717 3.545-15.548 11.708-16.068 19.066-.13 2.04-.326 3.65-.39 3.65-.066 0-4.944 1.343-10.864 3.008-9.822 2.739-20.1 4.995-22.834 5.049-.975 0-1.17-.537-1.17-3.437 0-3.868-1.43-6.176-5.138-8.217-2.927-1.665-8.587-1.719-11.645-.161-3.447 1.718-5.27 6.982-3.187 9.13 2.797 2.953 8.457 3.65 11.189 1.34 2.146-1.718 2.146-4.187 0-5.906-1.627-1.343-5.53-1.879-5.53-.75 0 .267.325.375.716.214.91-.483 3.579.107 4.75 1.127 2.602 2.095-.068 6.122-4.036 6.122-3.057 0-6.505-1.718-7.025-3.544-.585-1.934.717-5.102 2.668-6.66 1.171-.912 2.603-1.342 5.14-1.503 6.375-.43 10.731 2.417 11.317 7.465.52 4.834.326 5.048-6.504 6.069-4.18.599-8.364 1.154-12.555 1.665l-6.441.751-2.342-1.395c-1.236-.806-4.616-3.008-7.478-4.888-9.043-6.014-17.372-8.486-23.682-7.09-3.837.86-8 4.352-9.105 7.681-.781 2.202-.781 6.55 0 8.968.195.697-.847.806-6.57.806-3.774 0-10.93-.16-15.938-.322-5.14-.214-7.286-.161-4.88.054 2.343.214 6.31.428 8.782.483 8.652.16 6.31.966-4.683 1.61-24.46 1.45-42.217 2.15-54.512 2.203-9.562 0-12.75.16-12.23.59 1.105.913 58.09-1.128 70.32-2.47 1.496-.216 2.732-.216 2.732-.108 0 .162-1.561 1.181-3.447 2.31-2.993 1.825-3.773 2.041-6.635 1.933-2.407-.107-4.294.215-6.83 1.182-4.945 1.826-13.791 3.866-18.865 4.297-3.838.322-9.497-.107-13.465-1.074-2.147-.484-2.019 1.396.193 3.222 2.277 1.826 5.596 2.63 10.475 2.363 2.212-.054 3.837 0 3.707.162-.13.214-3.188 1.394-6.766 2.629-5.79 2.041-6.96 2.687-10.408 5.802-2.147 1.933-3.902 3.705-3.902 3.92 0 .699 9.952.59 12.1-.053.975-.323 3.706-1.773 6.048-3.17 2.342-1.45 5.14-3.06 6.246-3.598 1.821-.966 1.82-.913-.781 1.933-4.23 4.619-5.01 7.198-3.123 10.205 1.04 1.719 2.277 2.147 2.277.858 0-1.504 2.473-5.477 5.53-8.808 1.69-1.825 6.83-6.068 11.449-9.397 6.7-4.834 8.456-6.337 8.781-7.787.326-1.343 1.366-2.31 4.879-4.405l4.488-2.684 7.807-.645 7.74-.644 2.473 2.201c5.269 4.619 14.507 6.982 29.664 7.52l9.627.32-7.545 1.827c-9.693 2.256-15.548 4.297-20.492 7.09-2.472 1.396-4.62 2.201-5.856 2.201-4.293 0-7.804 2.63-7.804 5.745 0 1.237-.326 1.774-.977 1.774-.65 0-.975-.536-.975-1.504 0-1.825-2.407-3.867-4.49-3.867-.845 0-3.316.966-5.527 2.202-3.903 2.148-4.034 2.202-8.328 1.933-2.537-.16-4.422-.107-4.422.162 0 .323.845 1.29 1.885 2.256 1.822 1.665 2.211 1.773 7.35 2.042 5.27.267 5.4.321 5.4 1.61 0 1.236-.325 1.395-3.252 1.664-4.228.43-4.945.698-6.57 2.793-1.042 1.289-1.497 2.901-1.757 6.284-.195 2.525-.585 5.156-.845 5.854-.39 1.127-.326 1.181.91.644.78-.322 3.839-.806 6.766-1.074 2.993-.215 6.113-.698 6.894-1.074 1.756-.752 3.123-2.9 3.709-5.694.715-3.544 1.04-4.08 2.147-3.92.91.162 1.105.913 1.105 4.35v4.188l2.732 2.15c1.497 1.128 3.058 2.093 3.448 2.093.39 0 .65-1.825.65-4.724 0-4.19.196-4.887 1.367-5.8 2.146-1.558 3.317-4.19 2.602-5.802-.781-1.61-3.123-3.008-5.074-3.008-2.342 0-1.757-.858 1.105-1.557 3.513-.858 5.205-3.115 5.205-6.874 0-2.524.194-2.9 2.08-4.082 6.896-4.296 17.5-7.142 46.774-12.674 18.149-3.437 24.003-4.833 36.752-8.7 5.79-1.718 10.8-3.167 11.125-3.167.326 0 1.692 1.18 3.123 2.684 1.43 1.45 2.73 2.685 2.925 2.685.195.054 1.561.967 3.057 2.042l2.799 1.986-5.856 4.888c-5.009 4.242-6.179 4.94-8.455 5.209-2.017.215-3.513.967-6.57 3.276-9.043 6.928-20.492 11.6-28.363 11.6-2.016 0-2.146.108-1.496 1.074 1.822 2.847 7.806 3.437 13.92 1.342l3.904-1.289-6.244 4.941c-5.66 4.512-6.312 5.265-7.938 8.916-.976 2.149-1.624 4.082-1.43 4.188.456.377 4.747-.86 8.26-2.31 3.318-1.341 4.49-2.416 9.37-8.163 3.251-3.866 5.072-5.156 3.316-2.416-1.301 2.202-2.406 6.875-1.951 8.701.196.86 1.365 2.363 2.601 3.33l2.211 1.773v-3.224c0-1.719.326-4.241.717-5.584.715-2.578 5.27-10.526 10.018-17.454 2.016-3.062 2.927-4.89 2.927-6.393 0-2.255 1.886-4.295 8.912-9.612l3.383-2.578 3.121 1.289c9.888 4.136 25.307 4.565 40.073 1.236 5.595-1.29 17.108-4.888 18.539-5.8 1.3-.914.91-.162-1.56 2.845-4.295 5.318-10.474 16.81-9.823 18.42.13.323.91-1.127 1.756-3.167 2.277-5.8 4.879-10.204 8.781-15.091 3.838-4.726 6.766-7.036 12.88-10.043l3.708-1.88 4.033 1.343c6.245 2.095 13.987 3.008 22.639 2.685 6.375-.215 8.651-.59 15.611-2.417 8.457-2.202 16.132-3.651 21.986-4.028 1.822-.107 3.383-.162 3.383-.108 0 .054-1.821.7-4.033 1.344-7.156 2.149-13.66 6.282-16.133 10.203-1.95 3.115-9.366 8.271-13.53 9.346-1.04.322-1.95.052-3.382-.915-3.383-2.362-6.895-2.307-11.19.27-1.69 1.02-2.144.16-.583-1.129 3.252-2.685.455-7.034-4.424-7.034-3.838 0-5.92-.86-9.303-3.867l-3.057-2.74-.39 1.987c-.716 2.954.064 4.458 3.576 7.251 3.383 2.685 4.034 3.973 2.213 4.565-1.17.375-2.212-.054-3.383-1.343-.39-.536-1.821-1.235-2.992-1.557-3.318-.913-6.96.215-10.344 3.061-1.496 1.29-3.708 2.847-4.879 3.49l-2.21 1.13 1.886.697c1.04.43 3.448 1.879 5.4 3.168 5.463 3.76 7.935 3.868 13.725.538 5.464-3.115 6.31-1.182 1.236 2.846-3.188 2.578-3.254 2.632-3.254 5.908 0 1.826.262 3.33.522 3.33.326 0 1.365-.753 2.47-1.666 2.864-2.524 6.767-4.78 7.743-4.458 1.43.484 5.4-.804 6.506-2.093 1.366-1.612 1.235-3.76-.327-5.371-1.496-1.557-.586-2.578 1.17-1.289 2.017 1.45 3.904 1.557 6.897.483 1.56-.59 3.383-1.719 3.969-2.471.65-.752 2.795-2.146 4.812-3.006 2.016-.914 4.879-2.579 6.31-3.76l2.733-2.094-.066 3.865c-.13 9.399 6.57 15.952 16.199 15.952 2.992 0 8.457-1.987 10.473-3.813 6.245-5.64 3.318-15.52-4.88-16.433-5.203-.592-11.189 3.167-11.189 6.98 0 2.954 3.45 6.284 6.506 6.284 1.561 0 5.268-1.771 5.984-2.9.715-1.128.716-1.128-.845.054-3.578 2.685-6.96 2.63-9.627-.162-2.992-3.167-.781-7.357 4.879-9.129 5.203-1.61 9.692.376 11.383 5.156 1.886 5.155-2.147 11.01-8.717 12.621-1.821.43-3.902.804-4.617.804-4.814 0-10.344-3.115-12.881-7.197-1.887-3.061-2.341-9.506-.91-13.05 2.017-4.994 7.544-9.022 16.001-11.653 5.79-1.773 9.564-2.15 13.987-1.397 3.383.59 3.772.806 4.683 2.58.955 1.97 6.836 9.001 8.352 10.148 1.516-1.147 7.397-8.178 8.352-10.149.91-1.773 1.3-1.989 4.683-2.58 4.423-.751 8.197-.375 13.986 1.398 8.457 2.631 13.985 6.659 16.002 11.654 1.431 3.543.977 9.988-.91 13.049-2.537 4.082-8.067 7.197-12.88 7.197-.716 0-2.797-.375-4.618-.804-6.57-1.611-10.603-7.466-8.717-12.621 1.691-4.78 6.18-6.766 11.383-5.156 5.66 1.772 7.871 5.962 4.88 9.13-2.669 2.791-6.05 2.846-9.628.16-1.56-1.181-1.56-1.18-.846-.053.716 1.129 4.424 2.9 5.985 2.9 3.057 0 6.506-3.33 6.506-6.283 0-3.814-5.986-7.573-11.19-6.981-8.197.912-11.124 10.793-4.879 16.433 2.016 1.826 7.481 3.813 10.473 3.813 9.628 0 16.33-6.553 16.2-15.952l-.067-3.865 2.732 2.094c1.432 1.181 4.295 2.846 6.31 3.76 2.018.86 4.163 2.254 4.813 3.006.586.752 2.409 1.88 3.969 2.471 2.993 1.074 4.88.967 6.897-.483 1.756-1.289 2.665-.268 1.17 1.289-1.563 1.611-1.693 3.76-.327 5.37 1.106 1.29 5.076 2.578 6.506 2.094.976-.322 4.88 1.934 7.742 4.458 1.106.913 2.145 1.665 2.471 1.665.26 0 .522-1.503.522-3.329 0-3.276-.066-3.33-3.254-5.908-5.074-4.028-4.228-5.961 1.236-2.846 5.79 3.33 8.262 3.222 13.725-.538 1.952-1.29 4.36-2.738 5.4-3.168l1.887-.697-2.211-1.13c-1.171-.643-3.383-2.2-4.88-3.49-3.382-2.846-7.025-3.974-10.343-3.06-1.17.321-2.602 1.02-2.992 1.556-1.171 1.29-2.213 1.718-3.383 1.343-1.82-.592-1.17-1.88 2.213-4.565 3.512-2.793 4.292-4.297 3.576-7.25l-.39-1.987-3.057 2.74c-3.382 3.006-5.465 3.866-9.303 3.866-4.879 0-7.676 4.35-4.424 7.034 1.561 1.29 1.107 2.15-.584 1.13-4.294-2.578-7.806-2.633-11.19-.27-1.43.966-2.341 1.236-3.382.914-4.163-1.075-11.578-6.231-13.53-9.346-2.472-3.92-8.976-8.054-16.132-10.203-2.212-.644-4.033-1.29-4.033-1.344 0-.054 1.56 0 3.383.108 5.854.377 13.529 1.826 21.986 4.028 6.96 1.826 9.236 2.202 15.611 2.417 8.652.323 16.394-.59 22.639-2.685l4.033-1.344 3.707 1.88c6.115 3.008 9.043 5.318 12.88 10.044 3.903 4.887 6.505 9.29 8.782 15.09.846 2.041 1.626 3.491 1.756 3.168.651-1.61-5.528-13.102-9.822-18.42-2.471-3.007-2.86-3.759-1.56-2.846 1.43.913 12.943 4.512 18.538 5.8 14.766 3.33 30.185 2.9 40.073-1.235l3.12-1.289 3.383 2.578c7.026 5.317 8.913 7.357 8.913 9.612 0 1.504.911 3.331 2.927 6.393 4.748 6.928 9.303 14.876 10.018 17.454.39 1.343.717 3.865.717 5.584v3.224l2.21-1.774c1.237-.966 2.406-2.47 2.602-3.329.455-1.826-.65-6.5-1.951-8.7-1.756-2.741.064-1.45 3.316 2.415 4.88 5.747 6.052 6.822 9.37 8.164 3.513 1.45 7.804 2.686 8.26 2.31.194-.107-.454-2.04-1.43-4.189-1.626-3.651-2.278-4.404-7.938-8.916l-6.244-4.94 3.904 1.288c6.114 2.095 12.098 1.505 13.92-1.342.65-.966.52-1.074-1.496-1.074-7.87 0-19.32-4.672-28.363-11.6-3.057-2.31-4.553-3.061-6.57-3.276-2.276-.268-3.447-.967-8.456-5.21l-5.855-4.887 2.799-1.986c1.496-1.075 2.861-1.988 3.056-2.042.195 0 1.495-1.234 2.926-2.685 1.431-1.503 2.797-2.684 3.123-2.684.325 0 5.335 1.449 11.125 3.167 12.75 3.867 18.603 5.263 36.752 8.7 29.273 5.532 39.878 8.378 46.774 12.674 1.886 1.182 2.08 1.558 2.08 4.082 0 3.759 1.692 6.016 5.205 6.874 2.862.699 3.447 1.557 1.105 1.557-1.95 0-4.293 1.398-5.074 3.008-.715 1.612.456 4.244 2.602 5.802 1.17.913 1.367 1.61 1.367 5.8 0 2.9.26 4.724.65 4.724s1.95-.965 3.447-2.093l2.733-2.15v-4.188c0-3.437.194-4.188 1.105-4.35 1.106-.16 1.432.376 2.147 3.92.586 2.793 1.953 4.942 3.709 5.694.78.376 3.901.859 6.894 1.074 2.927.268 5.986.752 6.766 1.074 1.236.537 1.3.483.91-.644-.26-.698-.65-3.33-.846-5.854-.26-3.383-.714-4.995-1.755-6.285-1.626-2.094-2.343-2.363-6.57-2.792-2.928-.269-3.253-.428-3.253-1.664 0-1.289.13-1.343 5.4-1.61 5.139-.27 5.528-.377 7.35-2.042 1.04-.967 1.885-1.933 1.885-2.256 0-.269-1.885-.323-4.422-.162-4.294.269-4.425.215-8.328-1.933-2.21-1.236-4.682-2.202-5.527-2.202-2.083 0-4.49 2.042-4.49 3.867 0 .968-.325 1.504-.975 1.504-.651 0-.977-.537-.977-1.774 0-3.115-3.511-5.745-7.804-5.745-1.236 0-3.384-.805-5.856-2.201-4.944-2.793-10.799-4.834-20.492-7.09l-7.545-1.826 9.627-.322c15.157-.537 24.395-2.9 29.664-7.519l2.473-2.201 7.74.644 7.807.645 4.488 2.684c3.513 2.095 4.553 3.062 4.879 4.405.325 1.45 2.081 2.953 8.781 7.787 4.62 3.33 9.758 7.572 11.45 9.397 3.056 3.33 5.529 7.304 5.529 8.808 0 1.289 1.237.86 2.277-.858 1.887-3.007 1.107-5.586-3.123-10.205-2.601-2.846-2.602-2.9-.781-1.933 1.106.537 3.904 2.148 6.246 3.599 2.342 1.396 5.073 2.846 6.049 3.169 2.147.644 12.1.752 12.1.053 0-.215-1.756-1.987-3.903-3.92-3.448-3.115-4.618-3.76-10.408-5.802-3.578-1.235-6.636-2.415-6.766-2.63-.13-.16 1.495-.215 3.707-.161 4.879.267 8.198-.537 10.475-2.363 2.212-1.826 2.34-3.706.193-3.222-3.968.967-9.627 1.396-13.465 1.074-5.074-.43-13.92-2.47-18.865-4.297-2.536-.967-4.423-1.29-6.83-1.182-2.862.108-3.642-.108-6.635-1.934-1.886-1.128-3.447-2.147-3.447-2.31 0-.107 1.236-.107 2.732.109 12.23 1.342 69.215 3.383 70.32 2.47.52-.43-2.668-.59-12.23-.59-12.295-.054-30.053-.753-54.512-2.203-10.994-.644-13.335-1.45-4.683-1.61 2.472-.055 6.439-.269 8.781-.483 2.407-.215.26-.268-4.879-.054-5.009.161-12.164.322-15.937.322-5.724 0-6.766-.109-6.57-.806.78-2.417.78-6.766 0-8.968-1.107-3.33-5.27-6.82-9.106-7.68-6.31-1.397-14.639 1.075-23.682 7.089-2.862 1.88-6.242 4.082-7.478 4.888l-2.342 1.395-6.442-.75a605.579 605.579 0 0 1-12.554-1.666c-6.83-1.02-7.024-1.235-6.504-6.069.586-5.048 4.942-7.894 11.316-7.465 2.538.161 3.97.591 5.14 1.504 1.952 1.557 3.254 4.725 2.669 6.66-.52 1.825-3.969 3.543-7.026 3.543-3.968 0-6.637-4.027-4.035-6.122 1.171-1.02 3.84-1.61 4.75-1.127.391.161.715.053.715-.215 0-1.128-3.902-.592-5.53.751-2.145 1.719-2.145 4.188 0 5.907 2.733 2.31 8.393 1.612 11.19-1.34 2.082-2.15.26-7.413-3.187-9.131-3.058-1.558-8.718-1.504-11.645.161-3.708 2.04-5.138 4.35-5.138 8.217 0 2.9-.195 3.437-1.17 3.437-2.733-.054-13.012-2.31-22.834-5.05-5.92-1.664-10.799-3.007-10.864-3.007-.065 0-.26-1.61-.39-3.65-.52-7.358-7.352-15.52-16.069-19.066-3.772-1.504-4.879-1.719-9.822-1.719-6.375 0-9.692 1.128-15.156 5.103-3.513 2.577-4.099 3.92-.977 2.148 1.171-.644 4.033-1.934 6.375-2.848 3.577-1.45 4.945-1.663 9.108-1.663 4.033-.054 5.464.214 8.197 1.395 4.033 1.772 7.416 4.78 10.018 9.023 2.147 3.437 4.163 9.667 3.187 9.667-.325 0-5.139-1.075-10.668-2.417-20.036-4.78-43.065-9.075-56.855-10.58-5.074-.537-6.116-.806-6.57-1.72-.326-.644-1.04-2.307-1.69-3.811-1.431-3.383-6.116-7.573-10.344-9.238-2.097-.845-3.281-1.146-5.662-1.154h-.002c-.953.003-1.906.03-2.857.08-5.724.216-9.433 1.504-12.621 4.458-1.171 1.074-.847.966 1.3-.484 6.96-4.835 17.564-4.672 24.46.323 3.187 2.31 5.074 4.994 6.05 8.431l.586 2.255-4.295-.321c-7.74-.645-8.585-.86-9.56-2.472-1.432-2.309-4.101-3.758-6.768-3.758-2.537 0-6.635 1.557-7.09 2.684-.195.377.587.163 1.627-.536 2.342-1.397 6.635-1.987 8.522-1.128 1.3.537 3.772 3.706 3.252 4.082-.13.054-4.943 0-10.797-.161l-10.54-.269v-1.557c0-.86.455-2.418.975-3.545.781-1.612.783-1.827.067-1.02-.52.536-1.302 2.148-1.692 3.545l-.715 2.577-8.197.375c-16.588.699-44.519 6.092-59.536 9.416m-69.446-9.093-.196 1.719c-.195 1.988.976 1.665-13.205 3.384-6.7.805-7.155.805-7.935-.054-.456-.536-.846-1.72-.846-2.686 0-1.772 0-1.773 3.773-1.988 2.017-.107 7.026-.215 11.059-.268zm138.48 0 7.35.107c4.033.053 9.041.16 11.058.268 3.773.215 3.774.216 3.774 1.988 0 .966-.39 2.15-.846 2.686-.78.86-1.235.859-7.935.054-14.181-1.719-13.01-1.396-13.206-3.384zm-134.41.059c1.1 0 2.548.063 4.451.156 3.968.162 10.603.698 14.832 1.18 12.424 1.343 11.84 1.56-4.424 1.613-8.456.053-16.066.214-16.847.43-1.236.321-1.496.215-1.496-.698 0-2.095.182-2.679 3.484-2.681zm130.34 0c3.302.002 3.484.586 3.484 2.68 0 .914-.26 1.02-1.496.698-.78-.215-8.392-.376-16.848-.43-16.263-.053-16.847-.269-4.423-1.611 4.229-.483 10.864-1.02 14.832-1.181 1.903-.093 3.35-.156 4.45-.156zm-157.697.532c.26 0 .455.912.455 2.04 0 1.182.325 2.31.65 2.472.39.16.65.483.65.697 0 .484-12.944 2.472-13.4 2.095-.195-.16-.52-1.61-.715-3.222l-.39-2.954 6.115-.483c3.383-.322 6.31-.59 6.635-.645zm185.054 0c.325.054 3.252.323 6.635.645l6.115.483-.39 2.954c-.195 1.612-.52 3.061-.715 3.222-.456.377-13.4-1.61-13.4-2.095 0-.214.26-.536.65-.697.325-.161.65-1.29.65-2.472 0-1.128.195-2.04.455-2.04zm-199.806 1.602h.002c1.356.015 1.399.384 1.74 3.016.195 1.719.323 3.168.193 3.223-.065.107-3.771.913-8.26 1.826-16.457 3.33-40.397 9.398-58.22 14.715l-6.18 1.88-.976-1.933c-.52-1.074-1.17-3.439-1.366-5.264l-.39-3.383 4.162-1.129c19.06-5.101 58.937-12.62 68.63-12.942.222-.007.443-.01.665-.009zm214.556 0h.002c.222-.001.443.002.664.009 9.694.323 49.571 7.84 68.631 12.942l4.162 1.13-.39 3.382c-.195 1.825-.845 4.19-1.365 5.264l-.977 1.933-6.18-1.88c-17.823-5.317-41.762-11.385-58.22-14.715-4.488-.913-8.195-1.72-8.26-1.826-.13-.055-.002-1.504.193-3.223.341-2.632.384-3 1.74-3.016zm-158.605 1.284c1.5.003 3.067.026 4.79.067 3.774.108 9.044.27 11.712.323 5.659.053 9.691.859 18.017 3.49 6.215 1.848 6.592.886 5.075 6.498-.065.054-1.172-.213-2.409-.642-5.008-1.772-15.155-3.008-24.132-3.008-18.15 0-35.128 3.92-50.805 11.707l-3.902 1.934-2.733-2.578c-2.862-2.578-8.327-10.741-7.87-11.816.324-.751 13.399-2.954 13.919-2.31.781 1.021 7.157 3.063 9.629 3.063 3.708 0 7.674-1.666 9.365-3.922 1.301-1.772 1.694-1.933 5.467-2.201 5.513-.444 9.38-.615 13.877-.605zm102.656 0c4.497-.01 8.364.161 13.877.605 3.773.268 4.166.43 5.467 2.201 1.69 2.256 5.657 3.922 9.365 3.922 2.472 0 8.848-2.042 9.629-3.062.52-.645 13.595 1.558 13.92 2.31.456 1.074-5.01 9.237-7.871 11.815l-2.733 2.578-3.902-1.934c-15.677-7.787-32.655-11.707-50.805-11.707-8.977 0-19.124 1.236-24.132 3.008-1.237.43-2.344.696-2.409.642-1.734-5.576-.79-4.623 5.075-6.498 8.326-2.631 12.358-3.437 18.017-3.49 2.668-.054 7.938-.215 11.711-.323a225.71 225.71 0 0 1 4.791-.067zm-122.648.868h.008c.364-.014.707.241.707.543 0 .323-.976 1.396-2.147 2.363-2.667 2.201-6.05 2.847-10.213 1.933-2.993-.644-6.18-2.095-5.66-2.524.26-.216 14.831-2.203 17.238-2.31a.788.788 0 0 1 .067-.005zm142.632 0a.63.63 0 0 1 .075.005c2.407.107 16.978 2.094 17.238 2.31.52.43-2.667 1.88-5.66 2.524-4.163.914-7.546.269-10.213-1.933-1.171-.967-2.147-2.04-2.147-2.363 0-.302.343-.557.707-.543zm-176.326 4.838h.016c.216.024.847 1.228 1.477 2.632 1.43 3.223 5.204 8.217 8.066 10.58l2.082 1.719-3.902 3.06c-2.147 1.665-4.036 3.439-4.23 3.976-.456 1.128-5.985 3.65-13.01 5.906-15.093 4.78-33.956 5.21-47.487 1.021l-3.773-1.18 1.56-1.021c3.383-2.202 20.167-11.225 26.281-14.125 11.97-5.693 29.208-12.298 32.916-12.567zm210.012 0a.05.05 0 0 1 .02.001c3.708.269 20.946 6.874 32.916 12.567 6.114 2.9 22.898 11.923 26.28 14.125l1.561 1.02-3.773 1.181c-13.531 4.189-32.394 3.759-47.486-1.02-7.026-2.257-12.555-4.78-13.01-5.907-.195-.537-2.084-2.31-4.23-3.975l-3.903-3.061 2.082-1.719c2.862-2.363 6.636-7.357 8.066-10.58.63-1.404 1.261-2.608 1.477-2.632zm-221.269 2.148c.065 0 .13.054.13.27 0 .16-1.04.644-2.341 1.074-8.457 2.954-31.551 14.016-41.373 19.87l-6.57 3.922-2.798-1.559c-3.057-1.772-8.066-6.228-8.066-7.249 0-.966 43.91-12.783 59.521-16.005.715-.107 1.367-.27 1.497-.323zm232.542 0c.13.054.782.216 1.497.323 15.612 3.222 59.521 15.039 59.521 16.005 0 1.02-5.01 5.477-8.066 7.249l-2.797 1.559-6.57-3.922c-9.823-5.854-32.917-16.916-41.374-19.87-1.3-.43-2.341-.913-2.341-1.074 0-.216.066-.27.13-.27zm-151.404 2.72h.002c2.955.01 5.825.174 8.955.502 3.188.323 7.74.97 10.082 1.452l4.36.913c.777 3.46 2.977 7.48-.781 6.551-3.839-.912-16.068-.698-22.313.377-2.992.536-9.172 1.986-13.66 3.167-8.001 2.149-8.263 2.203-17.565 2.203-9.562 0-15.027-.698-20.62-2.686l-2.471-.86 3.902-1.61c9.823-4.135 25.241-7.948 37.535-9.292 4.83-.482 8.773-.729 12.574-.717zm70.264 0h.002c3.8-.012 7.744.235 12.574.717 12.294 1.344 27.712 5.157 37.535 9.292l3.903 1.61-2.471.86c-5.594 1.988-11.06 2.686-20.621 2.686-9.302 0-9.564-.054-17.565-2.203-4.488-1.181-10.668-2.63-13.66-3.167-6.245-1.075-18.474-1.29-22.312-.377-4.162-.275-1.738-3.252-.782-6.551l4.36-.913c2.342-.483 6.894-1.129 10.082-1.452 3.13-.328 6-.493 8.955-.502zm-312.014 1.348c2.087-.02 4.448.33 7.223 1.034 4.098 1.074 8.065 3.062 15.22 7.734 3.774 2.416 5.856 4.136 5.4 4.35-.454.162-2.538.484-4.685.7-2.146.214-9.887.966-17.238 1.718-17.239 1.664-16.652 1.664-17.498-.377-2.017-4.887.325-10.955 5.334-13.64 1.866-.999 3.88-1.497 6.244-1.52zm553.766 0c2.364.022 4.378.52 6.244 1.519 5.009 2.685 7.35 8.753 5.334 13.64-.846 2.04-.26 2.041-17.498.377-7.351-.752-15.092-1.504-17.238-1.719-2.147-.215-4.23-.537-4.686-.7-.455-.213 1.627-1.933 5.4-4.35 7.156-4.671 11.123-6.66 15.221-7.733 2.775-.705 5.136-1.055 7.223-1.034zM230.58 58.444l1.82 4.351c.976 2.417 1.953 4.726 2.149 5.21.26.644-1.889 1.503-10.606 4.134-13.14 3.921-16 4.619-34.02 8.217l-13.985 2.74-12.362.052c-16.588 0-25.5-1.663-31.42-5.851-3.902-2.74-3.641-3.223 2.344-3.707 2.732-.215 11.709-1.022 19.84-1.88l14.896-1.504 3.123 1.504c3.773 1.825 8.457 3.222 10.864 3.222 4.033 0 8.262-2.63 11.58-7.196.455-.644 3.055-1.342 7.804-2.201 3.968-.698 11.84-2.58 17.565-4.19zm370.84 0 10.408 2.9c5.724 1.611 13.597 3.493 17.565 4.19 4.749.86 7.35 1.558 7.804 2.202 3.318 4.566 7.547 7.196 11.58 7.196 2.407 0 7.09-1.397 10.864-3.222l3.123-1.504 14.896 1.504c8.131.858 17.108 1.665 19.84 1.88 5.985.484 6.246.968 2.344 3.707-5.92 4.188-14.832 5.851-31.42 5.851l-12.361-.053-13.987-2.74c-18.019-3.597-20.88-4.295-34.02-8.216-8.716-2.63-10.865-3.49-10.605-4.135.196-.483 1.173-2.792 2.149-5.209zm-187.26 3.318 1.84.75c4.658-1.104 12.264-7.753 9.912-.255-.91 2.847-.844 2.793-6.504 4.835L416 68.326l-3.408-1.234c-5.66-2.042-5.594-1.988-6.504-4.835-2.738-6.995 4.991-.873 8.072-.495zm-5.973 4.732c.693-.043 2.438.45 5.317 1.457 1.137.412 1.8.646 2.496.677.696-.03 1.36-.265 2.496-.677 3.838-1.343 5.66-1.772 5.66-1.236 0 1.149-6.464 9.119-8.156 10.233-1.692-1.114-8.156-9.084-8.156-10.233 0-.134.113-.207.344-.221zm-214.818.436h.002c.26.002.455.27.455.645 0 1.45-4.554 5.156-7.48 6.015-2.473.806-3.385.86-5.987.268-3.317-.644-9.495-3.223-8.974-3.652.26-.215 10.275-1.718 21.984-3.276zm445.26 0h.002c11.709 1.558 21.724 3.061 21.984 3.276.521.43-5.657 3.008-8.974 3.652-2.602.591-3.514.538-5.987-.268-2.926-.86-7.48-4.565-7.48-6.015 0-.375.196-.643.455-.645zM56.178 52.699c-5.594 2.255-4.488 9.076 2.017 12.62 5.855 3.223 20.491 6.445 32.2 7.143 3.903.269 3.253.107-3.252-.752-16.653-2.148-26.736-4.994-31.225-8.86-2.016-1.72-2.277-2.257-2.277-4.888 0-2.525.26-3.168 1.562-4.028 1.691-1.128 5.269-1.343 7.285-.43 1.952.806 2.732 3.062 1.822 4.887-.586 1.235-1.171 1.505-2.862 1.505-1.236 0-2.668-.377-3.188-.86-1.236-.967-1.236-1.074-.39-2.417.78-1.127 2.602-1.343 3.773-.376.585.484.78.484.78 0 0-1.128-3.187-1.396-4.553-.376-2.342 1.772-1.041 4.081 2.732 4.834 1.366.268 2.147.052 3.383-1.021 2.211-1.772 2.146-3.652-.066-5.638-2.276-1.988-5.074-2.471-7.74-1.343zM20.335 65.64c-.455.161-.845.967-.845 1.826 0 4.082 5.464 8.379 11.904 9.345 2.017.322 2.407.215 2.407-.484 0-1.074-2.212-4.779-4.163-6.928-2.212-2.47-7.156-4.456-9.303-3.759zM4.723 75.523c-3.578.86-5.593 3.974-4.358 6.66C.95 83.47 4.138 84.599 7 84.599c4.814 0 17.499-4.188 17.238-5.638-.13-.806-9.757-3.384-13.855-3.707-1.952-.16-4.489-.052-5.66.269zm24.654 5.64c-3.838 1.557-6.18 3.812-7.155 6.82-.716 2.202-.065 4.672 1.17 4.672 1.822 0 5.205-1.719 6.766-3.384 1.952-2.094 4.293-6.713 4.293-8.43 0-1.397-1.04-1.344-5.074.321zm262.35 19.44c-4.683 1.611-7.48 3.384-8.846 5.586-1.887 3.06-1.497 4.404 1.366 4.618 3.707.269 7.87-2.31 10.343-6.39 1.106-1.826 2.016-3.652 2.016-4.082 0-.913-1.691-.86-4.879.268zm8.132-.054c0 1.505 2.927 6.23 4.618 7.52 2.212 1.664 6.31 3.007 8.132 2.63 1.951-.428 2.081-2.577.325-4.94-2.992-4.028-13.075-8.002-13.075-5.209zm-3.839 9.829c-2.146 3.759-3.967 9.022-3.967 11.331 0 5.532 6.83 8.485 10.213 4.35 2.341-2.9.91-11.223-3.058-17.292l-1.17-1.88zm479.802-57.679c5.594 2.255 4.488 9.076-2.017 12.62-5.855 3.223-20.491 6.445-32.2 7.143-3.903.269-3.253.107 3.252-.752 16.653-2.148 26.736-4.994 31.225-8.86 2.016-1.72 2.277-2.257 2.277-4.888 0-2.525-.26-3.168-1.562-4.028-1.691-1.128-5.269-1.343-7.285-.43-1.952.806-2.732 3.062-1.822 4.887.586 1.235 1.171 1.505 2.862 1.505 1.236 0 2.668-.377 3.188-.86 1.236-.967 1.236-1.074.39-2.417-.78-1.127-2.602-1.343-3.773-.376-.585.484-.78.484-.78 0 0-1.128 3.187-1.396 4.553-.376 2.342 1.772 1.041 4.081-2.732 4.834-1.366.268-2.147.052-3.383-1.021-2.211-1.772-2.146-3.652.066-5.638 2.276-1.988 5.074-2.471 7.74-1.343zm35.843 12.942c.455.161.845.967.845 1.826 0 4.082-5.464 8.379-11.904 9.345-2.017.322-2.407.215-2.407-.484 0-1.074 2.212-4.779 4.163-6.928 2.212-2.47 7.156-4.456 9.303-3.759zm15.612 9.882c3.578.86 5.594 3.974 4.358 6.66-.585 1.288-3.773 2.416-6.635 2.416-4.814 0-17.499-4.188-17.238-5.638.13-.806 9.757-3.384 13.855-3.707 1.952-.16 4.489-.052 5.66.269zm-24.654 5.64c3.838 1.557 6.18 3.812 7.155 6.82.716 2.202.065 4.672-1.17 4.672-1.822 0-5.205-1.719-6.766-3.384-1.952-2.094-4.293-6.713-4.293-8.43 0-1.397 1.04-1.344 5.074.321zm-262.35 19.44c4.683 1.611 7.48 3.384 8.846 5.586 1.887 3.06 1.497 4.404-1.366 4.618-3.707.269-7.87-2.31-10.343-6.39-1.106-1.826-2.016-3.652-2.016-4.082 0-.913 1.691-.86 4.879.268zm-8.132-.054c0 1.505-2.927 6.23-4.618 7.52-2.212 1.664-6.31 3.007-8.132 2.63-1.951-.428-2.081-2.577-.325-4.94 2.992-4.028 13.075-8.002 13.075-5.209zm3.839 9.829c2.146 3.759 3.967 9.022 3.967 11.331 0 5.532-6.83 8.485-10.213 4.35-2.341-2.9-.91-11.223 3.058-17.292l1.17-1.88z"/>
<path style="fill:#ffb380" d="M416.206 52.247c-13.076-4.296-43.36-10.773-59.948-11.472l-8.197-.375-.715-2.577c-.39-1.397-1.172-3.01-1.692-3.546-.716-.806-.714-.591.067 1.021.52 1.127.974 2.686.974 3.545V40.4l-10.539.269c-5.854.16-10.667.215-10.797.161-.52-.376 1.951-3.545 3.252-4.082 1.887-.86 6.18-.269 8.522 1.128 1.04.699 1.822.913 1.627.536-.455-1.127-4.553-2.684-7.09-2.684-2.667 0-5.336 1.45-6.768 3.758-.975 1.611-1.82 1.827-9.56 2.472l-4.295.32.586-2.254c.976-3.437 2.863-6.121 6.05-8.431 6.896-4.995 17.5-5.158 24.46-.323 2.147 1.45 2.471 1.558 1.3.484-3.188-2.954-6.897-4.242-12.62-4.458a58.284 58.284 0 0 0-2.858-.08h-.002c-2.38.008-3.565.31-5.662 1.154-4.228 1.665-8.913 5.855-10.344 9.238-.65 1.504-1.364 3.167-1.69 3.812-.454.913-1.496 1.182-6.57 1.72-13.79 1.504-36.82 5.799-56.855 10.58-5.53 1.341-10.343 2.416-10.668 2.416-.976 0 1.04-6.23 3.187-9.667 2.602-4.243 5.985-7.25 10.018-9.023 2.733-1.181 4.164-1.449 8.197-1.395 4.163 0 5.53.213 9.108 1.663 2.342.914 5.204 2.204 6.375 2.848 3.122 1.772 2.536.43-.977-2.148-5.464-3.975-8.781-5.103-15.156-5.103-4.943 0-6.05.215-9.823 1.719-8.717 3.545-15.548 11.708-16.068 19.066-.13 2.04-.326 3.65-.39 3.65-.066 0-4.944 1.343-10.864 3.008-9.822 2.739-20.1 4.995-22.834 5.049-.975 0-1.17-.537-1.17-3.437 0-3.868-1.43-6.176-5.138-8.217-2.927-1.665-8.587-1.719-11.645-.161-3.447 1.718-5.27 6.982-3.187 9.13 2.797 2.953 8.457 3.65 11.189 1.34 2.146-1.718 2.146-4.187 0-5.906-1.627-1.343-5.53-1.879-5.53-.75 0 .267.325.375.716.214.91-.483 3.579.107 4.75 1.127 2.602 2.095-.068 6.122-4.036 6.122-3.057 0-6.505-1.718-7.025-3.544-.585-1.934.717-5.102 2.668-6.66 1.171-.912 2.603-1.342 5.14-1.503 6.375-.43 10.731 2.417 11.317 7.465.52 4.834.326 5.048-6.504 6.069-4.18.599-8.364 1.154-12.555 1.665l-6.441.751-2.342-1.395c-1.236-.806-4.616-3.008-7.478-4.888-9.043-6.014-17.372-8.486-23.682-7.09-3.837.86-8 4.352-9.105 7.681-.781 2.202-.781 6.55 0 8.968.195.697-.847.806-6.57.806-3.774 0-10.93-.16-15.938-.322-5.14-.214-7.286-.161-4.88.054 2.343.214 6.31.428 8.782.483 8.652.16 6.31.966-4.683 1.61-24.46 1.45-42.217 2.15-54.512 2.203-9.562 0-12.75.16-12.23.59 1.105.913 58.09-1.128 70.32-2.47 1.496-.216 2.732-.216 2.732-.108 0 .162-1.561 1.181-3.447 2.31-2.993 1.825-3.773 2.041-6.635 1.933-2.407-.107-4.294.215-6.83 1.182-4.945 1.826-13.791 3.866-18.865 4.297-3.838.322-9.497-.107-13.465-1.074-2.147-.484-2.019 1.396.193 3.222 2.277 1.826 5.596 2.63 10.475 2.363 2.212-.054 3.837 0 3.707.162-.13.214-3.188 1.394-6.766 2.629-5.79 2.041-6.96 2.687-10.408 5.802-2.147 1.933-3.902 3.705-3.902 3.92 0 .699 9.952.59 12.1-.053.975-.323 3.706-1.773 6.048-3.17 2.342-1.45 5.14-3.06 6.246-3.598 1.821-.966 1.82-.913-.781 1.933-4.23 4.619-5.01 7.198-3.123 10.205 1.04 1.719 2.277 2.147 2.277.858 0-1.504 2.473-5.477 5.53-8.808 1.69-1.825 6.83-6.068 11.449-9.397 6.7-4.834 8.456-6.337 8.781-7.787.326-1.343 1.366-2.31 4.879-4.405l4.488-2.684 7.807-.645 7.74-.644 2.473 2.201c5.269 4.619 14.507 6.982 29.664 7.52l9.627.32-7.545 1.827c-9.693 2.256-15.548 4.297-20.492 7.09-2.472 1.396-4.62 2.201-5.856 2.201-4.293 0-7.804 2.63-7.804 5.745 0 1.237-.326 1.774-.977 1.774-.65 0-.975-.536-.975-1.504 0-1.825-2.407-3.867-4.49-3.867-.845 0-3.316.966-5.527 2.202-3.903 2.148-4.034 2.202-8.328 1.933-2.537-.16-4.422-.107-4.422.162 0 .323.845 1.29 1.885 2.256 1.822 1.665 2.211 1.773 7.35 2.042 5.27.267 5.4.321 5.4 1.61 0 1.236-.325 1.395-3.252 1.664-4.228.43-4.945.698-6.57 2.793-1.042 1.289-1.497 2.901-1.757 6.284-.195 2.525-.585 5.156-.845 5.854-.39 1.127-.326 1.181.91.644.78-.322 3.839-.806 6.766-1.074 2.993-.215 6.113-.698 6.894-1.074 1.756-.752 3.123-2.9 3.709-5.694.715-3.544 1.04-4.08 2.147-3.92.91.162 1.105.913 1.105 4.35v4.188l2.732 2.15c1.497 1.128 3.058 2.093 3.448 2.093.39 0 .65-1.825.65-4.724 0-4.19.196-4.887 1.367-5.8 2.146-1.558 3.317-4.19 2.602-5.802-.781-1.61-3.123-3.008-5.074-3.008-2.342 0-1.757-.858 1.105-1.557 3.513-.858 5.205-3.115 5.205-6.874 0-2.524.194-2.9 2.08-4.082 6.896-4.296 17.5-7.142 46.774-12.674 18.149-3.437 24.003-4.833 36.752-8.7 5.79-1.718 10.8-3.167 11.125-3.167.326 0 1.692 1.18 3.123 2.684 1.43 1.45 2.73 2.685 2.925 2.685.195.054 1.561.967 3.057 2.042l2.799 1.986-5.856 4.888c-5.009 4.242-6.179 4.94-8.455 5.209-2.017.215-3.513.967-6.57 3.276-9.043 6.928-20.492 11.6-28.363 11.6-2.016 0-2.146.108-1.496 1.074 1.822 2.847 7.806 3.437 13.92 1.342l3.904-1.289-6.244 4.941c-5.66 4.512-6.312 5.265-7.938 8.916-.976 2.149-1.624 4.082-1.43 4.188.456.377 4.747-.86 8.26-2.31 3.318-1.341 4.49-2.416 9.37-8.163 3.251-3.866 5.072-5.156 3.316-2.416-1.301 2.202-2.406 6.875-1.951 8.701.196.86 1.365 2.363 2.601 3.33l2.211 1.773v-3.224c0-1.719.326-4.241.717-5.584.715-2.578 5.27-10.526 10.018-17.454 2.016-3.062 2.927-4.89 2.927-6.393 0-2.255 1.886-4.295 8.912-9.612l3.383-2.578 3.121 1.289c9.888 4.136 25.307 4.565 40.073 1.236 5.595-1.29 17.108-4.888 18.539-5.8 1.3-.914.91-.162-1.56 2.845-4.295 5.318-10.474 16.81-9.823 18.42.13.323.91-1.127 1.756-3.167 2.277-5.8 4.879-10.204 8.781-15.091 3.838-4.726 6.766-7.036 12.88-10.043l3.708-1.88 4.033 1.343c6.245 2.095 13.987 3.008 22.639 2.685 6.375-.215 8.651-.59 15.611-2.417 8.457-2.202 16.132-3.651 21.986-4.028 1.822-.107 3.383-.162 3.383-.108 0 .054-1.821.7-4.033 1.344-7.156 2.149-13.66 6.282-16.133 10.203-1.95 3.115-9.366 8.271-13.53 9.346-1.04.322-1.95.052-3.382-.915-3.383-2.362-6.895-2.307-11.19.27-1.69 1.02-2.144.16-.583-1.129 3.252-2.685.455-7.034-4.424-7.034-3.838 0-5.92-.86-9.303-3.867l-3.057-2.74-.39 1.987c-.716 2.954.064 4.458 3.576 7.251 3.383 2.685 4.034 3.973 2.213 4.565-1.17.375-2.212-.054-3.383-1.343-.39-.536-1.821-1.235-2.992-1.557-3.318-.913-6.96.215-10.344 3.061-1.496 1.29-3.708 2.847-4.879 3.49l-2.21 1.13 1.886.697c1.04.43 3.448 1.879 5.4 3.168 5.463 3.76 7.935 3.868 13.725.538 5.464-3.115 6.31-1.182 1.236 2.846-3.188 2.578-3.254 2.632-3.254 5.908 0 1.826.262 3.33.522 3.33.326 0 1.365-.753 2.47-1.666 2.864-2.524 6.767-4.78 7.743-4.458 1.43.484 5.4-.804 6.506-2.093 1.366-1.612 1.235-3.76-.327-5.371-1.496-1.557-.586-2.578 1.17-1.289 2.017 1.45 3.904 1.557 6.897.483 1.56-.59 3.383-1.719 3.969-2.471.65-.752 2.795-2.146 4.812-3.006 2.016-.914 4.879-2.579 6.31-3.76l2.733-2.094-.066 3.865c-.13 9.399 6.57 15.952 16.199 15.952 2.992 0 8.457-1.987 10.473-3.813 6.245-5.64 3.318-15.52-4.88-16.433-5.203-.592-11.189 3.167-11.189 6.98 0 2.954 3.45 6.284 6.506 6.284 1.561 0 5.268-1.771 5.984-2.9.715-1.128.716-1.128-.845.054-3.578 2.685-6.96 2.63-9.627-.162-2.992-3.167-.781-7.357 4.879-9.129 5.203-1.61 9.692.376 11.383 5.156 1.886 5.155-2.147 11.01-8.717 12.621-1.821.43-3.902.804-4.617.804-4.814 0-10.344-3.115-12.881-7.197-1.887-3.061-2.341-9.506-.91-13.05 2.017-4.994 7.544-9.022 16.001-11.653 5.79-1.773 9.564-2.15 13.987-1.397 3.383.59 3.772.806 4.683 2.58.955 1.97 6.836 9.001 8.352 10.148 1.516-1.147 7.397-8.178 8.352-10.149.91-1.773 1.3-1.989 4.683-2.58 4.423-.751 8.197-.375 13.986 1.398 8.457 2.631 13.985 6.659 16.002 11.654 1.431 3.543.977 9.988-.91 13.049-2.537 4.082-8.067 7.197-12.88 7.197-.716 0-2.797-.375-4.618-.804-6.57-1.611-10.603-7.466-8.717-12.621 1.691-4.78 6.18-6.766 11.383-5.156 5.66 1.772 7.871 5.962 4.88 9.13-2.669 2.791-6.05 2.846-9.628.16-1.56-1.181-1.56-1.18-.846-.053.716 1.129 4.424 2.9 5.985 2.9 3.057 0 6.506-3.33 6.506-6.283 0-3.814-5.986-7.573-11.19-6.981-8.197.912-11.124 10.793-4.879 16.433 2.016 1.826 7.481 3.813 10.473 3.813 9.628 0 16.33-6.553 16.2-15.952l-.067-3.865 2.732 2.094c1.432 1.181 4.295 2.846 6.31 3.76 2.018.86 4.163 2.254 4.813 3.006.586.752 2.409 1.88 3.969 2.471 2.993 1.074 4.88.967 6.897-.483 1.756-1.289 2.665-.268 1.17 1.289-1.563 1.611-1.693 3.76-.327 5.37 1.106 1.29 5.076 2.578 6.506 2.094.976-.322 4.88 1.934 7.742 4.458 1.106.913 2.145 1.665 2.471 1.665.26 0 .522-1.503.522-3.329 0-3.276-.066-3.33-3.254-5.908-5.074-4.028-4.228-5.961 1.236-2.846 5.79 3.33 8.262 3.222 13.725-.538 1.952-1.29 4.36-2.738 5.4-3.168l1.887-.697-2.211-1.13c-1.171-.643-3.383-2.2-4.88-3.49-3.382-2.846-7.025-3.974-10.343-3.06-1.17.321-2.602 1.02-2.992 1.556-1.171 1.29-2.213 1.718-3.383 1.343-1.82-.592-1.17-1.88 2.213-4.565 3.512-2.793 4.292-4.297 3.576-7.25l-.39-1.987-3.057 2.74c-3.382 3.006-5.465 3.866-9.303 3.866-4.879 0-7.676 4.35-4.424 7.034 1.561 1.29 1.107 2.15-.584 1.13-4.294-2.578-7.806-2.633-11.19-.27-1.43.966-2.341 1.236-3.382.914-4.163-1.075-11.578-6.231-13.53-9.346-2.472-3.92-8.976-8.054-16.132-10.203-2.212-.644-4.033-1.29-4.033-1.344 0-.054 1.56 0 3.383.108 5.854.377 13.529 1.826 21.986 4.028 6.96 1.826 9.236 2.202 15.611 2.417 8.652.323 16.394-.59 22.639-2.685l4.033-1.344 3.707 1.88c6.115 3.008 9.043 5.318 12.88 10.044 3.903 4.887 6.505 9.29 8.782 15.09.846 2.041 1.626 3.491 1.756 3.168.651-1.61-5.528-13.102-9.822-18.42-2.471-3.007-2.86-3.759-1.56-2.846 1.43.913 12.943 4.512 18.538 5.8 14.766 3.33 30.185 2.9 40.073-1.235l3.12-1.289 3.383 2.578c7.026 5.317 8.913 7.357 8.913 9.612 0 1.504.911 3.331 2.927 6.393 4.748 6.928 9.303 14.876 10.018 17.454.39 1.343.717 3.865.717 5.584v3.224l2.21-1.774c1.237-.966 2.406-2.47 2.602-3.329.455-1.826-.65-6.5-1.951-8.7-1.756-2.741.064-1.45 3.316 2.415 4.88 5.747 6.052 6.822 9.37 8.164 3.513 1.45 7.804 2.686 8.26 2.31.194-.107-.454-2.04-1.43-4.189-1.626-3.651-2.278-4.404-7.938-8.916l-6.244-4.94 3.904 1.288c6.114 2.095 12.098 1.505 13.92-1.342.65-.966.52-1.074-1.496-1.074-7.87 0-19.32-4.672-28.363-11.6-3.057-2.31-4.553-3.061-6.57-3.276-2.276-.268-3.447-.967-8.456-5.21l-5.855-4.887 2.799-1.986c1.496-1.075 2.861-1.988 3.056-2.042.195 0 1.495-1.234 2.926-2.685 1.431-1.503 2.797-2.684 3.123-2.684.325 0 5.335 1.449 11.125 3.167 12.75 3.867 18.603 5.263 36.752 8.7 29.273 5.532 39.878 8.378 46.774 12.674 1.886 1.182 2.08 1.558 2.08 4.082 0 3.759 1.692 6.016 5.205 6.874 2.862.699 3.447 1.557 1.105 1.557-1.95 0-4.293 1.398-5.074 3.008-.715 1.612.456 4.244 2.602 5.802 1.17.913 1.367 1.61 1.367 5.8 0 2.9.26 4.724.65 4.724s1.95-.965 3.447-2.093l2.733-2.15v-4.188c0-3.437.194-4.188 1.105-4.35 1.106-.16 1.432.376 2.147 3.92.586 2.793 1.953 4.942 3.709 5.694.78.376 3.901.859 6.894 1.074 2.927.268 5.986.752 6.766 1.074 1.236.537 1.3.483.91-.644-.26-.698-.65-3.33-.846-5.854-.26-3.383-.714-4.995-1.755-6.285-1.626-2.094-2.343-2.363-6.57-2.792-2.928-.269-3.253-.428-3.253-1.664 0-1.289.13-1.343 5.4-1.61 5.139-.27 5.528-.377 7.35-2.042 1.04-.967 1.885-1.933 1.885-2.256 0-.269-1.885-.323-4.422-.162-4.294.269-4.425.215-8.328-1.933-2.21-1.236-4.682-2.202-5.527-2.202-2.083 0-4.49 2.042-4.49 3.867 0 .968-.325 1.504-.975 1.504-.651 0-.977-.537-.977-1.774 0-3.115-3.511-5.745-7.804-5.745-1.236 0-3.384-.805-5.856-2.201-4.944-2.793-10.799-4.834-20.492-7.09l-7.545-1.826 9.627-.322c15.157-.537 24.395-2.9 29.664-7.519l2.473-2.201 7.74.644 7.807.645 4.488 2.684c3.513 2.095 4.553 3.062 4.879 4.405.325 1.45 2.081 2.953 8.781 7.787 4.62 3.33 9.758 7.572 11.45 9.397 3.056 3.33 5.529 7.304 5.529 8.808 0 1.289 1.237.86 2.277-.858 1.887-3.007 1.107-5.586-3.123-10.205-2.601-2.846-2.602-2.9-.781-1.933 1.106.537 3.904 2.148 6.246 3.599 2.342 1.396 5.073 2.846 6.049 3.169 2.147.644 12.1.752 12.1.053 0-.215-1.756-1.987-3.903-3.92-3.448-3.115-4.618-3.76-10.408-5.802-3.578-1.235-6.636-2.415-6.766-2.63-.13-.16 1.495-.215 3.707-.161 4.879.267 8.198-.537 10.475-2.363 2.212-1.826 2.34-3.706.193-3.222-3.968.967-9.627 1.396-13.465 1.074-5.074-.43-13.92-2.47-18.865-4.297-2.536-.967-4.423-1.29-6.83-1.182-2.862.108-3.642-.108-6.635-1.934-1.886-1.128-3.447-2.147-3.447-2.31 0-.107 1.236-.107 2.732.109 12.23 1.342 69.215 3.383 70.32 2.47.52-.43-2.668-.59-12.23-.59-12.295-.054-30.053-.753-54.512-2.203-10.994-.644-13.335-1.45-4.683-1.61 2.472-.055 6.439-.269 8.781-.483 2.407-.215.26-.268-4.879-.054-5.009.161-12.164.322-15.937.322-5.724 0-6.766-.109-6.57-.806.78-2.417.78-6.766 0-8.968-1.107-3.33-5.27-6.82-9.106-7.68-6.31-1.397-14.639 1.075-23.682 7.089-2.862 1.88-6.242 4.082-7.478 4.888l-2.342 1.395-6.442-.75a605.579 605.579 0 0 1-12.554-1.666c-6.83-1.02-7.024-1.235-6.504-6.069.586-5.048 4.942-7.894 11.316-7.465 2.538.161 3.97.591 5.14 1.504 1.952 1.557 3.254 4.725 2.669 6.66-.52 1.825-3.969 3.543-7.026 3.543-3.968 0-6.637-4.027-4.035-6.122 1.171-1.02 3.84-1.61 4.75-1.127.391.161.715.053.715-.215 0-1.128-3.902-.592-5.53.751-2.145 1.719-2.145 4.188 0 5.907 2.733 2.31 8.393 1.612 11.19-1.34 2.082-2.15.26-7.413-3.187-9.131-3.058-1.558-8.718-1.504-11.645.161-3.708 2.04-5.138 4.35-5.138 8.217 0 2.9-.195 3.437-1.17 3.437-2.733-.054-13.012-2.31-22.834-5.05-5.92-1.664-10.799-3.007-10.864-3.007-.065 0-.26-1.61-.39-3.65-.52-7.358-7.352-15.52-16.069-19.066-3.772-1.504-4.879-1.719-9.822-1.719-6.375 0-9.692 1.128-15.156 5.103-3.513 2.577-4.099 3.92-.977 2.148 1.171-.644 4.033-1.934 6.375-2.848 3.577-1.45 4.945-1.663 9.108-1.663 4.033-.054 5.464.214 8.197 1.395 4.033 1.772 7.416 4.78 10.018 9.023 2.147 3.437 4.163 9.667 3.187 9.667-.325 0-5.139-1.075-10.668-2.417-20.036-4.78-43.065-9.075-56.855-10.58-5.074-.537-6.116-.806-6.57-1.72-.326-.644-1.04-2.307-1.69-3.811-1.431-3.383-6.116-7.573-10.344-9.238-2.097-.845-3.281-1.146-5.662-1.154h-.002c-.953.003-1.906.03-2.857.08-5.724.216-9.433 1.504-12.621 4.458-1.171 1.074-.847.966 1.3-.484 6.96-4.835 17.564-4.672 24.46.323 3.187 2.31 5.074 4.994 6.05 8.431l.586 2.255-4.295-.321c-7.74-.645-8.585-.86-9.56-2.472-1.432-2.309-4.101-3.758-6.768-3.758-2.537 0-6.635 1.557-7.09 2.684-.195.377.587.163 1.627-.536 2.342-1.397 6.635-1.987 8.522-1.128 1.3.537 3.772 3.706 3.252 4.082-.13.054-4.943 0-10.797-.161l-10.54-.269v-1.557c0-.86.455-2.418.975-3.545.781-1.612.783-1.827.067-1.02-.52.536-1.302 2.148-1.692 3.545l-.715 2.577-8.197.375c-16.588.699-59.536 11.472-59.536 11.472M346.76 41.098l-.196 1.719c-.195 1.988.976 1.665-13.205 3.384-6.7.805-7.155.805-7.935-.054-.456-.536-.846-1.72-.846-2.686 0-1.772 0-1.773 3.773-1.988 2.017-.107 7.026-.215 11.059-.268zm138.48 0 7.35.107c4.033.053 9.041.16 11.058.268 3.773.215 3.774.216 3.774 1.988 0 .966-.39 2.15-.846 2.686-.78.86-1.235.859-7.935.054-14.181-1.719-13.01-1.396-13.206-3.384zm-134.41.059c1.1 0 2.548.063 4.451.156 3.968.162 10.603.698 14.832 1.18 12.424 1.343 11.84 1.56-4.424 1.613-8.456.053-16.066.214-16.847.43-1.236.321-1.496.215-1.496-.698 0-2.095.182-2.679 3.484-2.681zm130.34 0c3.302.002 3.484.586 3.484 2.68 0 .914-.26 1.02-1.496.698-.78-.215-8.392-.376-16.848-.43-16.263-.053-16.847-.269-4.423-1.611 4.229-.483 10.864-1.02 14.832-1.181 1.903-.093 3.35-.156 4.45-.156zm-157.697.532c.26 0 .455.912.455 2.04 0 1.182.325 2.31.65 2.472.39.16.65.483.65.697 0 .484-12.944 2.472-13.4 2.095-.195-.16-.52-1.61-.715-3.222l-.39-2.954 6.115-.483c3.383-.322 6.31-.59 6.635-.645zm185.054 0c.325.054 3.252.323 6.635.645l6.115.483-.39 2.954c-.195 1.612-.52 3.061-.715 3.222-.456.377-13.4-1.61-13.4-2.095 0-.214.26-.536.65-.697.325-.161.65-1.29.65-2.472 0-1.128.195-2.04.455-2.04zm-199.806 1.602h.002c1.356.015 1.399.384 1.74 3.016.195 1.719.323 3.168.193 3.223-.065.107-3.771.913-8.26 1.826-16.457 3.33-40.397 9.398-58.22 14.715l-6.18 1.88-.976-1.933c-.52-1.074-1.17-3.439-1.366-5.264l-.39-3.383 4.162-1.129c19.06-5.101 58.937-12.62 68.63-12.942.222-.007.443-.01.665-.009zm214.556 0h.002c.222-.001.443.002.664.009 9.694.323 49.571 7.84 68.631 12.942l4.162 1.13-.39 3.382c-.195 1.825-.845 4.19-1.365 5.264l-.977 1.933-6.18-1.88c-17.823-5.317-41.762-11.385-58.22-14.715-4.488-.913-8.195-1.72-8.26-1.826-.13-.055-.002-1.504.193-3.223.341-2.632.384-3 1.74-3.016zm-158.605 1.284c1.5.003 3.067.026 4.79.067 3.774.108 9.044.27 11.712.323 5.659.053 9.691.859 18.017 3.49 6.215 1.848 6.592.886 5.075 6.498-.065.054-1.172-.213-2.409-.642-5.008-1.772-15.155-3.008-24.132-3.008-18.15 0-35.128 3.92-50.805 11.707l-3.902 1.934-2.733-2.578c-2.862-2.578-8.327-10.741-7.87-11.816.324-.751 13.399-2.954 13.919-2.31.781 1.021 7.157 3.063 9.629 3.063 3.708 0 7.674-1.666 9.365-3.922 1.301-1.772 1.694-1.933 5.467-2.201 5.513-.444 9.38-.615 13.877-.605zm102.656 0c4.497-.01 8.364.161 13.877.605 3.773.268 4.166.43 5.467 2.201 1.69 2.256 5.657 3.922 9.365 3.922 2.472 0 8.848-2.042 9.629-3.062.52-.645 13.595 1.558 13.92 2.31.456 1.074-5.01 9.237-7.871 11.815l-2.733 2.578-3.902-1.934c-15.677-7.787-32.655-11.707-50.805-11.707-8.977 0-19.124 1.236-24.132 3.008-1.237.43-2.344.696-2.409.642-1.734-5.576-.79-4.623 5.075-6.498 8.326-2.631 12.358-3.437 18.017-3.49 2.668-.054 7.938-.215 11.711-.323a225.71 225.71 0 0 1 4.791-.067zm-122.648.868h.008c.364-.014.707.241.707.543 0 .323-.976 1.396-2.147 2.363-2.667 2.201-6.05 2.847-10.213 1.933-2.993-.644-6.18-2.095-5.66-2.524.26-.216 14.831-2.203 17.238-2.31a.788.788 0 0 1 .067-.005zm142.632 0a.63.63 0 0 1 .075.005c2.407.107 16.978 2.094 17.238 2.31.52.43-2.667 1.88-5.66 2.524-4.163.914-7.546.269-10.213-1.933-1.171-.967-2.147-2.04-2.147-2.363 0-.302.343-.557.707-.543zm-176.326 4.838h.016c.216.024.847 1.228 1.477 2.632 1.43 3.223 5.204 8.217 8.066 10.58l2.082 1.719-3.902 3.06c-2.147 1.665-4.036 3.439-4.23 3.976-.456 1.128-5.985 3.65-13.01 5.906-15.093 4.78-33.956 5.21-47.487 1.021l-3.773-1.18 1.56-1.021c3.383-2.202 20.167-11.225 26.281-14.125 11.97-5.693 29.208-12.298 32.916-12.567zm210.012 0a.05.05 0 0 1 .02.001c3.708.269 20.946 6.874 32.916 12.567 6.114 2.9 22.898 11.923 26.28 14.125l1.561 1.02-3.773 1.181c-13.531 4.189-32.394 3.759-47.486-1.02-7.026-2.257-12.555-4.78-13.01-5.907-.195-.537-2.084-2.31-4.23-3.975l-3.903-3.061 2.082-1.719c2.862-2.363 6.636-7.357 8.066-10.58.63-1.404 1.261-2.608 1.477-2.632zm-221.269 2.148c.065 0 .13.054.13.27 0 .16-1.04.644-2.341 1.074-8.457 2.954-31.551 14.016-41.373 19.87l-6.57 3.922-2.798-1.559c-3.057-1.772-8.066-6.228-8.066-7.249 0-.966 43.91-12.783 59.521-16.005.715-.107 1.367-.27 1.497-.323zm232.542 0c.13.054.782.216 1.497.323 15.612 3.222 59.521 15.039 59.521 16.005 0 1.02-5.01 5.477-8.066 7.249l-2.797 1.559-6.57-3.922c-9.823-5.854-32.917-16.916-41.374-19.87-1.3-.43-2.341-.913-2.341-1.074 0-.216.066-.27.13-.27zm-151.404 2.72h.002c2.955.01 5.825.174 8.955.502 3.188.323 7.74.97 10.082 1.452l4.36.913c.777 3.46 2.977 7.48-.781 6.551-3.839-.912-16.068-.698-22.313.377-2.992.536-9.172 1.986-13.66 3.167-8.001 2.149-8.263 2.203-17.565 2.203-9.562 0-15.027-.698-20.62-2.686l-2.471-.86 3.902-1.61c9.823-4.135 25.241-7.948 37.535-9.292 4.83-.482 8.773-.729 12.574-.717zm70.264 0h.002c3.8-.012 7.744.235 12.574.717 12.294 1.344 27.712 5.157 37.535 9.292l3.903 1.61-2.471.86c-5.594 1.988-11.06 2.686-20.621 2.686-9.302 0-9.564-.054-17.565-2.203-4.488-1.181-10.668-2.63-13.66-3.167-6.245-1.075-18.474-1.29-22.312-.377-4.162-.275-1.738-3.252-.782-6.551l4.36-.913c2.342-.483 6.894-1.129 10.082-1.452 3.13-.328 6-.493 8.955-.502zm-312.014 1.348c2.087-.02 4.448.33 7.223 1.034 4.098 1.074 8.065 3.062 15.22 7.734 3.774 2.416 5.856 4.136 5.4 4.35-.454.162-2.538.484-4.685.7-2.146.214-9.887.966-17.238 1.718-17.239 1.664-16.652 1.664-17.498-.377-2.017-4.887.325-10.955 5.334-13.64 1.866-.999 3.88-1.497 6.244-1.52zm553.766 0c2.364.022 4.378.52 6.244 1.519 5.009 2.685 7.35 8.753 5.334 13.64-.846 2.04-.26 2.041-17.498.377-7.351-.752-15.092-1.504-17.238-1.719-2.147-.215-4.23-.537-4.686-.7-.455-.213 1.627-1.933 5.4-4.35 7.156-4.671 11.123-6.66 15.221-7.733 2.775-.705 5.136-1.055 7.223-1.034zM230.58 58.444l1.82 4.351c.976 2.417 1.953 4.726 2.149 5.21.26.644-1.889 1.503-10.606 4.134-13.14 3.921-16 4.619-34.02 8.217l-13.985 2.74-12.362.052c-16.588 0-25.5-1.663-31.42-5.851-3.902-2.74-3.641-3.223 2.344-3.707 2.732-.215 11.709-1.022 19.84-1.88l14.896-1.504 3.123 1.504c3.773 1.825 8.457 3.222 10.864 3.222 4.033 0 8.262-2.63 11.58-7.196.455-.644 3.055-1.342 7.804-2.201 3.968-.698 11.84-2.58 17.565-4.19zm370.84 0 10.408 2.9c5.724 1.611 13.597 3.493 17.565 4.19 4.749.86 7.35 1.558 7.804 2.202 3.318 4.566 7.547 7.196 11.58 7.196 2.407 0 7.09-1.397 10.864-3.222l3.123-1.504 14.896 1.504c8.131.858 17.108 1.665 19.84 1.88 5.985.484 6.246.968 2.344 3.707-5.92 4.188-14.832 5.851-31.42 5.851l-12.361-.053-13.987-2.74c-18.019-3.597-20.88-4.295-34.02-8.216-8.716-2.63-10.865-3.49-10.605-4.135.196-.483 1.173-2.792 2.149-5.209zm-187.26 3.318 1.84.75c4.658-1.104 12.264-7.753 9.912-.255-.91 2.847-.844 2.793-6.504 4.835L416 68.326l-3.408-1.234c-5.66-2.042-5.594-1.988-6.504-4.835-2.738-6.995 4.991-.873 8.072-.495zm-5.973 4.732c.693-.043 2.438.45 5.317 1.457 1.137.412 1.8.646 2.496.677.696-.03 1.36-.265 2.496-.677 3.838-1.343 5.66-1.772 5.66-1.236 0 1.149-6.464 9.119-8.156 10.233-1.692-1.114-8.156-9.084-8.156-10.233 0-.134.113-.207.344-.221zm-214.818.436h.002c.26.002.455.27.455.645 0 1.45-4.554 5.156-7.48 6.015-2.473.806-3.385.86-5.987.268-3.317-.644-9.495-3.223-8.974-3.652.26-.215 10.275-1.718 21.984-3.276zm445.26 0h.002c11.709 1.558 21.724 3.061 21.984 3.276.521.43-5.657 3.008-8.974 3.652-2.602.591-3.514.538-5.987-.268-2.926-.86-7.48-4.565-7.48-6.015 0-.375.196-.643.455-.645zM56.178 52.699c-5.594 2.255-4.488 9.076 2.017 12.62 5.855 3.223 20.491 6.445 32.2 7.143 3.903.269 3.253.107-3.252-.752-16.653-2.148-26.736-4.994-31.225-8.86-2.016-1.72-2.277-2.257-2.277-4.888 0-2.525.26-3.168 1.562-4.028 1.691-1.128 5.269-1.343 7.285-.43 1.952.806 2.732 3.062 1.822 4.887-.586 1.235-1.171 1.505-2.862 1.505-1.236 0-2.668-.377-3.188-.86-1.236-.967-1.236-1.074-.39-2.417.78-1.127 2.602-1.343 3.773-.376.585.484.78.484.78 0 0-1.128-3.187-1.396-4.553-.376-2.342 1.772-1.041 4.081 2.732 4.834 1.366.268 2.147.052 3.383-1.021 2.211-1.772 2.146-3.652-.066-5.638-2.276-1.988-5.074-2.471-7.74-1.343zM20.335 65.64c-.455.161-.845.967-.845 1.826 0 4.082 5.464 8.379 11.904 9.345 2.017.322 2.407.215 2.407-.484 0-1.074-2.212-4.779-4.163-6.928-2.212-2.47-7.156-4.456-9.303-3.759zM4.723 75.523c-3.578.86-5.593 3.974-4.358 6.66C.95 83.47 4.138 84.599 7 84.599c4.814 0 17.499-4.188 17.238-5.638-.13-.806-9.757-3.384-13.855-3.707-1.952-.16-4.489-.052-5.66.269zm24.654 5.64c-3.838 1.557-6.18 3.812-7.155 6.82-.716 2.202-.065 4.672 1.17 4.672 1.822 0 5.205-1.719 6.766-3.384 1.952-2.094 4.293-6.713 4.293-8.43 0-1.397-1.04-1.344-5.074.321zm262.35 19.44c-4.683 1.611-7.48 3.384-8.846 5.586-1.887 3.06-1.497 4.404 1.366 4.618 3.707.269 7.87-2.31 10.343-6.39 1.106-1.826 2.016-3.652 2.016-4.082 0-.913-1.691-.86-4.879.268zm8.132-.054c0 1.505 2.927 6.23 4.618 7.52 2.212 1.664 6.31 3.007 8.132 2.63 1.951-.428 2.081-2.577.325-4.94-2.992-4.028-13.075-8.002-13.075-5.209zm-3.839 9.829c-2.146 3.759-3.967 9.022-3.967 11.331 0 5.532 6.83 8.485 10.213 4.35 2.341-2.9.91-11.223-3.058-17.292l-1.17-1.88zm479.802-57.679c5.594 2.255 4.488 9.076-2.017 12.62-5.855 3.223-20.491 6.445-32.2 7.143-3.903.269-3.253.107 3.252-.752 16.653-2.148 26.736-4.994 31.225-8.86 2.016-1.72 2.277-2.257 2.277-4.888 0-2.525-.26-3.168-1.562-4.028-1.691-1.128-5.269-1.343-7.285-.43-1.952.806-2.732 3.062-1.822 4.887.586 1.235 1.171 1.505 2.862 1.505 1.236 0 2.668-.377 3.188-.86 1.236-.967 1.236-1.074.39-2.417-.78-1.127-2.602-1.343-3.773-.376-.585.484-.78.484-.78 0 0-1.128 3.187-1.396 4.553-.376 2.342 1.772 1.041 4.081-2.732 4.834-1.366.268-2.147.052-3.383-1.021-2.211-1.772-2.146-3.652.066-5.638 2.276-1.988 5.074-2.471 7.74-1.343zm35.843 12.942c.455.161.845.967.845 1.826 0 4.082-5.464 8.379-11.904 9.345-2.017.322-2.407.215-2.407-.484 0-1.074 2.212-4.779 4.163-6.928 2.212-2.47 7.156-4.456 9.303-3.759zm15.612 9.882c3.578.86 5.594 3.974 4.358 6.66-.585 1.288-3.773 2.416-6.635 2.416-4.814 0-17.499-4.188-17.238-5.638.13-.806 9.757-3.384 13.855-3.707 1.952-.16 4.489-.052 5.66.269zm-24.654 5.64c3.838 1.557 6.18 3.812 7.155 6.82.716 2.202.065 4.672-1.17 4.672-1.822 0-5.205-1.719-6.766-3.384-1.952-2.094-4.293-6.713-4.293-8.43 0-1.397 1.04-1.344 5.074.321zm-262.35 19.44c4.683 1.611 7.48 3.384 8.846 5.586 1.887 3.06 1.497 4.404-1.366 4.618-3.707.269-7.87-2.31-10.343-6.39-1.106-1.826-2.016-3.652-2.016-4.082 0-.913 1.691-.86 4.879.268zm-8.132-.054c0 1.505-2.927 6.23-4.618 7.52-2.212 1.664-6.31 3.007-8.132 2.63-1.951-.428-2.081-2.577-.325-4.94 2.992-4.028 13.075-8.002 13.075-5.209zm3.839 9.829c2.146 3.759 3.967 9.022 3.967 11.331 0 5.532-6.83 8.485-10.213 4.35-2.341-2.9-.91-11.223 3.058-17.292l1.17-1.88z"/></svg>
